<svg width="448" height="409" viewBox="0 0 448 409" fill="none" xmlns="http://www.w3.org/2000/svg">
<rect x="0.980469" y="0.208008" width="447" height="408" rx="1" fill="white"/>
<path opacity="0.7" d="M98.8445 377.32C98.0978 377.32 97.4258 377.192 96.8285 376.936C96.2311 376.669 95.7618 376.296 95.4205 375.816C95.0791 375.336 94.9085 374.776 94.9085 374.136H96.8605C96.9031 374.616 97.0898 375.011 97.4205 375.32C97.7618 375.629 98.2365 375.784 98.8445 375.784C99.4738 375.784 99.9645 375.635 100.316 375.336C100.668 375.027 100.844 374.632 100.844 374.152C100.844 373.779 100.732 373.475 100.508 373.24C100.295 373.005 100.023 372.824 99.6925 372.696C99.3725 372.568 98.9245 372.429 98.3485 372.28C97.6231 372.088 97.0311 371.896 96.5725 371.704C96.1245 371.501 95.7405 371.192 95.4205 370.776C95.1005 370.36 94.9405 369.805 94.9405 369.112C94.9405 368.472 95.1005 367.912 95.4205 367.432C95.7405 366.952 96.1885 366.584 96.7645 366.328C97.3405 366.072 98.0071 365.944 98.7645 365.944C99.8418 365.944 100.722 366.216 101.404 366.76C102.098 367.293 102.482 368.029 102.556 368.968H100.54C100.508 368.563 100.316 368.216 99.9645 367.928C99.6125 367.64 99.1485 367.496 98.5725 367.496C98.0498 367.496 97.6231 367.629 97.2925 367.896C96.9618 368.163 96.7965 368.547 96.7965 369.048C96.7965 369.389 96.8978 369.672 97.1005 369.896C97.3138 370.109 97.5805 370.28 97.9005 370.408C98.2205 370.536 98.6578 370.675 99.2125 370.824C99.9485 371.027 100.546 371.229 101.004 371.432C101.474 371.635 101.868 371.949 102.188 372.376C102.519 372.792 102.684 373.352 102.684 374.056C102.684 374.621 102.53 375.155 102.22 375.656C101.922 376.157 101.479 376.563 100.892 376.872C100.316 377.171 99.6338 377.32 98.8445 377.32ZM104.229 372.76C104.229 371.875 104.41 371.091 104.773 370.408C105.146 369.725 105.647 369.197 106.277 368.824C106.917 368.44 107.621 368.248 108.389 368.248C109.082 368.248 109.685 368.387 110.197 368.664C110.719 368.931 111.135 369.267 111.445 369.672V368.392H113.285V377.208H111.445V375.896C111.135 376.312 110.714 376.659 110.181 376.936C109.647 377.213 109.039 377.352 108.357 377.352C107.599 377.352 106.906 377.16 106.277 376.776C105.647 376.381 105.146 375.837 104.773 375.144C104.41 374.44 104.229 373.645 104.229 372.76ZM111.445 372.792C111.445 372.184 111.317 371.656 111.061 371.208C110.815 370.76 110.49 370.419 110.085 370.184C109.679 369.949 109.242 369.832 108.773 369.832C108.303 369.832 107.866 369.949 107.461 370.184C107.055 370.408 106.725 370.744 106.469 371.192C106.223 371.629 106.101 372.152 106.101 372.76C106.101 373.368 106.223 373.901 106.469 374.36C106.725 374.819 107.055 375.171 107.461 375.416C107.877 375.651 108.314 375.768 108.773 375.768C109.242 375.768 109.679 375.651 110.085 375.416C110.49 375.181 110.815 374.84 111.061 374.392C111.317 373.933 111.445 373.4 111.445 372.792ZM117.504 365.368V377.208H115.68V365.368H117.504ZM127.979 372.584C127.979 372.915 127.958 373.213 127.915 373.48H121.179C121.233 374.184 121.494 374.749 121.963 375.176C122.433 375.603 123.009 375.816 123.691 375.816C124.673 375.816 125.366 375.405 125.771 374.584H127.739C127.473 375.395 126.987 376.061 126.283 376.584C125.59 377.096 124.726 377.352 123.691 377.352C122.849 377.352 122.091 377.165 121.419 376.792C120.758 376.408 120.235 375.875 119.851 375.192C119.478 374.499 119.291 373.699 119.291 372.792C119.291 371.885 119.473 371.091 119.835 370.408C120.209 369.715 120.726 369.181 121.387 368.808C122.059 368.435 122.827 368.248 123.691 368.248C124.523 368.248 125.265 368.429 125.915 368.792C126.566 369.155 127.073 369.667 127.435 370.328C127.798 370.979 127.979 371.731 127.979 372.584ZM126.075 372.008C126.065 371.336 125.825 370.797 125.355 370.392C124.886 369.987 124.305 369.784 123.611 369.784C122.982 369.784 122.443 369.987 121.995 370.392C121.547 370.787 121.281 371.325 121.195 372.008H126.075Z" fill="#030229"/>
<rect x="68.9805" y="365.208" width="15" height="15" rx="5" fill="#F79320"/>
<path opacity="0.7" d="M206.66 366.088L203.364 377.208H201.3L198.964 368.792L196.484 377.208L194.436 377.224L191.284 366.088H193.22L195.524 375.144L198.02 366.088H200.068L202.388 375.096L204.708 366.088H206.66ZM209.093 367.224C208.762 367.224 208.485 367.112 208.261 366.888C208.037 366.664 207.925 366.387 207.925 366.056C207.925 365.725 208.037 365.448 208.261 365.224C208.485 365 208.762 364.888 209.093 364.888C209.413 364.888 209.685 365 209.909 365.224C210.133 365.448 210.245 365.725 210.245 366.056C210.245 366.387 210.133 366.664 209.909 366.888C209.685 367.112 209.413 367.224 209.093 367.224ZM209.989 368.392V377.208H208.165V368.392H209.989ZM215.584 377.352C214.89 377.352 214.266 377.229 213.712 376.984C213.168 376.728 212.736 376.387 212.416 375.96C212.096 375.523 211.925 375.037 211.904 374.504H213.792C213.824 374.877 214 375.192 214.32 375.448C214.65 375.693 215.061 375.816 215.552 375.816C216.064 375.816 216.458 375.72 216.736 375.528C217.024 375.325 217.168 375.069 217.168 374.76C217.168 374.429 217.008 374.184 216.688 374.024C216.378 373.864 215.882 373.688 215.2 373.496C214.538 373.315 214 373.139 213.584 372.968C213.168 372.797 212.805 372.536 212.496 372.184C212.197 371.832 212.048 371.368 212.048 370.792C212.048 370.323 212.186 369.896 212.464 369.512C212.741 369.117 213.136 368.808 213.648 368.584C214.17 368.36 214.768 368.248 215.44 368.248C216.442 368.248 217.248 368.504 217.856 369.016C218.474 369.517 218.805 370.205 218.848 371.08H217.024C216.992 370.685 216.832 370.371 216.544 370.136C216.256 369.901 215.866 369.784 215.376 369.784C214.896 369.784 214.528 369.875 214.272 370.056C214.016 370.237 213.888 370.477 213.888 370.776C213.888 371.011 213.973 371.208 214.144 371.368C214.314 371.528 214.522 371.656 214.768 371.752C215.013 371.837 215.376 371.949 215.856 372.088C216.496 372.259 217.018 372.435 217.424 372.616C217.84 372.787 218.197 373.043 218.496 373.384C218.794 373.725 218.949 374.179 218.96 374.744C218.96 375.245 218.821 375.693 218.544 376.088C218.266 376.483 217.872 376.792 217.36 377.016C216.858 377.24 216.266 377.352 215.584 377.352ZM225.49 368.248C226.162 368.248 226.76 368.392 227.282 368.68C227.816 368.968 228.232 369.395 228.53 369.96C228.84 370.525 228.994 371.208 228.994 372.008V377.208H227.186V372.28C227.186 371.491 226.989 370.888 226.594 370.472C226.2 370.045 225.661 369.832 224.978 369.832C224.296 369.832 223.752 370.045 223.346 370.472C222.952 370.888 222.754 371.491 222.754 372.28V377.208H220.93V365.368H222.754V369.416C223.064 369.043 223.453 368.755 223.922 368.552C224.402 368.349 224.925 368.248 225.49 368.248ZM233.145 365.368V377.208H231.321V365.368H233.145ZM236.468 367.224C236.137 367.224 235.86 367.112 235.636 366.888C235.412 366.664 235.3 366.387 235.3 366.056C235.3 365.725 235.412 365.448 235.636 365.224C235.86 365 236.137 364.888 236.468 364.888C236.788 364.888 237.06 365 237.284 365.224C237.508 365.448 237.62 365.725 237.62 366.056C237.62 366.387 237.508 366.664 237.284 366.888C237.06 367.112 236.788 367.224 236.468 367.224ZM237.364 368.392V377.208H235.54V368.392H237.364ZM242.959 377.352C242.265 377.352 241.641 377.229 241.087 376.984C240.543 376.728 240.111 376.387 239.791 375.96C239.471 375.523 239.3 375.037 239.279 374.504H241.167C241.199 374.877 241.375 375.192 241.695 375.448C242.025 375.693 242.436 375.816 242.927 375.816C243.439 375.816 243.833 375.72 244.111 375.528C244.399 375.325 244.543 375.069 244.543 374.76C244.543 374.429 244.383 374.184 244.063 374.024C243.753 373.864 243.257 373.688 242.575 373.496C241.913 373.315 241.375 373.139 240.959 372.968C240.543 372.797 240.18 372.536 239.871 372.184C239.572 371.832 239.423 371.368 239.423 370.792C239.423 370.323 239.561 369.896 239.839 369.512C240.116 369.117 240.511 368.808 241.023 368.584C241.545 368.36 242.143 368.248 242.815 368.248C243.817 368.248 244.623 368.504 245.231 369.016C245.849 369.517 246.18 370.205 246.223 371.08H244.399C244.367 370.685 244.207 370.371 243.919 370.136C243.631 369.901 243.241 369.784 242.751 369.784C242.271 369.784 241.903 369.875 241.647 370.056C241.391 370.237 241.263 370.477 241.263 370.776C241.263 371.011 241.348 371.208 241.519 371.368C241.689 371.528 241.897 371.656 242.143 371.752C242.388 371.837 242.751 371.949 243.231 372.088C243.871 372.259 244.393 372.435 244.799 372.616C245.215 372.787 245.572 373.043 245.871 373.384C246.169 373.725 246.324 374.179 246.335 374.744C246.335 375.245 246.196 375.693 245.919 376.088C245.641 376.483 245.247 376.792 244.735 377.016C244.233 377.24 243.641 377.352 242.959 377.352ZM250.433 369.88V374.76C250.433 375.091 250.508 375.331 250.657 375.48C250.817 375.619 251.084 375.688 251.457 375.688H252.577V377.208H251.137C250.316 377.208 249.687 377.016 249.249 376.632C248.812 376.248 248.593 375.624 248.593 374.76V369.88H247.553V368.392H248.593V366.2H250.433V368.392H252.577V369.88H250.433ZM262.339 372.584C262.339 372.915 262.317 373.213 262.275 373.48H255.539C255.592 374.184 255.853 374.749 256.323 375.176C256.792 375.603 257.368 375.816 258.051 375.816C259.032 375.816 259.725 375.405 260.131 374.584H262.099C261.832 375.395 261.347 376.061 260.643 376.584C259.949 377.096 259.085 377.352 258.051 377.352C257.208 377.352 256.451 377.165 255.779 376.792C255.117 376.408 254.595 375.875 254.211 375.192C253.837 374.499 253.651 373.699 253.651 372.792C253.651 371.885 253.832 371.091 254.195 370.408C254.568 369.715 255.085 369.181 255.747 368.808C256.419 368.435 257.187 368.248 258.051 368.248C258.883 368.248 259.624 368.429 260.275 368.792C260.925 369.155 261.432 369.667 261.795 370.328C262.157 370.979 262.339 371.731 262.339 372.584ZM260.435 372.008C260.424 371.336 260.184 370.797 259.715 370.392C259.245 369.987 258.664 369.784 257.971 369.784C257.341 369.784 256.803 369.987 256.355 370.392C255.907 370.787 255.64 371.325 255.555 372.008H260.435ZM263.526 372.76C263.526 371.875 263.707 371.091 264.07 370.408C264.443 369.725 264.944 369.197 265.574 368.824C266.214 368.44 266.923 368.248 267.702 368.248C268.278 368.248 268.843 368.376 269.398 368.632C269.963 368.877 270.411 369.208 270.742 369.624V365.368H272.582V377.208H270.742V375.88C270.443 376.307 270.027 376.659 269.494 376.936C268.971 377.213 268.368 377.352 267.686 377.352C266.918 377.352 266.214 377.16 265.574 376.776C264.944 376.381 264.443 375.837 264.07 375.144C263.707 374.44 263.526 373.645 263.526 372.76ZM270.742 372.792C270.742 372.184 270.614 371.656 270.358 371.208C270.112 370.76 269.787 370.419 269.382 370.184C268.976 369.949 268.539 369.832 268.07 369.832C267.6 369.832 267.163 369.949 266.758 370.184C266.352 370.408 266.022 370.744 265.766 371.192C265.52 371.629 265.398 372.152 265.398 372.76C265.398 373.368 265.52 373.901 265.766 374.36C266.022 374.819 266.352 375.171 266.758 375.416C267.174 375.651 267.611 375.768 268.07 375.768C268.539 375.768 268.976 375.651 269.382 375.416C269.787 375.181 270.112 374.84 270.358 374.392C270.614 373.933 270.742 373.4 270.742 372.792Z" fill="#030229"/>
<rect x="165.98" y="365.208" width="15" height="15" rx="5" fill="#FFD66B"/>
<path opacity="0.7" d="M335.956 377.208L333.396 372.76H332.004V377.208H330.18V366.088H334.02C334.874 366.088 335.594 366.237 336.18 366.536C336.778 366.835 337.22 367.235 337.508 367.736C337.807 368.237 337.956 368.797 337.956 369.416C337.956 370.141 337.743 370.803 337.316 371.4C336.9 371.987 336.255 372.387 335.38 372.6L338.132 377.208H335.956ZM332.004 371.304H334.02C334.703 371.304 335.215 371.133 335.556 370.792C335.908 370.451 336.084 369.992 336.084 369.416C336.084 368.84 335.914 368.392 335.572 368.072C335.231 367.741 334.714 367.576 334.02 367.576H332.004V371.304ZM348.37 372.584C348.37 372.915 348.349 373.213 348.306 373.48H341.57C341.623 374.184 341.885 374.749 342.354 375.176C342.823 375.603 343.399 375.816 344.082 375.816C345.063 375.816 345.757 375.405 346.162 374.584H348.13C347.863 375.395 347.378 376.061 346.674 376.584C345.981 377.096 345.117 377.352 344.082 377.352C343.239 377.352 342.482 377.165 341.81 376.792C341.149 376.408 340.626 375.875 340.242 375.192C339.869 374.499 339.682 373.699 339.682 372.792C339.682 371.885 339.863 371.091 340.226 370.408C340.599 369.715 341.117 369.181 341.778 368.808C342.45 368.435 343.218 368.248 344.082 368.248C344.914 368.248 345.655 368.429 346.306 368.792C346.957 369.155 347.463 369.667 347.826 370.328C348.189 370.979 348.37 371.731 348.37 372.584ZM346.466 372.008C346.455 371.336 346.215 370.797 345.746 370.392C345.277 369.987 344.695 369.784 344.002 369.784C343.373 369.784 342.834 369.987 342.386 370.392C341.938 370.787 341.671 371.325 341.586 372.008H346.466ZM352.293 369.88V374.76C352.293 375.091 352.368 375.331 352.517 375.48C352.677 375.619 352.944 375.688 353.317 375.688H354.437V377.208H352.997C352.176 377.208 351.546 377.016 351.109 376.632C350.672 376.248 350.453 375.624 350.453 374.76V369.88H349.413V368.392H350.453V366.2H352.293V368.392H354.437V369.88H352.293ZM364.102 368.392V377.208H362.278V376.168C361.99 376.531 361.611 376.819 361.142 377.032C360.683 377.235 360.193 377.336 359.67 377.336C358.977 377.336 358.353 377.192 357.798 376.904C357.254 376.616 356.822 376.189 356.502 375.624C356.193 375.059 356.038 374.376 356.038 373.576V368.392H357.846V373.304C357.846 374.093 358.043 374.701 358.438 375.128C358.833 375.544 359.371 375.752 360.054 375.752C360.737 375.752 361.275 375.544 361.67 375.128C362.075 374.701 362.278 374.093 362.278 373.304V368.392H364.102ZM368.333 369.672C368.599 369.224 368.951 368.877 369.389 368.632C369.837 368.376 370.365 368.248 370.973 368.248V370.136H370.509C369.794 370.136 369.25 370.317 368.877 370.68C368.514 371.043 368.333 371.672 368.333 372.568V377.208H366.509V368.392H368.333V369.672ZM377.097 368.248C377.791 368.248 378.409 368.392 378.953 368.68C379.508 368.968 379.94 369.395 380.249 369.96C380.559 370.525 380.713 371.208 380.713 372.008V377.208H378.905V372.28C378.905 371.491 378.708 370.888 378.313 370.472C377.919 370.045 377.38 369.832 376.697 369.832C376.015 369.832 375.471 370.045 375.065 370.472C374.671 370.888 374.473 371.491 374.473 372.28V377.208H372.649V368.392H374.473V369.4C374.772 369.037 375.151 368.755 375.609 368.552C376.079 368.349 376.575 368.248 377.097 368.248Z" fill="#030229"/>
<rect x="303.98" y="365.208" width="15" height="15" rx="5" fill="#EF4444"/>
<circle cx="224.98" cy="196.208" r="100.5" stroke="#5B93FF" stroke-opacity="0.05" stroke-width="15"/>
<path d="M180.176 280.962C177.044 286.885 169.656 289.203 164.121 285.427C155.068 279.252 146.987 271.72 140.173 263.078C130.848 251.252 124.1 237.607 120.362 223.018C116.623 208.43 115.977 193.221 118.465 178.368C120.283 167.513 123.745 157.024 128.713 147.256C131.75 141.283 139.342 139.762 144.937 143.449V143.449C150.531 147.137 151.986 154.635 149.145 160.703C145.93 167.571 143.655 174.86 142.396 182.376C140.467 193.892 140.968 205.684 143.866 216.995C146.765 228.306 151.997 238.885 159.227 248.054C163.945 254.038 169.446 259.335 175.568 263.81C180.977 267.764 183.307 275.038 180.176 280.962V280.962Z" fill="#EF4444"/>
<path d="M299.371 253.03C305.687 257.854 306.958 266.968 301.337 272.588C284.937 288.983 263.586 299.761 240.381 303.105C217.176 306.448 193.651 302.135 173.29 291.035C166.312 287.231 164.958 278.129 169.655 271.718V271.718C174.352 265.307 183.322 264.056 190.476 267.517C204.597 274.35 220.537 276.884 236.277 274.617C252.017 272.349 266.593 265.418 278.211 254.877C284.097 249.537 293.055 248.205 299.371 253.03V253.03Z" fill="#FFD66B"/>
<g filter="url(#filter0_d_71_732)">
<path d="M224.98 107.039C224.98 96.6391 233.474 88.0412 243.717 89.8456C259.465 92.6198 274.481 98.8716 287.634 108.239C305.927 121.268 319.704 139.676 327.046 160.901C334.388 182.126 334.931 205.112 328.598 226.66C324.045 242.152 316.102 256.346 305.434 268.259C298.496 276.006 286.505 274.494 280.078 266.317V266.317C273.652 258.14 275.338 246.404 281.524 238.043C286.405 231.446 290.123 224.007 292.464 216.041C296.588 202.007 296.235 187.037 291.453 173.214C286.671 159.39 277.699 147.402 265.785 138.916C259.022 134.099 251.502 130.547 243.588 128.376C233.558 125.625 224.98 117.44 224.98 107.039V107.039Z" fill="#F79320"/>
</g>
<path d="M197.958 188.628C195.958 187.588 194.958 185.978 194.958 183.798C194.958 182.718 195.228 181.738 195.768 180.858C196.328 179.958 197.158 179.248 198.258 178.728C199.378 178.188 200.738 177.918 202.338 177.918C203.938 177.918 205.288 178.188 206.388 178.728C207.508 179.248 208.338 179.958 208.878 180.858C209.438 181.738 209.718 182.718 209.718 183.798C209.718 184.898 209.448 185.868 208.908 186.708C208.368 187.528 207.648 188.168 206.748 188.628C207.848 189.108 208.708 189.808 209.328 190.728C209.948 191.648 210.258 192.738 210.258 193.998C210.258 195.358 209.908 196.548 209.208 197.568C208.528 198.568 207.588 199.338 206.388 199.878C205.188 200.418 203.838 200.688 202.338 200.688C200.838 200.688 199.488 200.418 198.288 199.878C197.108 199.338 196.168 198.568 195.468 197.568C194.788 196.548 194.448 195.358 194.448 193.998C194.448 192.738 194.758 191.648 195.378 190.728C195.998 189.788 196.858 189.088 197.958 188.628ZM205.638 184.398C205.638 183.418 205.338 182.658 204.738 182.118C204.158 181.578 203.358 181.308 202.338 181.308C201.338 181.308 200.538 181.578 199.938 182.118C199.358 182.658 199.068 183.428 199.068 184.428C199.068 185.328 199.368 186.048 199.968 186.588C200.588 187.128 201.378 187.398 202.338 187.398C203.298 187.398 204.088 187.128 204.708 186.588C205.328 186.028 205.638 185.298 205.638 184.398ZM202.338 190.458C201.198 190.458 200.268 190.748 199.548 191.328C198.848 191.908 198.498 192.738 198.498 193.818C198.498 194.818 198.838 195.638 199.518 196.278C200.218 196.898 201.158 197.208 202.338 197.208C203.518 197.208 204.448 196.888 205.128 196.248C205.808 195.608 206.148 194.798 206.148 193.818C206.148 192.758 205.798 191.938 205.098 191.358C204.398 190.758 203.478 190.458 202.338 190.458ZM213.575 188.988C213.575 185.528 214.195 182.818 215.435 180.858C216.695 178.898 218.775 177.918 221.675 177.918C224.575 177.918 226.645 178.898 227.885 180.858C229.145 182.818 229.775 185.528 229.775 188.988C229.775 192.468 229.145 195.198 227.885 197.178C226.645 199.158 224.575 200.148 221.675 200.148C218.775 200.148 216.695 199.158 215.435 197.178C214.195 195.198 213.575 192.468 213.575 188.988ZM225.635 188.988C225.635 187.508 225.535 186.268 225.335 185.268C225.155 184.248 224.775 183.418 224.195 182.778C223.635 182.138 222.795 181.818 221.675 181.818C220.555 181.818 219.705 182.138 219.125 182.778C218.565 183.418 218.185 184.248 217.985 185.268C217.805 186.268 217.715 187.508 217.715 188.988C217.715 190.508 217.805 191.788 217.985 192.828C218.165 193.848 218.545 194.678 219.125 195.318C219.705 195.938 220.555 196.248 221.675 196.248C222.795 196.248 223.645 195.938 224.225 195.318C224.805 194.678 225.185 193.848 225.365 192.828C225.545 191.788 225.635 190.508 225.635 188.988ZM232.49 183.708C232.49 182.188 232.93 180.998 233.81 180.138C234.71 179.278 235.86 178.848 237.26 178.848C238.66 178.848 239.8 179.278 240.68 180.138C241.58 180.998 242.03 182.188 242.03 183.708C242.03 185.248 241.58 186.448 240.68 187.308C239.8 188.168 238.66 188.598 237.26 188.598C235.86 188.598 234.71 188.168 233.81 187.308C232.93 186.448 232.49 185.248 232.49 183.708ZM251.75 179.208L239.96 200.208H235.88L247.64 179.208H251.75ZM237.23 181.368C236.13 181.368 235.58 182.148 235.58 183.708C235.58 185.288 236.13 186.078 237.23 186.078C237.77 186.078 238.19 185.888 238.49 185.508C238.79 185.108 238.94 184.508 238.94 183.708C238.94 182.148 238.37 181.368 237.23 181.368ZM245.66 195.678C245.66 194.138 246.1 192.948 246.98 192.108C247.88 191.248 249.03 190.818 250.43 190.818C251.83 190.818 252.96 191.248 253.82 192.108C254.7 192.948 255.14 194.138 255.14 195.678C255.14 197.218 254.7 198.418 253.82 199.278C252.96 200.138 251.83 200.568 250.43 200.568C249.01 200.568 247.86 200.138 246.98 199.278C246.1 198.418 245.66 197.218 245.66 195.678ZM250.4 193.338C249.26 193.338 248.69 194.118 248.69 195.678C248.69 197.258 249.26 198.048 250.4 198.048C251.52 198.048 252.08 197.258 252.08 195.678C252.08 194.118 251.52 193.338 250.4 193.338Z" fill="#030229"/>
<path opacity="0.7" d="M185.076 209.781V210.965H182.036V220.933H180.58V210.965H177.524V209.781H185.076ZM188.325 213.589C188.581 213.087 188.943 212.698 189.413 212.421C189.893 212.143 190.474 212.005 191.157 212.005V213.509H190.773C189.141 213.509 188.325 214.394 188.325 216.165V220.933H186.869V212.165H188.325V213.589ZM192.293 216.517C192.293 215.621 192.475 214.837 192.837 214.165C193.2 213.482 193.696 212.954 194.325 212.581C194.965 212.207 195.675 212.021 196.453 212.021C197.221 212.021 197.888 212.186 198.453 212.517C199.019 212.847 199.44 213.263 199.717 213.765V212.165H201.189V220.933H199.717V219.301C199.429 219.813 198.997 220.239 198.421 220.581C197.856 220.911 197.195 221.077 196.437 221.077C195.659 221.077 194.955 220.885 194.325 220.501C193.696 220.117 193.2 219.578 192.837 218.885C192.475 218.191 192.293 217.402 192.293 216.517ZM199.717 216.533C199.717 215.871 199.584 215.295 199.317 214.805C199.051 214.314 198.688 213.941 198.229 213.685C197.781 213.418 197.285 213.285 196.741 213.285C196.197 213.285 195.701 213.413 195.253 213.669C194.805 213.925 194.448 214.298 194.181 214.789C193.915 215.279 193.781 215.855 193.781 216.517C193.781 217.189 193.915 217.775 194.181 218.277C194.448 218.767 194.805 219.146 195.253 219.413C195.701 219.669 196.197 219.797 196.741 219.797C197.285 219.797 197.781 219.669 198.229 219.413C198.688 219.146 199.051 218.767 199.317 218.277C199.584 217.775 199.717 217.194 199.717 216.533ZM207.922 212.005C208.989 212.005 209.853 212.33 210.514 212.981C211.175 213.621 211.506 214.549 211.506 215.765V220.933H210.066V215.973C210.066 215.098 209.847 214.431 209.41 213.973C208.973 213.503 208.375 213.269 207.618 213.269C206.85 213.269 206.237 213.509 205.778 213.989C205.33 214.469 205.106 215.167 205.106 216.085V220.933H203.65V212.165H205.106V213.413C205.394 212.965 205.783 212.618 206.274 212.373C206.775 212.127 207.325 212.005 207.922 212.005ZM216.988 221.077C216.316 221.077 215.714 220.965 215.18 220.741C214.647 220.506 214.226 220.186 213.916 219.781C213.607 219.365 213.436 218.89 213.404 218.357H214.908C214.951 218.794 215.154 219.151 215.516 219.429C215.89 219.706 216.375 219.845 216.972 219.845C217.527 219.845 217.964 219.722 218.284 219.477C218.604 219.231 218.764 218.922 218.764 218.549C218.764 218.165 218.594 217.882 218.252 217.701C217.911 217.509 217.383 217.322 216.668 217.141C216.018 216.97 215.484 216.799 215.068 216.629C214.663 216.447 214.311 216.186 214.012 215.845C213.724 215.493 213.58 215.034 213.58 214.469C213.58 214.021 213.714 213.61 213.98 213.237C214.247 212.863 214.626 212.57 215.116 212.357C215.607 212.133 216.167 212.021 216.796 212.021C217.767 212.021 218.551 212.266 219.148 212.757C219.746 213.247 220.066 213.919 220.108 214.773H218.652C218.62 214.314 218.434 213.946 218.092 213.669C217.762 213.391 217.314 213.253 216.748 213.253C216.226 213.253 215.81 213.365 215.5 213.589C215.191 213.813 215.036 214.106 215.036 214.469C215.036 214.757 215.127 214.997 215.308 215.189C215.5 215.37 215.735 215.519 216.012 215.637C216.3 215.743 216.695 215.866 217.196 216.005C217.826 216.175 218.338 216.346 218.732 216.517C219.127 216.677 219.463 216.922 219.74 217.253C220.028 217.583 220.178 218.015 220.188 218.549C220.188 219.029 220.055 219.461 219.788 219.845C219.522 220.229 219.143 220.533 218.652 220.757C218.172 220.97 217.618 221.077 216.988 221.077ZM221.7 216.517C221.7 215.621 221.881 214.837 222.244 214.165C222.606 213.482 223.102 212.954 223.732 212.581C224.372 212.207 225.081 212.021 225.86 212.021C226.628 212.021 227.294 212.186 227.86 212.517C228.425 212.847 228.846 213.263 229.124 213.765V212.165H230.596V220.933H229.124V219.301C228.836 219.813 228.404 220.239 227.828 220.581C227.262 220.911 226.601 221.077 225.844 221.077C225.065 221.077 224.361 220.885 223.732 220.501C223.102 220.117 222.606 219.578 222.244 218.885C221.881 218.191 221.7 217.402 221.7 216.517ZM229.124 216.533C229.124 215.871 228.99 215.295 228.724 214.805C228.457 214.314 228.094 213.941 227.636 213.685C227.188 213.418 226.692 213.285 226.148 213.285C225.604 213.285 225.108 213.413 224.66 213.669C224.212 213.925 223.854 214.298 223.588 214.789C223.321 215.279 223.188 215.855 223.188 216.517C223.188 217.189 223.321 217.775 223.588 218.277C223.854 218.767 224.212 219.146 224.66 219.413C225.108 219.669 225.604 219.797 226.148 219.797C226.692 219.797 227.188 219.669 227.636 219.413C228.094 219.146 228.457 218.767 228.724 218.277C228.99 217.775 229.124 217.194 229.124 216.533ZM232.512 216.533C232.512 215.626 232.694 214.837 233.056 214.165C233.419 213.482 233.92 212.954 234.56 212.581C235.211 212.207 235.952 212.021 236.784 212.021C237.862 212.021 238.747 212.282 239.44 212.805C240.144 213.327 240.608 214.053 240.832 214.981H239.264C239.115 214.447 238.822 214.026 238.384 213.717C237.958 213.407 237.424 213.253 236.784 213.253C235.952 213.253 235.28 213.541 234.768 214.117C234.256 214.682 234 215.487 234 216.533C234 217.589 234.256 218.405 234.768 218.981C235.28 219.557 235.952 219.845 236.784 219.845C237.424 219.845 237.958 219.695 238.384 219.397C238.811 219.098 239.104 218.671 239.264 218.117H240.832C240.598 219.013 240.128 219.733 239.424 220.277C238.72 220.81 237.84 221.077 236.784 221.077C235.952 221.077 235.211 220.89 234.56 220.517C233.92 220.143 233.419 219.615 233.056 218.933C232.694 218.25 232.512 217.45 232.512 216.533ZM244.551 213.365V218.533C244.551 218.959 244.642 219.263 244.823 219.445C245.004 219.615 245.319 219.701 245.767 219.701H246.839V220.933H245.527C244.716 220.933 244.108 220.746 243.703 220.373C243.298 219.999 243.095 219.386 243.095 218.533V213.365H241.959V212.165H243.095V209.957H244.551V212.165H246.839V213.365H244.551ZM249.355 210.741C249.078 210.741 248.843 210.645 248.651 210.453C248.459 210.261 248.363 210.026 248.363 209.749C248.363 209.471 248.459 209.237 248.651 209.045C248.843 208.853 249.078 208.757 249.355 208.757C249.622 208.757 249.846 208.853 250.027 209.045C250.219 209.237 250.315 209.471 250.315 209.749C250.315 210.026 250.219 210.261 250.027 210.453C249.846 210.645 249.622 210.741 249.355 210.741ZM250.059 212.165V220.933H248.603V212.165H250.059ZM256.365 221.077C255.543 221.077 254.797 220.89 254.125 220.517C253.463 220.143 252.941 219.615 252.557 218.933C252.183 218.239 251.997 217.439 251.997 216.533C251.997 215.637 252.189 214.847 252.573 214.165C252.967 213.471 253.501 212.943 254.173 212.581C254.845 212.207 255.597 212.021 256.429 212.021C257.261 212.021 258.013 212.207 258.685 212.581C259.357 212.943 259.885 213.466 260.269 214.149C260.663 214.831 260.861 215.626 260.861 216.533C260.861 217.439 260.658 218.239 260.253 218.933C259.858 219.615 259.319 220.143 258.637 220.517C257.954 220.89 257.197 221.077 256.365 221.077ZM256.365 219.797C256.887 219.797 257.378 219.674 257.837 219.429C258.295 219.183 258.663 218.815 258.941 218.325C259.229 217.834 259.373 217.237 259.373 216.533C259.373 215.829 259.234 215.231 258.957 214.741C258.679 214.25 258.317 213.887 257.869 213.653C257.421 213.407 256.935 213.285 256.413 213.285C255.879 213.285 255.389 213.407 254.941 213.653C254.503 213.887 254.151 214.25 253.885 214.741C253.618 215.231 253.485 215.829 253.485 216.533C253.485 217.247 253.613 217.85 253.869 218.341C254.135 218.831 254.487 219.199 254.925 219.445C255.362 219.679 255.842 219.797 256.365 219.797ZM267.047 212.005C268.114 212.005 268.978 212.33 269.639 212.981C270.3 213.621 270.631 214.549 270.631 215.765V220.933H269.191V215.973C269.191 215.098 268.972 214.431 268.535 213.973C268.098 213.503 267.5 213.269 266.743 213.269C265.975 213.269 265.362 213.509 264.903 213.989C264.455 214.469 264.231 215.167 264.231 216.085V220.933H262.775V212.165H264.231V213.413C264.519 212.965 264.908 212.618 265.399 212.373C265.9 212.127 266.45 212.005 267.047 212.005ZM276.113 221.077C275.441 221.077 274.839 220.965 274.305 220.741C273.772 220.506 273.351 220.186 273.041 219.781C272.732 219.365 272.561 218.89 272.529 218.357H274.033C274.076 218.794 274.279 219.151 274.641 219.429C275.015 219.706 275.5 219.845 276.097 219.845C276.652 219.845 277.089 219.722 277.409 219.477C277.729 219.231 277.889 218.922 277.889 218.549C277.889 218.165 277.719 217.882 277.377 217.701C277.036 217.509 276.508 217.322 275.793 217.141C275.143 216.97 274.609 216.799 274.193 216.629C273.788 216.447 273.436 216.186 273.137 215.845C272.849 215.493 272.705 215.034 272.705 214.469C272.705 214.021 272.839 213.61 273.105 213.237C273.372 212.863 273.751 212.57 274.241 212.357C274.732 212.133 275.292 212.021 275.921 212.021C276.892 212.021 277.676 212.266 278.273 212.757C278.871 213.247 279.191 213.919 279.233 214.773H277.777C277.745 214.314 277.559 213.946 277.217 213.669C276.887 213.391 276.439 213.253 275.873 213.253C275.351 213.253 274.935 213.365 274.625 213.589C274.316 213.813 274.161 214.106 274.161 214.469C274.161 214.757 274.252 214.997 274.433 215.189C274.625 215.37 274.86 215.519 275.137 215.637C275.425 215.743 275.82 215.866 276.321 216.005C276.951 216.175 277.463 216.346 277.857 216.517C278.252 216.677 278.588 216.922 278.865 217.253C279.153 217.583 279.303 218.015 279.313 218.549C279.313 219.029 279.18 219.461 278.913 219.845C278.647 220.229 278.268 220.533 277.777 220.757C277.297 220.97 276.743 221.077 276.113 221.077Z" fill="#030229"/>
<path opacity="0.7" d="M33.8845 40.936H29.2285L28.4285 43.208H26.5245L30.5085 32.072H32.6205L36.6045 43.208H34.6845L33.8845 40.936ZM33.3725 39.448L31.5645 34.28L29.7405 39.448H33.3725ZM42.7847 34.248C43.4781 34.248 44.0967 34.392 44.6407 34.68C45.1954 34.968 45.6274 35.3947 45.9367 35.96C46.2461 36.5253 46.4007 37.208 46.4007 38.008V43.208H44.5927V38.28C44.5927 37.4907 44.3954 36.888 44.0007 36.472C43.6061 36.0453 43.0674 35.832 42.3847 35.832C41.7021 35.832 41.1581 36.0453 40.7527 36.472C40.3581 36.888 40.1607 37.4907 40.1607 38.28V43.208H38.3367V34.392H40.1607V35.4C40.4594 35.0373 40.8381 34.7547 41.2967 34.552C41.7661 34.3493 42.2621 34.248 42.7847 34.248ZM48.1193 38.76C48.1193 37.8747 48.3007 37.0907 48.6633 36.408C49.0367 35.7253 49.538 35.1973 50.1673 34.824C50.8073 34.44 51.5113 34.248 52.2793 34.248C52.9727 34.248 53.5753 34.3867 54.0873 34.664C54.61 34.9307 55.026 35.2667 55.3353 35.672V34.392H57.1753V43.208H55.3353V41.896C55.026 42.312 54.6047 42.6587 54.0713 42.936C53.538 43.2133 52.93 43.352 52.2473 43.352C51.49 43.352 50.7967 43.16 50.1673 42.776C49.538 42.3813 49.0367 41.8373 48.6633 41.144C48.3007 40.44 48.1193 39.6453 48.1193 38.76ZM55.3353 38.792C55.3353 38.184 55.2073 37.656 54.9513 37.208C54.706 36.76 54.3807 36.4187 53.9753 36.184C53.57 35.9493 53.1327 35.832 52.6633 35.832C52.194 35.832 51.7567 35.9493 51.3513 36.184C50.946 36.408 50.6153 36.744 50.3593 37.192C50.114 37.6293 49.9913 38.152 49.9913 38.76C49.9913 39.368 50.114 39.9013 50.3593 40.36C50.6153 40.8187 50.946 41.1707 51.3513 41.416C51.7673 41.6507 52.2047 41.768 52.6633 41.768C53.1327 41.768 53.57 41.6507 53.9753 41.416C54.3807 41.1813 54.706 40.84 54.9513 40.392C55.2073 39.9333 55.3353 39.4 55.3353 38.792ZM61.3951 31.368V43.208H59.5711V31.368H61.3951ZM71.7258 34.392L66.3178 47.352H64.4298L66.2218 43.064L62.7498 34.392H64.7818L67.2618 41.112L69.8378 34.392H71.7258ZM75.2303 35.88V40.76C75.2303 41.0907 75.305 41.3307 75.4543 41.48C75.6143 41.6187 75.881 41.688 76.2543 41.688H77.3743V43.208H75.9343C75.113 43.208 74.4837 43.016 74.0463 42.632C73.609 42.248 73.3903 41.624 73.3903 40.76V35.88H72.3503V34.392H73.3903V32.2H75.2303V34.392H77.3743V35.88H75.2303ZM79.9835 33.224C79.6528 33.224 79.3755 33.112 79.1515 32.888C78.9275 32.664 78.8155 32.3867 78.8155 32.056C78.8155 31.7253 78.9275 31.448 79.1515 31.224C79.3755 31 79.6528 30.888 79.9835 30.888C80.3035 30.888 80.5755 31 80.7995 31.224C81.0235 31.448 81.1355 31.7253 81.1355 32.056C81.1355 32.3867 81.0235 32.664 80.7995 32.888C80.5755 33.112 80.3035 33.224 79.9835 33.224ZM80.8795 34.392V43.208H79.0555V34.392H80.8795ZM82.6662 38.792C82.6662 37.8853 82.8476 37.0907 83.2102 36.408C83.5836 35.7147 84.0956 35.1813 84.7462 34.808C85.3969 34.4347 86.1436 34.248 86.9862 34.248C88.0529 34.248 88.9329 34.504 89.6262 35.016C90.3302 35.5173 90.8049 36.2373 91.0502 37.176H89.0822C88.9222 36.7387 88.6662 36.3973 88.3142 36.152C87.9622 35.9067 87.5196 35.784 86.9862 35.784C86.2396 35.784 85.6422 36.0507 85.1942 36.584C84.7569 37.1067 84.5382 37.8427 84.5382 38.792C84.5382 39.7413 84.7569 40.4827 85.1942 41.016C85.6422 41.5493 86.2396 41.816 86.9862 41.816C88.0422 41.816 88.7409 41.352 89.0822 40.424H91.0502C90.7942 41.32 90.3142 42.0347 89.6102 42.568C88.9062 43.0907 88.0316 43.352 86.9862 43.352C86.1436 43.352 85.3969 43.1653 84.7462 42.792C84.0956 42.408 83.5836 41.8747 83.2102 41.192C82.8476 40.4987 82.6662 39.6987 82.6662 38.792ZM96.068 43.352C95.3746 43.352 94.7506 43.2293 94.196 42.984C93.652 42.728 93.22 42.3867 92.9 41.96C92.58 41.5227 92.4093 41.0373 92.388 40.504H94.276C94.308 40.8773 94.484 41.192 94.804 41.448C95.1346 41.6933 95.5453 41.816 96.036 41.816C96.548 41.816 96.9426 41.72 97.22 41.528C97.508 41.3253 97.652 41.0693 97.652 40.76C97.652 40.4293 97.492 40.184 97.172 40.024C96.8626 39.864 96.3666 39.688 95.684 39.496C95.0226 39.3147 94.484 39.1387 94.068 38.968C93.652 38.7973 93.2893 38.536 92.98 38.184C92.6813 37.832 92.532 37.368 92.532 36.792C92.532 36.3227 92.6706 35.896 92.948 35.512C93.2253 35.1173 93.62 34.808 94.132 34.584C94.6546 34.36 95.252 34.248 95.924 34.248C96.9266 34.248 97.732 34.504 98.34 35.016C98.9586 35.5173 99.2893 36.2053 99.332 37.08H97.508C97.476 36.6853 97.316 36.3707 97.028 36.136C96.74 35.9013 96.3506 35.784 95.86 35.784C95.38 35.784 95.012 35.8747 94.756 36.056C94.5 36.2373 94.372 36.4773 94.372 36.776C94.372 37.0107 94.4573 37.208 94.628 37.368C94.7986 37.528 95.0066 37.656 95.252 37.752C95.4973 37.8373 95.86 37.9493 96.34 38.088C96.98 38.2587 97.5026 38.4347 97.908 38.616C98.324 38.7867 98.6813 39.0427 98.98 39.384C99.2786 39.7253 99.4333 40.1787 99.444 40.744C99.444 41.2453 99.3053 41.6933 99.028 42.088C98.7506 42.4827 98.356 42.792 97.844 43.016C97.3426 43.24 96.7506 43.352 96.068 43.352Z" fill="#030229"/>
<g opacity="0.3">
<path d="M422.468 36.2206C421.784 35.5372 420.676 35.5372 419.993 36.2206C419.31 36.904 419.31 38.012 419.993 38.6954C420.676 39.3789 421.784 39.3789 422.468 38.6954C423.151 38.0121 423.151 36.904 422.468 36.2206Z" fill="#030229"/>
<path d="M417.218 36.2206C416.534 35.5372 415.426 35.5372 414.743 36.2206C414.06 36.904 414.06 38.012 414.743 38.6954C415.426 39.3789 416.534 39.3789 417.218 38.6954C417.901 38.0121 417.901 36.904 417.218 36.2206Z" fill="#030229"/>
<path d="M411.968 36.2206C411.284 35.5372 410.176 35.5372 409.493 36.2206C408.81 36.904 408.81 38.012 409.493 38.6954C410.176 39.3789 411.284 39.3789 411.968 38.6954C412.651 38.0121 412.651 36.904 411.968 36.2206Z" fill="#030229"/>
</g>
<defs>
<filter id="filter0_d_71_732" x="220.98" y="89.605" width="116" height="191.725" filterUnits="userSpaceOnUse" color-interpolation-filters="sRGB">
<feFlood flood-opacity="0" result="BackgroundImageFix"/>
<feColorMatrix in="SourceAlpha" type="matrix" values="0 0 0 0 0 0 0 0 0 0 0 0 0 0 0 0 0 0 127 0" result="hardAlpha"/>
<feOffset dy="4"/>
<feGaussianBlur stdDeviation="2"/>
<feColorMatrix type="matrix" values="0 0 0 0 0.356863 0 0 0 0 0.576471 0 0 0 0 1 0 0 0 0.24 0"/>
<feBlend mode="normal" in2="BackgroundImageFix" result="effect1_dropShadow_71_732"/>
<feBlend mode="normal" in="SourceGraphic" in2="effect1_dropShadow_71_732" result="shape"/>
</filter>
</defs>
</svg>
