<svg width="300" height="300" viewBox="0 0 449 500" fill="none" xmlns="http://www.w3.org/2000/svg">
<path d="M294.185 83.1077C313.781 83.1077 332.911 82.6412 352.507 83.1077C385.168 84.0409 414.562 111.103 418.762 143.297C426.227 198.353 433.226 252.943 440.224 307.999C446.29 355.124 452.355 401.782 458.421 448.906C463.087 487.166 436.025 522.626 397.766 528.691C349.241 536.157 302.117 506.762 287.653 459.637C283.454 445.64 282.987 431.176 283.454 416.246C283.454 412.046 286.72 408.78 289.519 405.981C309.582 383.118 329.645 360.256 349.708 337.394C353.907 332.728 357.64 328.062 360.906 322.93C368.838 311.265 367.438 298.668 357.64 290.736C346.908 281.871 332.444 281.871 322.646 291.669C307.249 307.066 293.252 323.863 278.321 339.727C269.456 349.058 260.125 357.923 248.46 363.989C230.73 373.787 213.933 371.921 199.003 357.923C186.405 346.259 176.14 331.795 164.942 318.73C157.01 309.865 149.545 301 142.08 292.135C134.615 283.737 124.816 281.404 113.619 285.137C101.487 289.336 93.5556 299.134 93.0891 309.865C93.0891 314.998 94.9554 319.197 97.7549 323.396C104.754 334.128 114.552 342.059 122.95 350.924C139.28 367.721 154.678 385.451 168.208 405.048C169.608 407.381 171.474 409.713 171.474 412.513C171.941 432.576 171.474 452.172 163.076 470.835C144.879 511.894 98.688 536.623 57.1624 527.758C21.2358 520.293 -3.95952 485.766 0.70628 448.906C8.63813 385.451 17.0366 321.997 25.435 258.542C30.5674 220.282 35.2332 182.489 40.3656 144.23C45.0313 109.703 74.8925 83.1078 109.886 82.6412C128.083 82.1746 146.279 82.6412 164.009 82.6412C160.743 94.7722 157.944 107.37 156.544 119.968C156.077 121.834 155.144 123.234 153.744 124.167C146.279 129.299 145.346 138.164 150.478 144.696C155.611 150.762 164.476 151.695 170.541 146.096C176.607 140.497 177.073 131.632 170.541 125.566C169.142 124.167 168.208 123.234 168.675 120.901C170.541 107.836 173.341 95.2388 177.54 82.6412C212.067 82.6412 246.594 82.6412 281.121 82.6412C285.786 94.7722 288.586 107.37 290.919 120.434C291.385 122.767 290.452 124.167 289.053 125.566C282.987 132.099 282.987 140.964 289.053 146.096C295.118 151.228 303.516 150.762 308.649 144.696C314.248 138.164 313.315 129.299 306.316 124.167C304.45 122.767 303.05 121.834 303.05 119.501C301.184 107.37 297.451 95.2388 294.185 83.1077ZM268.99 296.335C268.99 278.605 255.459 259.475 230.73 259.475C208.801 259.008 191.537 276.738 191.537 297.734C191.537 318.73 208.801 335.061 230.263 335.061C251.26 335.061 268.99 317.331 268.99 296.335Z" fill="#F5F6F8"/>
<path d="M177.075 82.6411C172.876 95.2388 170.077 107.836 168.21 121.367C167.744 123.7 168.677 124.633 170.077 126.033C176.142 132.099 176.142 141.43 170.077 146.563C164.011 151.695 155.146 151.228 150.014 145.163C144.881 138.631 145.815 129.766 153.28 124.633C155.146 123.234 156.079 122.3 156.079 120.434C157.479 107.836 160.745 95.7054 163.545 83.1077C168.21 69.1103 172.876 55.1129 179.875 41.5821C185.007 31.3174 191.073 21.9858 199.005 13.5873C219.068 -6.94218 240.064 -2.74296 257.327 16.3868C273.657 34.1168 283.456 56.0461 291.388 78.4419C291.854 79.8416 292.787 81.708 293.254 83.1077C296.52 95.2388 300.252 107.37 302.119 119.968C302.585 122.3 303.519 123.234 305.385 124.633C312.384 130.232 313.317 138.631 307.718 145.163C302.585 150.762 294.187 151.695 288.121 146.563C282.056 140.964 281.589 132.099 288.121 126.033C289.521 124.633 290.454 123.234 289.988 120.901C287.655 107.836 284.855 95.2388 280.19 83.1077C273.657 63.0448 264.792 44.3816 251.262 28.0513C233.998 7.05521 218.134 7.05521 201.804 28.9845C190.14 44.8482 182.674 63.5114 177.075 82.6411Z" fill="#F5F6F8"/>
</svg>
