<svg width="18" height="18" viewBox="0 0 18 18" fill="none" xmlns="http://www.w3.org/2000/svg">
<path fill-rule="evenodd" clip-rule="evenodd" d="M7.24767 8.56618C6.88309 8.56618 6.59481 8.84951 6.59481 9.20785C6.59481 9.55785 6.88309 9.84951 7.24767 9.84951H12.3349V13.8328C12.3349 15.8745 10.6476 17.5412 8.56187 17.5412H4.43275C2.35547 17.5412 0.668213 15.8828 0.668213 13.8412V4.58284C0.668213 2.53284 2.36395 0.874512 4.44123 0.874512H8.57882C10.6476 0.874512 12.3349 2.53285 12.3349 4.57451V8.56618H7.24767ZM15.3601 6.32468L17.7934 8.74968C17.9184 8.87468 17.9851 9.03302 17.9851 9.20802C17.9851 9.37468 17.9184 9.54135 17.7934 9.65802L15.3601 12.083C15.2351 12.208 15.0684 12.2747 14.9101 12.2747C14.7434 12.2747 14.5767 12.208 14.4517 12.083C14.2017 11.833 14.2017 11.4247 14.4517 11.1747L15.7851 9.84968H12.3351V8.56635H15.7851L14.4517 7.24135C14.2017 6.99135 14.2017 6.58302 14.4517 6.33302C14.7017 6.07468 15.1101 6.07468 15.3601 6.32468Z" fill="#030229"/>
</svg>
