<svg width="20" height="15" viewBox="0 0 20 15" fill="none" xmlns="http://www.w3.org/2000/svg">
<path d="M18.5435 0.199371H1.16828C0.798636 0.199371 0.5 0.498007 0.5 0.867648V14.2332C0.5 14.6028 0.798636 14.9015 1.16828 14.9015H18.5435C18.9131 14.9015 19.2117 14.6028 19.2117 14.2332V0.867648C19.2117 0.498007 18.9131 0.199371 18.5435 0.199371ZM16.8561 2.4736L10.2673 7.60054C10.1044 7.72793 9.87676 7.72793 9.71387 7.60054L3.12299 2.4736C3.09814 2.45443 3.07992 2.42796 3.07087 2.39791C3.06182 2.36786 3.06241 2.33573 3.07254 2.30602C3.08267 2.27632 3.10184 2.25053 3.12737 2.23227C3.15289 2.21401 3.18349 2.2042 3.21487 2.2042H16.7642C16.7956 2.2042 16.8262 2.21401 16.8517 2.23227C16.8772 2.25053 16.8964 2.27632 16.9065 2.30602C16.9167 2.33573 16.9172 2.36786 16.9082 2.39791C16.8991 2.42796 16.8809 2.45443 16.8561 2.4736Z" fill="white"/>
</svg>
