<svg width="34" height="33" viewBox="0 0 34 33" fill="none" xmlns="http://www.w3.org/2000/svg">
<path d="M16.9632 7.4552C15.8273 7.4552 14.7168 7.79205 13.7723 8.42315C12.8278 9.05425 12.0916 9.95126 11.6569 11.0007C11.2222 12.0502 11.1085 13.2051 11.3301 14.3192C11.5517 15.4333 12.0987 16.4567 12.902 17.2599C13.7052 18.0632 14.7286 18.6102 15.8427 18.8318C16.9568 19.0534 18.1117 18.9397 19.1612 18.505C20.2106 18.0703 21.1076 17.3341 21.7387 16.3896C22.3699 15.4451 22.7067 14.3346 22.7067 13.1987C22.7067 11.6754 22.1016 10.2145 21.0245 9.13743C19.9474 8.06032 18.4865 7.4552 16.9632 7.4552Z" fill="#787878"/>
<path d="M16.9631 0.562988C13.7824 0.562988 10.6732 1.50617 8.02857 3.27325C5.38393 5.04034 3.3227 7.55197 2.10551 10.4905C0.888316 13.4291 0.569843 16.6626 1.19036 19.7821C1.81088 22.9017 3.34252 25.7672 5.59159 28.0163C7.84067 30.2653 10.7062 31.797 13.8257 32.4175C16.9453 33.038 20.1788 32.7195 23.1173 31.5023C26.0559 30.2852 28.5675 28.2239 30.3346 25.5793C32.1017 22.9347 33.0449 19.8254 33.0449 16.6447C33.04 12.3811 31.3441 8.29346 28.3293 5.2786C25.3144 2.26374 21.2268 0.567853 16.9631 0.562988V0.562988ZM26.1435 26.898C26.1206 25.3913 25.5067 23.9539 24.4341 22.8955C23.3615 21.8371 21.9161 21.2424 20.4092 21.2395H13.517C12.0101 21.2424 10.5647 21.8371 9.49209 22.8955C8.41949 23.9539 7.80562 25.3913 7.78273 26.898C5.69964 25.038 4.23064 22.5891 3.57026 19.8756C2.90988 17.1622 3.08926 14.3121 4.08466 11.7029C5.08005 9.09364 6.84449 6.84828 9.14436 5.26411C11.4442 3.67994 14.171 2.83169 16.9637 2.83169C19.7564 2.83169 22.4831 3.67994 24.783 5.26411C27.0829 6.84828 28.8473 9.09364 29.8427 11.7029C30.8381 14.3121 31.0175 17.1622 30.3571 19.8756C29.6967 22.5891 28.2277 25.038 26.1446 26.898H26.1435Z" fill="#787878"/>
</svg>
