<svg width="160" height="85" viewBox="0 0 232 85" fill="none" xmlns="http://www.w3.org/2000/svg">
<path d="M47.4803 13.3169C50.6204 13.3169 53.6857 13.2422 56.8257 13.3169C62.0591 13.4664 66.7692 17.8027 67.4421 22.9614C68.6383 31.7834 69.7597 40.5307 70.8812 49.3527C71.8531 56.9038 72.825 64.3801 73.797 71.9312C74.5446 78.0617 70.2083 83.7437 64.0777 84.7157C56.3024 85.9119 48.7513 81.2018 46.4337 73.6507C45.7608 71.4078 45.686 69.0902 45.7608 66.6978C45.7608 66.0249 46.2841 65.5015 46.7327 65.053C49.9475 61.3896 53.1623 57.7262 56.3772 54.0628C57.05 53.3152 57.6481 52.5675 58.1715 51.7451C59.4424 49.8761 59.2181 47.8575 57.6481 46.5865C55.9286 45.166 53.6109 45.166 52.0409 46.736C49.5737 49.2032 47.3308 51.8947 44.9384 54.4366C43.5179 55.9319 42.0226 57.3524 40.1536 58.3243C37.3126 59.8943 34.6211 59.5953 32.2287 57.3524C30.2101 55.4833 28.5653 53.1656 26.771 51.0723C25.5 49.6518 24.3038 48.2313 23.1076 46.8108C21.9114 45.465 20.3413 45.0912 18.547 45.6893C16.6032 46.3622 15.3322 47.9322 15.2575 49.6518C15.2575 50.4742 15.5565 51.147 16.0051 51.8199C17.1265 53.5395 18.6966 54.8104 20.0423 56.2309C22.659 58.9224 25.1262 61.7634 27.2943 64.9034C27.5186 65.2773 27.8177 65.6511 27.8177 66.0996C27.8924 69.3145 27.8177 72.4545 26.4719 75.445C23.5562 82.0242 16.1546 85.9866 9.5007 84.5661C3.74394 83.3699 -0.293264 77.8374 0.454367 71.9312C1.72534 61.7634 3.07107 51.5956 4.41681 41.4278C5.2392 35.2973 5.98684 29.2414 6.80923 23.1109C7.55686 17.5784 12.3417 13.3169 17.9489 13.2422C20.8647 13.1674 23.7804 13.2422 26.6214 13.2422C26.0981 15.186 25.6495 17.2046 25.4252 19.2232C25.3505 19.5222 25.2009 19.7465 24.9767 19.8961C23.7804 20.7185 23.6309 22.139 24.4533 23.1856C25.2757 24.1576 26.6962 24.3071 27.6681 23.4099C28.64 22.5128 28.7148 21.0923 27.6681 20.1204C27.4438 19.8961 27.2943 19.7465 27.3691 19.3727C27.6681 17.2794 28.1167 15.2608 28.7896 13.2422C34.322 13.2422 39.8545 13.2422 45.387 13.2422C46.1346 15.186 46.5832 17.2046 46.957 19.298C47.0318 19.6718 46.8822 19.8961 46.658 20.1204C45.686 21.167 45.686 22.5875 46.658 23.4099C47.6299 24.2323 48.9756 24.1576 49.798 23.1856C50.6952 22.139 50.5456 20.7185 49.4242 19.8961C49.1251 19.6718 48.9008 19.5222 48.9008 19.1484C48.6018 17.2046 48.0037 15.2608 47.4803 13.3169ZM43.4431 47.4836C43.4431 44.6426 41.275 41.5774 37.3126 41.5774C33.7987 41.5026 31.0325 44.3436 31.0325 47.7079C31.0325 51.0723 33.7987 53.689 37.2378 53.689C40.6021 53.689 43.4431 50.848 43.4431 47.4836Z" fill="#F79320"/>
<path d="M28.7152 13.2421C28.0423 15.2607 27.5937 17.2793 27.2947 19.4475C27.2199 19.8213 27.3695 19.9708 27.5937 20.1951C28.5657 21.167 28.5657 22.6623 27.5937 23.4847C26.6218 24.3071 25.2013 24.2323 24.3789 23.2604C23.5565 22.2137 23.7061 20.7932 24.9023 19.9708C25.2013 19.7465 25.3508 19.597 25.3508 19.2979C25.5751 17.2793 26.0985 15.3355 26.5471 13.3169C27.2947 11.074 28.0423 8.83111 29.1638 6.66298C29.9862 5.01819 30.9581 3.52293 32.229 2.1772C35.4439 -1.11238 38.8082 -0.439511 41.5744 2.62578C44.1911 5.46677 45.7612 8.98064 47.0321 12.5693C47.1069 12.7936 47.2564 13.0926 47.3312 13.3169C47.8545 15.2607 48.4526 17.2046 48.7517 19.2232C48.8265 19.597 48.976 19.7465 49.275 19.9708C50.3965 20.868 50.546 22.2137 49.6488 23.2604C48.8265 24.1575 47.4807 24.3071 46.5088 23.4847C45.5369 22.5875 45.4621 21.167 46.5088 20.1951C46.7331 19.9708 46.8826 19.7465 46.8078 19.3727C46.434 17.2793 45.9855 15.2607 45.2378 13.3169C44.1911 10.1021 42.7706 7.11156 40.6025 4.49485C37.8363 1.13051 35.2943 1.13051 32.6776 4.64438C30.8086 7.18632 29.6123 10.1768 28.7152 13.2421Z" fill="#262223"/>
<path d="M95.922 64.0231C93.1078 64.0231 90.812 63.4183 89.0346 62.2087C87.2819 60.9744 86.4055 59.234 86.4055 56.9876C86.4055 56.7654 86.4302 56.4322 86.4796 55.9878H93.0707C92.9967 56.9259 93.2189 57.6665 93.7373 58.2096C94.2557 58.7527 95.0456 59.0242 96.1071 59.0242C97.0699 59.0242 97.8228 58.8144 98.3659 58.3947C98.9337 57.9751 99.2175 57.3826 99.2175 56.6173C99.2175 55.8274 98.8596 55.1855 98.1437 54.6918C97.4525 54.1981 96.3663 53.6427 94.8852 53.0255C93.4534 52.433 92.2808 51.8776 91.3674 51.3592C90.4787 50.8161 89.7011 50.0879 89.0346 49.1745C88.3681 48.2611 88.0348 47.1132 88.0348 45.7308C88.0101 44.0275 88.4298 42.5463 89.2938 41.2873C90.1578 40.0283 91.3551 39.0656 92.8856 38.3991C94.4161 37.7325 96.1688 37.3993 98.1437 37.3993C99.9211 37.3993 101.501 37.6832 102.883 38.2509C104.266 38.794 105.34 39.5963 106.105 40.6578C106.87 41.6946 107.253 42.9289 107.253 44.3607C107.253 44.731 107.24 45.0026 107.216 45.1754H100.477C100.501 45.0766 100.514 44.9285 100.514 44.731C100.514 44.0398 100.267 43.4844 99.773 43.0647C99.3039 42.6204 98.6498 42.3982 97.8104 42.3982C96.9217 42.3982 96.1935 42.6204 95.6257 43.0647C95.0826 43.4844 94.8111 44.0645 94.8111 44.8051C94.8111 45.5457 95.1567 46.1751 95.8479 46.6936C96.5391 47.1873 97.613 47.7674 99.0694 48.4339C100.526 49.1004 101.711 49.7176 102.624 50.2854C103.562 50.8531 104.365 51.6184 105.031 52.5812C105.698 53.5192 106.031 54.6795 106.031 56.0619C106.031 57.5924 105.624 58.9625 104.809 60.1721C103.994 61.3817 102.822 62.3321 101.291 63.0233C99.7606 63.6899 97.9709 64.0231 95.922 64.0231Z" fill="#262223"/>
<path d="M124.992 42.8796C127.017 42.8796 128.609 43.4597 129.769 44.6199C130.954 45.7802 131.546 47.3971 131.546 49.4707C131.546 50.1619 131.472 50.9025 131.324 51.6925L129.177 63.7639H122.882L124.881 52.5441C124.955 52.1245 124.992 51.7542 124.992 51.4333C124.992 50.3965 124.696 49.5942 124.104 49.0264C123.536 48.4586 122.734 48.1747 121.697 48.1747C120.462 48.1747 119.426 48.5573 118.586 49.3226C117.747 50.0879 117.204 51.1617 116.957 52.5441V52.4701L114.957 63.7639H108.626L113.476 36.3625H119.808L118.142 45.8419C118.957 44.9285 119.956 44.2126 121.141 43.6942C122.326 43.1511 123.61 42.8796 124.992 42.8796Z" fill="#262223"/>
<path d="M143.019 64.0601C141.242 64.0601 139.662 63.7022 138.279 62.9863C136.897 62.2704 135.823 61.2583 135.058 59.9499C134.317 58.6416 133.947 57.1234 133.947 55.3954C133.947 53.0502 134.502 50.9149 135.613 48.9894C136.724 47.0638 138.255 45.558 140.205 44.4718C142.155 43.3609 144.327 42.8055 146.722 42.8055C148.499 42.8055 150.079 43.1758 151.462 43.9164C152.869 44.6323 153.955 45.6444 154.72 46.9528C155.485 48.2611 155.868 49.7793 155.868 51.5073C155.868 53.8772 155.3 56.0249 154.165 57.9504C153.054 59.8512 151.511 61.3447 149.536 62.4309C147.586 63.5171 145.414 64.0601 143.019 64.0601ZM143.908 58.6169C144.945 58.6169 145.87 58.3083 146.685 57.6912C147.524 57.0493 148.166 56.2347 148.61 55.2472C149.079 54.2351 149.314 53.186 149.314 52.0998C149.314 50.8655 148.981 49.9151 148.314 49.2486C147.648 48.582 146.808 48.2488 145.796 48.2488C144.735 48.2488 143.797 48.5697 142.982 49.2115C142.192 49.8287 141.575 50.6433 141.131 51.6554C140.686 52.6676 140.464 53.7291 140.464 54.8399C140.464 56.0495 140.785 56.9876 141.427 57.6541C142.069 58.296 142.896 58.6169 143.908 58.6169Z" fill="#262223"/>
<path d="M166.596 46.027C167.386 45.0643 168.374 44.2867 169.558 43.6942C170.768 43.1017 172.101 42.8055 173.558 42.8055C175.779 42.8055 177.569 43.5337 178.927 44.9902C180.309 46.4467 181 48.4216 181 50.9149C181 51.6801 180.926 52.5071 180.778 53.3958C180.408 55.5188 179.68 57.3949 178.594 59.0242C177.507 60.6288 176.199 61.8754 174.668 62.7641C173.138 63.6281 171.521 64.0601 169.818 64.0601C168.386 64.0601 167.176 63.7639 166.189 63.1714C165.201 62.579 164.473 61.8137 164.004 60.8757L161.745 73.6136H155.413L160.783 43.1017H167.115L166.596 46.027ZM174.372 53.3958C174.446 52.9761 174.483 52.5935 174.483 52.2479C174.483 51.0136 174.125 50.0508 173.409 49.3596C172.718 48.6684 171.83 48.3228 170.743 48.3228C169.484 48.3228 168.336 48.7795 167.3 49.6929C166.263 50.6063 165.596 51.8529 165.3 53.4328C165.226 53.8772 165.189 54.2845 165.189 54.6548C165.189 55.8644 165.535 56.8148 166.226 57.506C166.917 58.1972 167.806 58.5428 168.892 58.5428C170.151 58.5428 171.299 58.0861 172.336 57.1728C173.397 56.2347 174.076 54.9757 174.372 53.3958Z" fill="#262223"/>
<path d="M191.728 46.027C192.518 45.0643 193.505 44.2867 194.69 43.6942C195.9 43.1017 197.233 42.8055 198.69 42.8055C200.911 42.8055 202.701 43.5337 204.059 44.9902C205.441 46.4467 206.132 48.4216 206.132 50.9149C206.132 51.6801 206.058 52.5071 205.91 53.3958C205.54 55.5188 204.812 57.3949 203.725 59.0242C202.639 60.6288 201.331 61.8754 199.8 62.7641C198.27 63.6281 196.653 64.0601 194.95 64.0601C193.518 64.0601 192.308 63.7639 191.321 63.1714C190.333 62.579 189.605 61.8137 189.136 60.8757L186.877 73.6136H180.545L185.915 43.1017H192.246L191.728 46.027ZM199.504 53.3958C199.578 52.9761 199.615 52.5935 199.615 52.2479C199.615 51.0136 199.257 50.0508 198.541 49.3596C197.85 48.6684 196.962 48.3228 195.875 48.3228C194.616 48.3228 193.468 48.7795 192.432 49.6929C191.395 50.6063 190.728 51.8529 190.432 53.4328C190.358 53.8772 190.321 54.2845 190.321 54.6548C190.321 55.8644 190.667 56.8148 191.358 57.506C192.049 58.1972 192.938 58.5428 194.024 58.5428C195.283 58.5428 196.431 58.0861 197.468 57.1728C198.529 56.2347 199.208 54.9757 199.504 53.3958Z" fill="#262223"/>
<path d="M208.01 53.3958C208.38 51.2728 209.109 49.409 210.195 47.8044C211.281 46.1998 212.589 44.9655 214.12 44.1015C215.65 43.2375 217.267 42.8055 218.971 42.8055C220.427 42.8055 221.649 43.1017 222.637 43.6942C223.624 44.2867 224.34 45.0643 224.784 46.027L225.303 43.1017H231.635L227.969 63.7639H221.637L222.192 60.8386C221.402 61.8014 220.402 62.579 219.193 63.1714C217.983 63.7639 216.65 64.0601 215.194 64.0601C213.737 64.0601 212.441 63.7269 211.306 63.0604C210.195 62.3938 209.331 61.4558 208.714 60.2462C208.097 59.0119 207.788 57.5677 207.788 55.9138C207.788 55.1238 207.862 54.2845 208.01 53.3958ZM223.488 53.4328C223.562 52.9885 223.599 52.5812 223.599 52.2109C223.599 51.0013 223.241 50.0508 222.525 49.3596C221.834 48.6684 220.946 48.3228 219.859 48.3228C218.6 48.3228 217.453 48.7795 216.416 49.6929C215.379 50.5816 214.725 51.8159 214.453 53.3958C214.379 53.8401 214.342 54.2475 214.342 54.6178C214.342 55.8274 214.688 56.7901 215.379 57.506C216.095 58.1972 216.983 58.5428 218.045 58.5428C219.304 58.5428 220.452 58.0861 221.489 57.1728C222.525 56.2594 223.192 55.0127 223.488 53.4328Z" fill="#262223"/>
</svg>
