<svg width="996" height="409" viewBox="0 0 996 409" fill="none" xmlns="http://www.w3.org/2000/svg">
<rect x="0.980469" y="0.208008" width="994.557" height="408" rx="1" fill="white"/>
<g opacity="0.3">
<path d="M957.468 36.2206C956.784 35.5372 955.676 35.5372 954.993 36.2206C954.31 36.904 954.31 38.012 954.993 38.6954C955.676 39.3789 956.784 39.3789 957.468 38.6954C958.151 38.0121 958.151 36.904 957.468 36.2206Z" fill="#030229"/>
<path d="M952.218 36.2206C951.534 35.5372 950.426 35.5372 949.743 36.2206C949.06 36.904 949.06 38.012 949.743 38.6954C950.426 39.3789 951.534 39.3789 952.218 38.6954C952.901 38.0121 952.901 36.904 952.218 36.2206Z" fill="#030229"/>
<path d="M946.968 36.2206C946.284 35.5372 945.176 35.5372 944.493 36.2206C943.81 36.904 943.81 38.012 944.493 38.6954C945.176 39.3789 946.284 39.3789 946.968 38.6954C947.651 38.0121 947.651 36.904 946.968 36.2206Z" fill="#030229"/>
</g>
<line opacity="0.05" x1="62.9805" y1="344.708" x2="941" y2="344.708" stroke="#030229"/>
<line opacity="0.05" x1="62.9805" y1="293.708" x2="941" y2="293.708" stroke="#030229"/>
<line opacity="0.05" x1="62.9805" y1="242.708" x2="941" y2="242.708" stroke="#030229"/>
<line opacity="0.05" x1="62.9805" y1="191.708" x2="941" y2="191.708" stroke="#030229"/>
<line opacity="0.05" x1="62.9805" y1="140.708" x2="941" y2="140.708" stroke="#030229"/>
<line opacity="0.05" x1="62.9805" y1="89.708" x2="941" y2="89.708" stroke="#030229"/>
<g opacity="0.7">
<path opacity="0.7" d="M27.9502 87.708V86.46H30.4462V95.208H29.0662V87.708H27.9502ZM32.3255 90.72C32.3255 89.336 32.5575 88.256 33.0215 87.48C33.4935 86.696 34.3015 86.304 35.4455 86.304C36.5895 86.304 37.3935 86.696 37.8575 87.48C38.3295 88.256 38.5655 89.336 38.5655 90.72C38.5655 92.12 38.3295 93.216 37.8575 94.008C37.3935 94.792 36.5895 95.184 35.4455 95.184C34.3015 95.184 33.4935 94.792 33.0215 94.008C32.5575 93.216 32.3255 92.12 32.3255 90.72ZM37.2215 90.72C37.2215 90.072 37.1775 89.524 37.0895 89.076C37.0095 88.628 36.8415 88.264 36.5855 87.984C36.3295 87.696 35.9495 87.552 35.4455 87.552C34.9415 87.552 34.5615 87.696 34.3055 87.984C34.0495 88.264 33.8775 88.628 33.7895 89.076C33.7095 89.524 33.6695 90.072 33.6695 90.72C33.6695 91.392 33.7095 91.956 33.7895 92.412C33.8695 92.868 34.0375 93.236 34.2935 93.516C34.5575 93.796 34.9415 93.936 35.4455 93.936C35.9495 93.936 36.3295 93.796 36.5855 93.516C36.8495 93.236 37.0215 92.868 37.1015 92.412C37.1815 91.956 37.2215 91.392 37.2215 90.72ZM40.013 90.72C40.013 89.336 40.245 88.256 40.709 87.48C41.181 86.696 41.989 86.304 43.133 86.304C44.277 86.304 45.081 86.696 45.545 87.48C46.017 88.256 46.253 89.336 46.253 90.72C46.253 92.12 46.017 93.216 45.545 94.008C45.081 94.792 44.277 95.184 43.133 95.184C41.989 95.184 41.181 94.792 40.709 94.008C40.245 93.216 40.013 92.12 40.013 90.72ZM44.909 90.72C44.909 90.072 44.865 89.524 44.777 89.076C44.697 88.628 44.529 88.264 44.273 87.984C44.017 87.696 43.637 87.552 43.133 87.552C42.629 87.552 42.249 87.696 41.993 87.984C41.737 88.264 41.565 88.628 41.477 89.076C41.397 89.524 41.357 90.072 41.357 90.72C41.357 91.392 41.397 91.956 41.477 92.412C41.557 92.868 41.725 93.236 41.981 93.516C42.245 93.796 42.629 93.936 43.133 93.936C43.637 93.936 44.017 93.796 44.273 93.516C44.537 93.236 44.709 92.868 44.789 92.412C44.869 91.956 44.909 91.392 44.909 90.72Z" fill="#030229"/>
<path opacity="0.7" d="M33.8366 141.636C33.0046 141.22 32.5886 140.564 32.5886 139.668C32.5886 139.236 32.6966 138.84 32.9126 138.48C33.1286 138.12 33.4526 137.836 33.8846 137.628C34.3166 137.412 34.8446 137.304 35.4686 137.304C36.0846 137.304 36.6086 137.412 37.0406 137.628C37.4806 137.836 37.8086 138.12 38.0246 138.48C38.2406 138.84 38.3486 139.236 38.3486 139.668C38.3486 140.116 38.2326 140.512 38.0006 140.856C37.7766 141.192 37.4766 141.452 37.1006 141.636C37.5566 141.804 37.9166 142.08 38.1806 142.464C38.4446 142.84 38.5766 143.284 38.5766 143.796C38.5766 144.316 38.4446 144.776 38.1806 145.176C37.9166 145.576 37.5486 145.884 37.0766 146.1C36.6046 146.316 36.0686 146.424 35.4686 146.424C34.8686 146.424 34.3326 146.316 33.8606 146.1C33.3966 145.884 33.0326 145.576 32.7686 145.176C32.5046 144.776 32.3726 144.316 32.3726 143.796C32.3726 143.276 32.5046 142.828 32.7686 142.452C33.0326 142.076 33.3886 141.804 33.8366 141.636ZM37.0406 139.836C37.0406 139.388 36.9006 139.044 36.6206 138.804C36.3406 138.564 35.9566 138.444 35.4686 138.444C34.9886 138.444 34.6086 138.564 34.3286 138.804C34.0486 139.044 33.9086 139.392 33.9086 139.848C33.9086 140.248 34.0526 140.576 34.3406 140.832C34.6366 141.08 35.0126 141.204 35.4686 141.204C35.9246 141.204 36.3006 141.076 36.5966 140.82C36.8926 140.564 37.0406 140.236 37.0406 139.836ZM35.4686 142.236C34.9406 142.236 34.5086 142.368 34.1726 142.632C33.8446 142.888 33.6806 143.26 33.6806 143.748C33.6806 144.204 33.8406 144.576 34.1606 144.864C34.4806 145.144 34.9166 145.284 35.4686 145.284C36.0126 145.284 36.4406 145.14 36.7526 144.852C37.0726 144.564 37.2326 144.196 37.2326 143.748C37.2326 143.268 37.0686 142.896 36.7406 142.632C36.4206 142.368 35.9966 142.236 35.4686 142.236ZM40.013 141.72C40.013 140.336 40.245 139.256 40.709 138.48C41.181 137.696 41.989 137.304 43.133 137.304C44.277 137.304 45.081 137.696 45.545 138.48C46.017 139.256 46.253 140.336 46.253 141.72C46.253 143.12 46.017 144.216 45.545 145.008C45.081 145.792 44.277 146.184 43.133 146.184C41.989 146.184 41.181 145.792 40.709 145.008C40.245 144.216 40.013 143.12 40.013 141.72ZM44.909 141.72C44.909 141.072 44.865 140.524 44.777 140.076C44.697 139.628 44.529 139.264 44.273 138.984C44.017 138.696 43.637 138.552 43.133 138.552C42.629 138.552 42.249 138.696 41.993 138.984C41.737 139.264 41.565 139.628 41.477 140.076C41.397 140.524 41.357 141.072 41.357 141.72C41.357 142.392 41.397 142.956 41.477 143.412C41.557 143.868 41.725 144.236 41.981 144.516C42.245 144.796 42.629 144.936 43.133 144.936C43.637 144.936 44.017 144.796 44.273 144.516C44.537 144.236 44.709 143.868 44.789 143.412C44.869 142.956 44.909 142.392 44.909 141.72Z" fill="#030229"/>
<path opacity="0.7" d="M37.0178 190.488C36.9298 190.12 36.7698 189.844 36.5378 189.66C36.3058 189.476 35.9818 189.384 35.5658 189.384C34.9338 189.384 34.4618 189.628 34.1498 190.116C33.8378 190.596 33.6738 191.396 33.6578 192.516C33.8658 192.164 34.1698 191.892 34.5698 191.7C34.9698 191.508 35.4018 191.412 35.8658 191.412C36.3938 191.412 36.8578 191.528 37.2578 191.76C37.6658 191.984 37.9818 192.312 38.2057 192.744C38.4378 193.176 38.5538 193.692 38.5538 194.292C38.5538 194.852 38.4418 195.352 38.2178 195.792C38.0018 196.232 37.6778 196.58 37.2458 196.836C36.8138 197.084 36.2938 197.208 35.6858 197.208C34.8618 197.208 34.2138 197.028 33.7418 196.668C33.2778 196.3 32.9498 195.784 32.7578 195.12C32.5738 194.456 32.4818 193.628 32.4818 192.636C32.4818 189.708 33.5138 188.244 35.5778 188.244C36.3778 188.244 37.0058 188.46 37.4618 188.892C37.9258 189.324 38.1978 189.856 38.2778 190.488H37.0178ZM35.5658 192.564C35.0778 192.564 34.6618 192.712 34.3178 193.008C33.9818 193.296 33.8138 193.716 33.8138 194.268C33.8138 194.82 33.9698 195.26 34.2818 195.588C34.6018 195.908 35.0458 196.068 35.6138 196.068C36.1178 196.068 36.5138 195.912 36.8018 195.6C37.0978 195.288 37.2458 194.872 37.2458 194.352C37.2458 193.808 37.1018 193.376 36.8138 193.056C36.5338 192.728 36.1178 192.564 35.5658 192.564ZM40.013 192.72C40.013 191.336 40.245 190.256 40.709 189.48C41.181 188.696 41.989 188.304 43.133 188.304C44.277 188.304 45.081 188.696 45.545 189.48C46.017 190.256 46.253 191.336 46.253 192.72C46.253 194.12 46.017 195.216 45.545 196.008C45.081 196.792 44.277 197.184 43.133 197.184C41.989 197.184 41.181 196.792 40.709 196.008C40.245 195.216 40.013 194.12 40.013 192.72ZM44.909 192.72C44.909 192.072 44.865 191.524 44.777 191.076C44.697 190.628 44.529 190.264 44.273 189.984C44.017 189.696 43.637 189.552 43.133 189.552C42.629 189.552 42.249 189.696 41.993 189.984C41.737 190.264 41.565 190.628 41.477 191.076C41.397 191.524 41.357 192.072 41.357 192.72C41.357 193.392 41.397 193.956 41.477 194.412C41.557 194.868 41.725 195.236 41.981 195.516C42.245 195.796 42.629 195.936 43.133 195.936C43.637 195.936 44.017 195.796 44.273 195.516C44.537 195.236 44.709 194.868 44.789 194.412C44.869 193.956 44.909 193.392 44.909 192.72Z" fill="#030229"/>
<path opacity="0.7" d="M32.0754 246.384V245.352L36.1074 239.568H37.7634V245.196H38.8794V246.384H37.7634V248.208H36.4194V246.384H32.0754ZM36.4794 240.96L33.6474 245.196H36.4794V240.96ZM40.013 243.72C40.013 242.336 40.245 241.256 40.709 240.48C41.181 239.696 41.989 239.304 43.133 239.304C44.277 239.304 45.081 239.696 45.545 240.48C46.017 241.256 46.253 242.336 46.253 243.72C46.253 245.12 46.017 246.216 45.545 247.008C45.081 247.792 44.277 248.184 43.133 248.184C41.989 248.184 41.181 247.792 40.709 247.008C40.245 246.216 40.013 245.12 40.013 243.72ZM44.909 243.72C44.909 243.072 44.865 242.524 44.777 242.076C44.697 241.628 44.529 241.264 44.273 240.984C44.017 240.696 43.637 240.552 43.133 240.552C42.629 240.552 42.249 240.696 41.993 240.984C41.737 241.264 41.565 241.628 41.477 242.076C41.397 242.524 41.357 243.072 41.357 243.72C41.357 244.392 41.397 244.956 41.477 245.412C41.557 245.868 41.725 246.236 41.981 246.516C42.245 246.796 42.629 246.936 43.133 246.936C43.637 246.936 44.017 246.796 44.273 246.516C44.537 246.236 44.709 245.868 44.789 245.412C44.869 244.956 44.909 244.392 44.909 243.72Z" fill="#030229"/>
<path opacity="0.7" d="M33.8432 297.348C34.6112 296.684 35.2152 296.14 35.6552 295.716C36.1032 295.284 36.4752 294.836 36.7712 294.372C37.0672 293.908 37.2152 293.444 37.2152 292.98C37.2152 292.5 37.0992 292.124 36.8672 291.852C36.6432 291.58 36.2872 291.444 35.7992 291.444C35.3272 291.444 34.9592 291.596 34.6952 291.9C34.4392 292.196 34.3032 292.596 34.2872 293.1H32.9672C32.9912 292.188 33.2632 291.492 33.7832 291.012C34.3112 290.524 34.9792 290.28 35.7872 290.28C36.6592 290.28 37.3392 290.52 37.8272 291C38.3232 291.48 38.5712 292.12 38.5712 292.92C38.5712 293.496 38.4232 294.052 38.1272 294.588C37.8392 295.116 37.4912 295.592 37.0832 296.016C36.6832 296.432 36.1712 296.916 35.5472 297.468L35.0072 297.948H38.8112V299.088H32.9792V298.092L33.8432 297.348ZM40.013 294.72C40.013 293.336 40.245 292.256 40.709 291.48C41.181 290.696 41.989 290.304 43.133 290.304C44.277 290.304 45.081 290.696 45.545 291.48C46.017 292.256 46.253 293.336 46.253 294.72C46.253 296.12 46.017 297.216 45.545 298.008C45.081 298.792 44.277 299.184 43.133 299.184C41.989 299.184 41.181 298.792 40.709 298.008C40.245 297.216 40.013 296.12 40.013 294.72ZM44.909 294.72C44.909 294.072 44.865 293.524 44.777 293.076C44.697 292.628 44.529 292.264 44.273 291.984C44.017 291.696 43.637 291.552 43.133 291.552C42.629 291.552 42.249 291.696 41.993 291.984C41.737 292.264 41.565 292.628 41.477 293.076C41.397 293.524 41.357 294.072 41.357 294.72C41.357 295.392 41.397 295.956 41.477 296.412C41.557 296.868 41.725 297.236 41.981 297.516C42.245 297.796 42.629 297.936 43.133 297.936C43.637 297.936 44.017 297.796 44.273 297.516C44.537 297.236 44.709 296.868 44.789 296.412C44.869 295.956 44.909 295.392 44.909 294.72Z" fill="#030229"/>
<path opacity="0.7" d="M40.013 345.72C40.013 344.336 40.245 343.256 40.709 342.48C41.181 341.696 41.989 341.304 43.133 341.304C44.277 341.304 45.081 341.696 45.545 342.48C46.017 343.256 46.253 344.336 46.253 345.72C46.253 347.12 46.017 348.216 45.545 349.008C45.081 349.792 44.277 350.184 43.133 350.184C41.989 350.184 41.181 349.792 40.709 349.008C40.245 348.216 40.013 347.12 40.013 345.72ZM44.909 345.72C44.909 345.072 44.865 344.524 44.777 344.076C44.697 343.628 44.529 343.264 44.273 342.984C44.017 342.696 43.637 342.552 43.133 342.552C42.629 342.552 42.249 342.696 41.993 342.984C41.737 343.264 41.565 343.628 41.477 344.076C41.397 344.524 41.357 345.072 41.357 345.72C41.357 346.392 41.397 346.956 41.477 347.412C41.557 347.868 41.725 348.236 41.981 348.516C42.245 348.796 42.629 348.936 43.133 348.936C43.637 348.936 44.017 348.796 44.273 348.516C44.537 348.236 44.709 347.868 44.789 347.412C44.869 346.956 44.909 346.392 44.909 345.72Z" fill="#030229"/>
</g>
<g opacity="0.7">
<path opacity="0.7" d="M64.5205 365.708V364.46H67.0165V373.208H65.6365V365.708H64.5205ZM68.8958 368.72C68.8958 367.336 69.1278 366.256 69.5918 365.48C70.0638 364.696 70.8718 364.304 72.0158 364.304C73.1598 364.304 73.9638 364.696 74.4278 365.48C74.8998 366.256 75.1358 367.336 75.1358 368.72C75.1358 370.12 74.8998 371.216 74.4278 372.008C73.9638 372.792 73.1598 373.184 72.0158 373.184C70.8718 373.184 70.0638 372.792 69.5918 372.008C69.1278 371.216 68.8958 370.12 68.8958 368.72ZM73.7918 368.72C73.7918 368.072 73.7478 367.524 73.6598 367.076C73.5798 366.628 73.4118 366.264 73.1558 365.984C72.8998 365.696 72.5198 365.552 72.0158 365.552C71.5118 365.552 71.1318 365.696 70.8758 365.984C70.6198 366.264 70.4478 366.628 70.3598 367.076C70.2798 367.524 70.2398 368.072 70.2398 368.72C70.2398 369.392 70.2798 369.956 70.3598 370.412C70.4398 370.868 70.6078 371.236 70.8638 371.516C71.1278 371.796 71.5118 371.936 72.0158 371.936C72.5198 371.936 72.8998 371.796 73.1558 371.516C73.4198 371.236 73.5918 370.868 73.6718 370.412C73.7518 369.956 73.7918 369.392 73.7918 368.72ZM76.3073 369.872C76.3073 369.208 76.4433 368.62 76.7153 368.108C76.9953 367.596 77.3713 367.2 77.8433 366.92C78.3233 366.632 78.8513 366.488 79.4273 366.488C79.9473 366.488 80.3993 366.592 80.7833 366.8C81.1753 367 81.4873 367.252 81.7193 367.556V366.596H83.0993V373.208H81.7193V372.224C81.4873 372.536 81.1713 372.796 80.7713 373.004C80.3713 373.212 79.9153 373.316 79.4033 373.316C78.8353 373.316 78.3153 373.172 77.8433 372.884C77.3713 372.588 76.9953 372.18 76.7153 371.66C76.4433 371.132 76.3073 370.536 76.3073 369.872ZM81.7193 369.896C81.7193 369.44 81.6233 369.044 81.4313 368.708C81.2473 368.372 81.0033 368.116 80.6993 367.94C80.3953 367.764 80.0673 367.676 79.7153 367.676C79.3633 367.676 79.0353 367.764 78.7313 367.94C78.4273 368.108 78.1793 368.36 77.9873 368.696C77.8033 369.024 77.7113 369.416 77.7113 369.872C77.7113 370.328 77.8033 370.728 77.9873 371.072C78.1793 371.416 78.4273 371.68 78.7313 371.864C79.0433 372.04 79.3713 372.128 79.7153 372.128C80.0673 372.128 80.3953 372.04 80.6993 371.864C81.0033 371.688 81.2473 371.432 81.4313 371.096C81.6233 370.752 81.7193 370.352 81.7193 369.896ZM92.9001 366.488C93.4201 366.488 93.8841 366.596 94.2921 366.812C94.7081 367.028 95.0321 367.348 95.2641 367.772C95.5041 368.196 95.6241 368.708 95.6241 369.308V373.208H94.2681V369.512C94.2681 368.92 94.1201 368.468 93.8241 368.156C93.5281 367.836 93.1241 367.676 92.6121 367.676C92.1001 367.676 91.6921 367.836 91.3881 368.156C91.0921 368.468 90.9441 368.92 90.9441 369.512V373.208H89.5881V369.512C89.5881 368.92 89.4401 368.468 89.1441 368.156C88.8481 367.836 88.4441 367.676 87.9321 367.676C87.4201 367.676 87.0121 367.836 86.7081 368.156C86.4121 368.468 86.2641 368.92 86.2641 369.512V373.208H84.8961V366.596H86.2641V367.352C86.4881 367.08 86.7721 366.868 87.1161 366.716C87.4601 366.564 87.8281 366.488 88.2201 366.488C88.7481 366.488 89.2201 366.6 89.6361 366.824C90.0521 367.048 90.3721 367.372 90.5961 367.796C90.7961 367.396 91.1081 367.08 91.5321 366.848C91.9561 366.608 92.4121 366.488 92.9001 366.488Z" fill="#030229"/>
<path opacity="0.7" d="M132.52 365.708V364.46H135.016V373.208H133.636V365.708H132.52ZM136.716 365.708V364.46H139.212V373.208H137.832V365.708H136.716ZM140.815 369.872C140.815 369.208 140.951 368.62 141.223 368.108C141.503 367.596 141.879 367.2 142.351 366.92C142.831 366.632 143.359 366.488 143.935 366.488C144.455 366.488 144.907 366.592 145.291 366.8C145.683 367 145.995 367.252 146.227 367.556V366.596H147.607V373.208H146.227V372.224C145.995 372.536 145.679 372.796 145.279 373.004C144.879 373.212 144.423 373.316 143.911 373.316C143.343 373.316 142.823 373.172 142.351 372.884C141.879 372.588 141.503 372.18 141.223 371.66C140.951 371.132 140.815 370.536 140.815 369.872ZM146.227 369.896C146.227 369.44 146.131 369.044 145.939 368.708C145.755 368.372 145.511 368.116 145.207 367.94C144.903 367.764 144.575 367.676 144.223 367.676C143.871 367.676 143.543 367.764 143.239 367.94C142.935 368.108 142.687 368.36 142.495 368.696C142.311 369.024 142.219 369.416 142.219 369.872C142.219 370.328 142.311 370.728 142.495 371.072C142.687 371.416 142.935 371.68 143.239 371.864C143.551 372.04 143.879 372.128 144.223 372.128C144.575 372.128 144.903 372.04 145.207 371.864C145.511 371.688 145.755 371.432 145.939 371.096C146.131 370.752 146.227 370.352 146.227 369.896ZM157.408 366.488C157.928 366.488 158.392 366.596 158.8 366.812C159.216 367.028 159.54 367.348 159.772 367.772C160.012 368.196 160.132 368.708 160.132 369.308V373.208H158.776V369.512C158.776 368.92 158.628 368.468 158.332 368.156C158.036 367.836 157.632 367.676 157.12 367.676C156.608 367.676 156.2 367.836 155.896 368.156C155.6 368.468 155.452 368.92 155.452 369.512V373.208H154.096V369.512C154.096 368.92 153.948 368.468 153.652 368.156C153.356 367.836 152.952 367.676 152.44 367.676C151.928 367.676 151.52 367.836 151.216 368.156C150.92 368.468 150.772 368.92 150.772 369.512V373.208H149.404V366.596H150.772V367.352C150.996 367.08 151.28 366.868 151.624 366.716C151.968 366.564 152.336 366.488 152.728 366.488C153.256 366.488 153.728 366.6 154.144 366.824C154.56 367.048 154.88 367.372 155.104 367.796C155.304 367.396 155.616 367.08 156.04 366.848C156.464 366.608 156.92 366.488 157.408 366.488Z" fill="#030229"/>
<path opacity="0.7" d="M200.52 365.708V364.46H203.016V373.208H201.636V365.708H200.52ZM205.652 371.348C206.42 370.684 207.024 370.14 207.464 369.716C207.912 369.284 208.284 368.836 208.58 368.372C208.876 367.908 209.024 367.444 209.024 366.98C209.024 366.5 208.908 366.124 208.676 365.852C208.452 365.58 208.096 365.444 207.608 365.444C207.136 365.444 206.768 365.596 206.504 365.9C206.248 366.196 206.112 366.596 206.096 367.1H204.776C204.8 366.188 205.072 365.492 205.592 365.012C206.12 364.524 206.788 364.28 207.596 364.28C208.468 364.28 209.148 364.52 209.636 365C210.132 365.48 210.38 366.12 210.38 366.92C210.38 367.496 210.232 368.052 209.936 368.588C209.648 369.116 209.3 369.592 208.892 370.016C208.492 370.432 207.98 370.916 207.356 371.468L206.816 371.948H210.62V373.088H204.788V372.092L205.652 371.348ZM211.546 369.872C211.546 369.208 211.682 368.62 211.954 368.108C212.234 367.596 212.61 367.2 213.082 366.92C213.562 366.632 214.09 366.488 214.666 366.488C215.186 366.488 215.638 366.592 216.022 366.8C216.414 367 216.726 367.252 216.958 367.556V366.596H218.338V373.208H216.958V372.224C216.726 372.536 216.41 372.796 216.01 373.004C215.61 373.212 215.154 373.316 214.642 373.316C214.074 373.316 213.554 373.172 213.082 372.884C212.61 372.588 212.234 372.18 211.954 371.66C211.682 371.132 211.546 370.536 211.546 369.872ZM216.958 369.896C216.958 369.44 216.862 369.044 216.67 368.708C216.486 368.372 216.242 368.116 215.938 367.94C215.634 367.764 215.306 367.676 214.954 367.676C214.602 367.676 214.274 367.764 213.97 367.94C213.666 368.108 213.418 368.36 213.226 368.696C213.042 369.024 212.95 369.416 212.95 369.872C212.95 370.328 213.042 370.728 213.226 371.072C213.418 371.416 213.666 371.68 213.97 371.864C214.282 372.04 214.61 372.128 214.954 372.128C215.306 372.128 215.634 372.04 215.938 371.864C216.242 371.688 216.486 371.432 216.67 371.096C216.862 370.752 216.958 370.352 216.958 369.896ZM228.138 366.488C228.658 366.488 229.122 366.596 229.53 366.812C229.946 367.028 230.27 367.348 230.502 367.772C230.742 368.196 230.862 368.708 230.862 369.308V373.208H229.506V369.512C229.506 368.92 229.358 368.468 229.062 368.156C228.766 367.836 228.362 367.676 227.85 367.676C227.338 367.676 226.93 367.836 226.626 368.156C226.33 368.468 226.182 368.92 226.182 369.512V373.208H224.826V369.512C224.826 368.92 224.678 368.468 224.382 368.156C224.086 367.836 223.682 367.676 223.17 367.676C222.658 367.676 222.25 367.836 221.946 368.156C221.65 368.468 221.502 368.92 221.502 369.512V373.208H220.134V366.596H221.502V367.352C221.726 367.08 222.01 366.868 222.354 366.716C222.698 366.564 223.066 366.488 223.458 366.488C223.986 366.488 224.458 366.6 224.874 366.824C225.29 367.048 225.61 367.372 225.834 367.796C226.034 367.396 226.346 367.08 226.77 366.848C227.194 366.608 227.65 366.488 228.138 366.488Z" fill="#030229"/>
<path opacity="0.7" d="M268.7 368.72C268.7 367.336 268.932 366.256 269.396 365.48C269.868 364.696 270.676 364.304 271.82 364.304C272.964 364.304 273.768 364.696 274.232 365.48C274.704 366.256 274.94 367.336 274.94 368.72C274.94 370.12 274.704 371.216 274.232 372.008C273.768 372.792 272.964 373.184 271.82 373.184C270.676 373.184 269.868 372.792 269.396 372.008C268.932 371.216 268.7 370.12 268.7 368.72ZM273.596 368.72C273.596 368.072 273.552 367.524 273.464 367.076C273.384 366.628 273.216 366.264 272.96 365.984C272.704 365.696 272.324 365.552 271.82 365.552C271.316 365.552 270.936 365.696 270.68 365.984C270.424 366.264 270.252 366.628 270.164 367.076C270.084 367.524 270.044 368.072 270.044 368.72C270.044 369.392 270.084 369.956 270.164 370.412C270.244 370.868 270.412 371.236 270.668 371.516C270.932 371.796 271.316 371.936 271.82 371.936C272.324 371.936 272.704 371.796 272.96 371.516C273.224 371.236 273.396 370.868 273.476 370.412C273.556 369.956 273.596 369.392 273.596 368.72ZM276.208 365.708V364.46H278.704V373.208H277.324V365.708H276.208ZM280.307 369.872C280.307 369.208 280.443 368.62 280.715 368.108C280.995 367.596 281.371 367.2 281.843 366.92C282.323 366.632 282.851 366.488 283.427 366.488C283.947 366.488 284.399 366.592 284.783 366.8C285.175 367 285.487 367.252 285.719 367.556V366.596H287.099V373.208H285.719V372.224C285.487 372.536 285.171 372.796 284.771 373.004C284.371 373.212 283.915 373.316 283.403 373.316C282.835 373.316 282.315 373.172 281.843 372.884C281.371 372.588 280.995 372.18 280.715 371.66C280.443 371.132 280.307 370.536 280.307 369.872ZM285.719 369.896C285.719 369.44 285.623 369.044 285.431 368.708C285.247 368.372 285.003 368.116 284.699 367.94C284.395 367.764 284.067 367.676 283.715 367.676C283.363 367.676 283.035 367.764 282.731 367.94C282.427 368.108 282.179 368.36 281.987 368.696C281.803 369.024 281.711 369.416 281.711 369.872C281.711 370.328 281.803 370.728 281.987 371.072C282.179 371.416 282.427 371.68 282.731 371.864C283.043 372.04 283.371 372.128 283.715 372.128C284.067 372.128 284.395 372.04 284.699 371.864C285.003 371.688 285.247 371.432 285.431 371.096C285.623 370.752 285.719 370.352 285.719 369.896ZM296.9 366.488C297.42 366.488 297.884 366.596 298.292 366.812C298.708 367.028 299.032 367.348 299.264 367.772C299.504 368.196 299.624 368.708 299.624 369.308V373.208H298.268V369.512C298.268 368.92 298.12 368.468 297.824 368.156C297.528 367.836 297.124 367.676 296.612 367.676C296.1 367.676 295.692 367.836 295.388 368.156C295.092 368.468 294.944 368.92 294.944 369.512V373.208H293.588V369.512C293.588 368.92 293.44 368.468 293.144 368.156C292.848 367.836 292.444 367.676 291.932 367.676C291.42 367.676 291.012 367.836 290.708 368.156C290.412 368.468 290.264 368.92 290.264 369.512V373.208H288.896V366.596H290.264V367.352C290.488 367.08 290.772 366.868 291.116 366.716C291.46 366.564 291.828 366.488 292.22 366.488C292.748 366.488 293.22 366.6 293.636 366.824C294.052 367.048 294.372 367.372 294.596 367.796C294.796 367.396 295.108 367.08 295.532 366.848C295.956 366.608 296.412 366.488 296.9 366.488Z" fill="#030229"/>
<path opacity="0.7" d="M336.7 368.72C336.7 367.336 336.932 366.256 337.396 365.48C337.868 364.696 338.676 364.304 339.82 364.304C340.964 364.304 341.768 364.696 342.232 365.48C342.704 366.256 342.94 367.336 342.94 368.72C342.94 370.12 342.704 371.216 342.232 372.008C341.768 372.792 340.964 373.184 339.82 373.184C338.676 373.184 337.868 372.792 337.396 372.008C336.932 371.216 336.7 370.12 336.7 368.72ZM341.596 368.72C341.596 368.072 341.552 367.524 341.464 367.076C341.384 366.628 341.216 366.264 340.96 365.984C340.704 365.696 340.324 365.552 339.82 365.552C339.316 365.552 338.936 365.696 338.68 365.984C338.424 366.264 338.252 366.628 338.164 367.076C338.084 367.524 338.044 368.072 338.044 368.72C338.044 369.392 338.084 369.956 338.164 370.412C338.244 370.868 338.412 371.236 338.668 371.516C338.932 371.796 339.316 371.936 339.82 371.936C340.324 371.936 340.704 371.796 340.96 371.516C341.224 371.236 341.396 370.868 341.476 370.412C341.556 369.956 341.596 369.392 341.596 368.72ZM345.144 371.348C345.912 370.684 346.516 370.14 346.956 369.716C347.404 369.284 347.776 368.836 348.072 368.372C348.368 367.908 348.516 367.444 348.516 366.98C348.516 366.5 348.4 366.124 348.168 365.852C347.944 365.58 347.588 365.444 347.1 365.444C346.628 365.444 346.26 365.596 345.996 365.9C345.74 366.196 345.604 366.596 345.588 367.1H344.268C344.292 366.188 344.564 365.492 345.084 365.012C345.612 364.524 346.28 364.28 347.088 364.28C347.96 364.28 348.64 364.52 349.128 365C349.624 365.48 349.872 366.12 349.872 366.92C349.872 367.496 349.724 368.052 349.428 368.588C349.14 369.116 348.792 369.592 348.384 370.016C347.984 370.432 347.472 370.916 346.848 371.468L346.308 371.948H350.112V373.088H344.28V372.092L345.144 371.348ZM351.038 369.872C351.038 369.208 351.174 368.62 351.446 368.108C351.726 367.596 352.102 367.2 352.574 366.92C353.054 366.632 353.582 366.488 354.158 366.488C354.678 366.488 355.13 366.592 355.514 366.8C355.906 367 356.218 367.252 356.45 367.556V366.596H357.83V373.208H356.45V372.224C356.218 372.536 355.902 372.796 355.502 373.004C355.102 373.212 354.646 373.316 354.134 373.316C353.566 373.316 353.046 373.172 352.574 372.884C352.102 372.588 351.726 372.18 351.446 371.66C351.174 371.132 351.038 370.536 351.038 369.872ZM356.45 369.896C356.45 369.44 356.354 369.044 356.162 368.708C355.978 368.372 355.734 368.116 355.43 367.94C355.126 367.764 354.798 367.676 354.446 367.676C354.094 367.676 353.766 367.764 353.462 367.94C353.158 368.108 352.91 368.36 352.718 368.696C352.534 369.024 352.442 369.416 352.442 369.872C352.442 370.328 352.534 370.728 352.718 371.072C352.91 371.416 353.158 371.68 353.462 371.864C353.774 372.04 354.102 372.128 354.446 372.128C354.798 372.128 355.126 372.04 355.43 371.864C355.734 371.688 355.978 371.432 356.162 371.096C356.354 370.752 356.45 370.352 356.45 369.896ZM367.631 366.488C368.151 366.488 368.615 366.596 369.023 366.812C369.439 367.028 369.763 367.348 369.995 367.772C370.235 368.196 370.355 368.708 370.355 369.308V373.208H368.999V369.512C368.999 368.92 368.851 368.468 368.555 368.156C368.259 367.836 367.855 367.676 367.343 367.676C366.831 367.676 366.423 367.836 366.119 368.156C365.823 368.468 365.675 368.92 365.675 369.512V373.208H364.319V369.512C364.319 368.92 364.171 368.468 363.875 368.156C363.579 367.836 363.175 367.676 362.663 367.676C362.151 367.676 361.743 367.836 361.439 368.156C361.143 368.468 360.995 368.92 360.995 369.512V373.208H359.627V366.596H360.995V367.352C361.219 367.08 361.503 366.868 361.847 366.716C362.191 366.564 362.559 366.488 362.951 366.488C363.479 366.488 363.951 366.6 364.367 366.824C364.783 367.048 365.103 367.372 365.327 367.796C365.527 367.396 365.839 367.08 366.263 366.848C366.687 366.608 367.143 366.488 367.631 366.488Z" fill="#030229"/>
<path opacity="0.7" d="M404.7 368.72C404.7 367.336 404.932 366.256 405.396 365.48C405.868 364.696 406.676 364.304 407.82 364.304C408.964 364.304 409.768 364.696 410.232 365.48C410.704 366.256 410.94 367.336 410.94 368.72C410.94 370.12 410.704 371.216 410.232 372.008C409.768 372.792 408.964 373.184 407.82 373.184C406.676 373.184 405.868 372.792 405.396 372.008C404.932 371.216 404.7 370.12 404.7 368.72ZM409.596 368.72C409.596 368.072 409.552 367.524 409.464 367.076C409.384 366.628 409.216 366.264 408.96 365.984C408.704 365.696 408.324 365.552 407.82 365.552C407.316 365.552 406.936 365.696 406.68 365.984C406.424 366.264 406.252 366.628 406.164 367.076C406.084 367.524 406.044 368.072 406.044 368.72C406.044 369.392 406.084 369.956 406.164 370.412C406.244 370.868 406.412 371.236 406.668 371.516C406.932 371.796 407.316 371.936 407.82 371.936C408.324 371.936 408.704 371.796 408.96 371.516C409.224 371.236 409.396 370.868 409.476 370.412C409.556 369.956 409.596 369.392 409.596 368.72ZM412.364 366.62C412.412 365.876 412.696 365.296 413.216 364.88C413.744 364.464 414.416 364.256 415.232 364.256C415.792 364.256 416.276 364.356 416.684 364.556C417.092 364.756 417.4 365.028 417.608 365.372C417.816 365.716 417.92 366.104 417.92 366.536C417.92 367.032 417.788 367.456 417.524 367.808C417.26 368.16 416.944 368.396 416.576 368.516V368.564C417.048 368.708 417.416 368.972 417.68 369.356C417.944 369.732 418.076 370.216 418.076 370.808C418.076 371.28 417.968 371.7 417.752 372.068C417.536 372.436 417.216 372.728 416.792 372.944C416.368 373.152 415.86 373.256 415.268 373.256C414.404 373.256 413.692 373.036 413.132 372.596C412.58 372.148 412.284 371.508 412.244 370.676H413.564C413.596 371.1 413.76 371.448 414.056 371.72C414.352 371.984 414.752 372.116 415.256 372.116C415.744 372.116 416.12 371.984 416.384 371.72C416.648 371.448 416.78 371.1 416.78 370.676C416.78 370.116 416.6 369.72 416.24 369.488C415.888 369.248 415.344 369.128 414.608 369.128H414.296V368H414.62C415.268 367.992 415.76 367.884 416.096 367.676C416.44 367.468 416.612 367.14 416.612 366.692C416.612 366.308 416.488 366.004 416.24 365.78C415.992 365.548 415.64 365.432 415.184 365.432C414.736 365.432 414.388 365.548 414.14 365.78C413.892 366.004 413.744 366.284 413.696 366.62H412.364ZM419.237 369.872C419.237 369.208 419.373 368.62 419.645 368.108C419.925 367.596 420.301 367.2 420.773 366.92C421.253 366.632 421.781 366.488 422.357 366.488C422.877 366.488 423.329 366.592 423.713 366.8C424.105 367 424.417 367.252 424.649 367.556V366.596H426.029V373.208H424.649V372.224C424.417 372.536 424.101 372.796 423.701 373.004C423.301 373.212 422.845 373.316 422.333 373.316C421.765 373.316 421.245 373.172 420.773 372.884C420.301 372.588 419.925 372.18 419.645 371.66C419.373 371.132 419.237 370.536 419.237 369.872ZM424.649 369.896C424.649 369.44 424.553 369.044 424.361 368.708C424.177 368.372 423.933 368.116 423.629 367.94C423.325 367.764 422.997 367.676 422.645 367.676C422.293 367.676 421.965 367.764 421.661 367.94C421.357 368.108 421.109 368.36 420.917 368.696C420.733 369.024 420.641 369.416 420.641 369.872C420.641 370.328 420.733 370.728 420.917 371.072C421.109 371.416 421.357 371.68 421.661 371.864C421.973 372.04 422.301 372.128 422.645 372.128C422.997 372.128 423.325 372.04 423.629 371.864C423.933 371.688 424.177 371.432 424.361 371.096C424.553 370.752 424.649 370.352 424.649 369.896ZM435.83 366.488C436.35 366.488 436.814 366.596 437.222 366.812C437.638 367.028 437.962 367.348 438.194 367.772C438.434 368.196 438.554 368.708 438.554 369.308V373.208H437.198V369.512C437.198 368.92 437.05 368.468 436.754 368.156C436.458 367.836 436.054 367.676 435.542 367.676C435.03 367.676 434.622 367.836 434.318 368.156C434.022 368.468 433.874 368.92 433.874 369.512V373.208H432.518V369.512C432.518 368.92 432.37 368.468 432.074 368.156C431.778 367.836 431.374 367.676 430.862 367.676C430.35 367.676 429.942 367.836 429.638 368.156C429.342 368.468 429.194 368.92 429.194 369.512V373.208H427.826V366.596H429.194V367.352C429.418 367.08 429.702 366.868 430.046 366.716C430.39 366.564 430.758 366.488 431.15 366.488C431.678 366.488 432.15 366.6 432.566 366.824C432.982 367.048 433.302 367.372 433.526 367.796C433.726 367.396 434.038 367.08 434.462 366.848C434.886 366.608 435.342 366.488 435.83 366.488Z" fill="#030229"/>
<path opacity="0.7" d="M472.7 368.72C472.7 367.336 472.932 366.256 473.396 365.48C473.868 364.696 474.676 364.304 475.82 364.304C476.964 364.304 477.768 364.696 478.232 365.48C478.704 366.256 478.94 367.336 478.94 368.72C478.94 370.12 478.704 371.216 478.232 372.008C477.768 372.792 476.964 373.184 475.82 373.184C474.676 373.184 473.868 372.792 473.396 372.008C472.932 371.216 472.7 370.12 472.7 368.72ZM477.596 368.72C477.596 368.072 477.552 367.524 477.464 367.076C477.384 366.628 477.216 366.264 476.96 365.984C476.704 365.696 476.324 365.552 475.82 365.552C475.316 365.552 474.936 365.696 474.68 365.984C474.424 366.264 474.252 366.628 474.164 367.076C474.084 367.524 474.044 368.072 474.044 368.72C474.044 369.392 474.084 369.956 474.164 370.412C474.244 370.868 474.412 371.236 474.668 371.516C474.932 371.796 475.316 371.936 475.82 371.936C476.324 371.936 476.704 371.796 476.96 371.516C477.224 371.236 477.396 370.868 477.476 370.412C477.556 369.956 477.596 369.392 477.596 368.72ZM480.22 371.384V370.352L484.252 364.568H485.908V370.196H487.024V371.384H485.908V373.208H484.564V371.384H480.22ZM484.624 365.96L481.792 370.196H484.624V365.96ZM487.882 369.872C487.882 369.208 488.018 368.62 488.29 368.108C488.57 367.596 488.946 367.2 489.418 366.92C489.898 366.632 490.426 366.488 491.002 366.488C491.522 366.488 491.974 366.592 492.358 366.8C492.75 367 493.062 367.252 493.294 367.556V366.596H494.674V373.208H493.294V372.224C493.062 372.536 492.746 372.796 492.346 373.004C491.946 373.212 491.49 373.316 490.978 373.316C490.41 373.316 489.89 373.172 489.418 372.884C488.946 372.588 488.57 372.18 488.29 371.66C488.018 371.132 487.882 370.536 487.882 369.872ZM493.294 369.896C493.294 369.44 493.198 369.044 493.006 368.708C492.822 368.372 492.578 368.116 492.274 367.94C491.97 367.764 491.642 367.676 491.29 367.676C490.938 367.676 490.61 367.764 490.306 367.94C490.002 368.108 489.754 368.36 489.562 368.696C489.378 369.024 489.286 369.416 489.286 369.872C489.286 370.328 489.378 370.728 489.562 371.072C489.754 371.416 490.002 371.68 490.306 371.864C490.618 372.04 490.946 372.128 491.29 372.128C491.642 372.128 491.97 372.04 492.274 371.864C492.578 371.688 492.822 371.432 493.006 371.096C493.198 370.752 493.294 370.352 493.294 369.896ZM504.474 366.488C504.994 366.488 505.458 366.596 505.866 366.812C506.282 367.028 506.606 367.348 506.838 367.772C507.078 368.196 507.198 368.708 507.198 369.308V373.208H505.842V369.512C505.842 368.92 505.694 368.468 505.398 368.156C505.102 367.836 504.698 367.676 504.186 367.676C503.674 367.676 503.266 367.836 502.962 368.156C502.666 368.468 502.518 368.92 502.518 369.512V373.208H501.162V369.512C501.162 368.92 501.014 368.468 500.718 368.156C500.422 367.836 500.018 367.676 499.506 367.676C498.994 367.676 498.586 367.836 498.282 368.156C497.986 368.468 497.838 368.92 497.838 369.512V373.208H496.47V366.596H497.838V367.352C498.062 367.08 498.346 366.868 498.69 366.716C499.034 366.564 499.402 366.488 499.794 366.488C500.322 366.488 500.794 366.6 501.21 366.824C501.626 367.048 501.946 367.372 502.17 367.796C502.37 367.396 502.682 367.08 503.106 366.848C503.53 366.608 503.986 366.488 504.474 366.488Z" fill="#030229"/>
<path opacity="0.7" d="M540.7 368.72C540.7 367.336 540.932 366.256 541.396 365.48C541.868 364.696 542.676 364.304 543.82 364.304C544.964 364.304 545.768 364.696 546.232 365.48C546.704 366.256 546.94 367.336 546.94 368.72C546.94 370.12 546.704 371.216 546.232 372.008C545.768 372.792 544.964 373.184 543.82 373.184C542.676 373.184 541.868 372.792 541.396 372.008C540.932 371.216 540.7 370.12 540.7 368.72ZM545.596 368.72C545.596 368.072 545.552 367.524 545.464 367.076C545.384 366.628 545.216 366.264 544.96 365.984C544.704 365.696 544.324 365.552 543.82 365.552C543.316 365.552 542.936 365.696 542.68 365.984C542.424 366.264 542.252 366.628 542.164 367.076C542.084 367.524 542.044 368.072 542.044 368.72C542.044 369.392 542.084 369.956 542.164 370.412C542.244 370.868 542.412 371.236 542.668 371.516C542.932 371.796 543.316 371.936 543.82 371.936C544.324 371.936 544.704 371.796 544.96 371.516C545.224 371.236 545.396 370.868 545.476 370.412C545.556 369.956 545.596 369.392 545.596 368.72ZM554.028 365.636H550.008V368.024C550.176 367.8 550.424 367.612 550.752 367.46C551.088 367.308 551.444 367.232 551.82 367.232C552.492 367.232 553.036 367.376 553.452 367.664C553.876 367.952 554.176 368.316 554.352 368.756C554.536 369.196 554.628 369.66 554.628 370.148C554.628 370.74 554.512 371.268 554.28 371.732C554.056 372.188 553.716 372.548 553.26 372.812C552.812 373.076 552.26 373.208 551.604 373.208C550.732 373.208 550.032 372.992 549.504 372.56C548.976 372.128 548.66 371.556 548.556 370.844H549.888C549.976 371.22 550.172 371.52 550.476 371.744C550.78 371.96 551.16 372.068 551.616 372.068C552.184 372.068 552.608 371.896 552.888 371.552C553.176 371.208 553.32 370.752 553.32 370.184C553.32 369.608 553.176 369.168 552.888 368.864C552.6 368.552 552.176 368.396 551.616 368.396C551.224 368.396 550.892 368.496 550.62 368.696C550.356 368.888 550.164 369.152 550.044 369.488H548.748V364.436H554.028V365.636ZM555.776 369.872C555.776 369.208 555.912 368.62 556.184 368.108C556.464 367.596 556.84 367.2 557.312 366.92C557.792 366.632 558.32 366.488 558.896 366.488C559.416 366.488 559.868 366.592 560.252 366.8C560.644 367 560.956 367.252 561.188 367.556V366.596H562.568V373.208H561.188V372.224C560.956 372.536 560.64 372.796 560.24 373.004C559.84 373.212 559.384 373.316 558.872 373.316C558.304 373.316 557.784 373.172 557.312 372.884C556.84 372.588 556.464 372.18 556.184 371.66C555.912 371.132 555.776 370.536 555.776 369.872ZM561.188 369.896C561.188 369.44 561.092 369.044 560.9 368.708C560.716 368.372 560.472 368.116 560.168 367.94C559.864 367.764 559.536 367.676 559.184 367.676C558.832 367.676 558.504 367.764 558.2 367.94C557.896 368.108 557.648 368.36 557.456 368.696C557.272 369.024 557.18 369.416 557.18 369.872C557.18 370.328 557.272 370.728 557.456 371.072C557.648 371.416 557.896 371.68 558.2 371.864C558.512 372.04 558.84 372.128 559.184 372.128C559.536 372.128 559.864 372.04 560.168 371.864C560.472 371.688 560.716 371.432 560.9 371.096C561.092 370.752 561.188 370.352 561.188 369.896ZM572.369 366.488C572.889 366.488 573.353 366.596 573.761 366.812C574.177 367.028 574.501 367.348 574.733 367.772C574.973 368.196 575.093 368.708 575.093 369.308V373.208H573.737V369.512C573.737 368.92 573.589 368.468 573.293 368.156C572.997 367.836 572.593 367.676 572.081 367.676C571.569 367.676 571.161 367.836 570.857 368.156C570.561 368.468 570.413 368.92 570.413 369.512V373.208H569.057V369.512C569.057 368.92 568.909 368.468 568.613 368.156C568.317 367.836 567.913 367.676 567.401 367.676C566.889 367.676 566.481 367.836 566.177 368.156C565.881 368.468 565.733 368.92 565.733 369.512V373.208H564.365V366.596H565.733V367.352C565.957 367.08 566.241 366.868 566.585 366.716C566.929 366.564 567.297 366.488 567.689 366.488C568.217 366.488 568.689 366.6 569.105 366.824C569.521 367.048 569.841 367.372 570.065 367.796C570.265 367.396 570.577 367.08 571.001 366.848C571.425 366.608 571.881 366.488 572.369 366.488Z" fill="#030229"/>
<path opacity="0.7" d="M608.7 368.72C608.7 367.336 608.932 366.256 609.396 365.48C609.868 364.696 610.676 364.304 611.82 364.304C612.964 364.304 613.768 364.696 614.232 365.48C614.704 366.256 614.94 367.336 614.94 368.72C614.94 370.12 614.704 371.216 614.232 372.008C613.768 372.792 612.964 373.184 611.82 373.184C610.676 373.184 609.868 372.792 609.396 372.008C608.932 371.216 608.7 370.12 608.7 368.72ZM613.596 368.72C613.596 368.072 613.552 367.524 613.464 367.076C613.384 366.628 613.216 366.264 612.96 365.984C612.704 365.696 612.324 365.552 611.82 365.552C611.316 365.552 610.936 365.696 610.68 365.984C610.424 366.264 610.252 366.628 610.164 367.076C610.084 367.524 610.044 368.072 610.044 368.72C610.044 369.392 610.084 369.956 610.164 370.412C610.244 370.868 610.412 371.236 610.668 371.516C610.932 371.796 611.316 371.936 611.82 371.936C612.324 371.936 612.704 371.796 612.96 371.516C613.224 371.236 613.396 370.868 613.476 370.412C613.556 369.956 613.596 369.392 613.596 368.72ZM621.092 366.488C621.004 366.12 620.844 365.844 620.612 365.66C620.38 365.476 620.056 365.384 619.64 365.384C619.008 365.384 618.536 365.628 618.224 366.116C617.912 366.596 617.748 367.396 617.732 368.516C617.94 368.164 618.244 367.892 618.644 367.7C619.044 367.508 619.476 367.412 619.94 367.412C620.468 367.412 620.932 367.528 621.332 367.76C621.74 367.984 622.056 368.312 622.28 368.744C622.512 369.176 622.628 369.692 622.628 370.292C622.628 370.852 622.516 371.352 622.292 371.792C622.076 372.232 621.752 372.58 621.32 372.836C620.888 373.084 620.368 373.208 619.76 373.208C618.936 373.208 618.288 373.028 617.816 372.668C617.352 372.3 617.024 371.784 616.832 371.12C616.648 370.456 616.556 369.628 616.556 368.636C616.556 365.708 617.588 364.244 619.652 364.244C620.452 364.244 621.08 364.46 621.536 364.892C622 365.324 622.272 365.856 622.352 366.488H621.092ZM619.64 368.564C619.152 368.564 618.736 368.712 618.392 369.008C618.056 369.296 617.888 369.716 617.888 370.268C617.888 370.82 618.044 371.26 618.356 371.588C618.676 371.908 619.12 372.068 619.688 372.068C620.192 372.068 620.588 371.912 620.876 371.6C621.172 371.288 621.32 370.872 621.32 370.352C621.32 369.808 621.176 369.376 620.888 369.056C620.608 368.728 620.192 368.564 619.64 368.564ZM623.811 369.872C623.811 369.208 623.947 368.62 624.219 368.108C624.499 367.596 624.875 367.2 625.347 366.92C625.827 366.632 626.355 366.488 626.931 366.488C627.451 366.488 627.903 366.592 628.287 366.8C628.679 367 628.991 367.252 629.223 367.556V366.596H630.603V373.208H629.223V372.224C628.991 372.536 628.675 372.796 628.275 373.004C627.875 373.212 627.419 373.316 626.907 373.316C626.339 373.316 625.819 373.172 625.347 372.884C624.875 372.588 624.499 372.18 624.219 371.66C623.947 371.132 623.811 370.536 623.811 369.872ZM629.223 369.896C629.223 369.44 629.127 369.044 628.935 368.708C628.751 368.372 628.507 368.116 628.203 367.94C627.899 367.764 627.571 367.676 627.219 367.676C626.867 367.676 626.539 367.764 626.235 367.94C625.931 368.108 625.683 368.36 625.491 368.696C625.307 369.024 625.215 369.416 625.215 369.872C625.215 370.328 625.307 370.728 625.491 371.072C625.683 371.416 625.931 371.68 626.235 371.864C626.547 372.04 626.875 372.128 627.219 372.128C627.571 372.128 627.899 372.04 628.203 371.864C628.507 371.688 628.751 371.432 628.935 371.096C629.127 370.752 629.223 370.352 629.223 369.896ZM640.404 366.488C640.924 366.488 641.388 366.596 641.796 366.812C642.212 367.028 642.536 367.348 642.768 367.772C643.008 368.196 643.128 368.708 643.128 369.308V373.208H641.772V369.512C641.772 368.92 641.624 368.468 641.328 368.156C641.032 367.836 640.628 367.676 640.116 367.676C639.604 367.676 639.196 367.836 638.892 368.156C638.596 368.468 638.448 368.92 638.448 369.512V373.208H637.092V369.512C637.092 368.92 636.944 368.468 636.648 368.156C636.352 367.836 635.948 367.676 635.436 367.676C634.924 367.676 634.516 367.836 634.212 368.156C633.916 368.468 633.768 368.92 633.768 369.512V373.208H632.4V366.596H633.768V367.352C633.992 367.08 634.276 366.868 634.62 366.716C634.964 366.564 635.332 366.488 635.724 366.488C636.252 366.488 636.724 366.6 637.14 366.824C637.556 367.048 637.876 367.372 638.1 367.796C638.3 367.396 638.612 367.08 639.036 366.848C639.46 366.608 639.916 366.488 640.404 366.488Z" fill="#030229"/>
<path opacity="0.7" d="M676.7 368.72C676.7 367.336 676.932 366.256 677.396 365.48C677.868 364.696 678.676 364.304 679.82 364.304C680.964 364.304 681.768 364.696 682.232 365.48C682.704 366.256 682.94 367.336 682.94 368.72C682.94 370.12 682.704 371.216 682.232 372.008C681.768 372.792 680.964 373.184 679.82 373.184C678.676 373.184 677.868 372.792 677.396 372.008C676.932 371.216 676.7 370.12 676.7 368.72ZM681.596 368.72C681.596 368.072 681.552 367.524 681.464 367.076C681.384 366.628 681.216 366.264 680.96 365.984C680.704 365.696 680.324 365.552 679.82 365.552C679.316 365.552 678.936 365.696 678.68 365.984C678.424 366.264 678.252 366.628 678.164 367.076C678.084 367.524 678.044 368.072 678.044 368.72C678.044 369.392 678.084 369.956 678.164 370.412C678.244 370.868 678.412 371.236 678.668 371.516C678.932 371.796 679.316 371.936 679.82 371.936C680.324 371.936 680.704 371.796 680.96 371.516C681.224 371.236 681.396 370.868 681.476 370.412C681.556 369.956 681.596 369.392 681.596 368.72ZM689.932 365.516L686.596 373.208H685.216L688.588 365.66H684.148V364.496H689.932V365.516ZM690.827 369.872C690.827 369.208 690.963 368.62 691.235 368.108C691.515 367.596 691.891 367.2 692.363 366.92C692.843 366.632 693.371 366.488 693.947 366.488C694.467 366.488 694.919 366.592 695.303 366.8C695.695 367 696.007 367.252 696.239 367.556V366.596H697.619V373.208H696.239V372.224C696.007 372.536 695.691 372.796 695.291 373.004C694.891 373.212 694.435 373.316 693.923 373.316C693.355 373.316 692.835 373.172 692.363 372.884C691.891 372.588 691.515 372.18 691.235 371.66C690.963 371.132 690.827 370.536 690.827 369.872ZM696.239 369.896C696.239 369.44 696.143 369.044 695.951 368.708C695.767 368.372 695.523 368.116 695.219 367.94C694.915 367.764 694.587 367.676 694.235 367.676C693.883 367.676 693.555 367.764 693.251 367.94C692.947 368.108 692.699 368.36 692.507 368.696C692.323 369.024 692.231 369.416 692.231 369.872C692.231 370.328 692.323 370.728 692.507 371.072C692.699 371.416 692.947 371.68 693.251 371.864C693.563 372.04 693.891 372.128 694.235 372.128C694.587 372.128 694.915 372.04 695.219 371.864C695.523 371.688 695.767 371.432 695.951 371.096C696.143 370.752 696.239 370.352 696.239 369.896ZM707.42 366.488C707.94 366.488 708.404 366.596 708.812 366.812C709.228 367.028 709.552 367.348 709.784 367.772C710.024 368.196 710.144 368.708 710.144 369.308V373.208H708.788V369.512C708.788 368.92 708.64 368.468 708.344 368.156C708.048 367.836 707.644 367.676 707.132 367.676C706.62 367.676 706.212 367.836 705.908 368.156C705.612 368.468 705.464 368.92 705.464 369.512V373.208H704.108V369.512C704.108 368.92 703.96 368.468 703.664 368.156C703.368 367.836 702.964 367.676 702.452 367.676C701.94 367.676 701.532 367.836 701.228 368.156C700.932 368.468 700.784 368.92 700.784 369.512V373.208H699.416V366.596H700.784V367.352C701.008 367.08 701.292 366.868 701.636 366.716C701.98 366.564 702.348 366.488 702.74 366.488C703.268 366.488 703.74 366.6 704.156 366.824C704.572 367.048 704.892 367.372 705.116 367.796C705.316 367.396 705.628 367.08 706.052 366.848C706.476 366.608 706.932 366.488 707.42 366.488Z" fill="#030229"/>
<path opacity="0.7" d="M744.7 368.72C744.7 367.336 744.932 366.256 745.396 365.48C745.868 364.696 746.676 364.304 747.82 364.304C748.964 364.304 749.768 364.696 750.232 365.48C750.704 366.256 750.94 367.336 750.94 368.72C750.94 370.12 750.704 371.216 750.232 372.008C749.768 372.792 748.964 373.184 747.82 373.184C746.676 373.184 745.868 372.792 745.396 372.008C744.932 371.216 744.7 370.12 744.7 368.72ZM749.596 368.72C749.596 368.072 749.552 367.524 749.464 367.076C749.384 366.628 749.216 366.264 748.96 365.984C748.704 365.696 748.324 365.552 747.82 365.552C747.316 365.552 746.936 365.696 746.68 365.984C746.424 366.264 746.252 366.628 746.164 367.076C746.084 367.524 746.044 368.072 746.044 368.72C746.044 369.392 746.084 369.956 746.164 370.412C746.244 370.868 746.412 371.236 746.668 371.516C746.932 371.796 747.316 371.936 747.82 371.936C748.324 371.936 748.704 371.796 748.96 371.516C749.224 371.236 749.396 370.868 749.476 370.412C749.556 369.956 749.596 369.392 749.596 368.72ZM753.864 368.636C753.032 368.22 752.616 367.564 752.616 366.668C752.616 366.236 752.724 365.84 752.94 365.48C753.156 365.12 753.48 364.836 753.912 364.628C754.344 364.412 754.872 364.304 755.496 364.304C756.112 364.304 756.636 364.412 757.068 364.628C757.508 364.836 757.836 365.12 758.052 365.48C758.268 365.84 758.376 366.236 758.376 366.668C758.376 367.116 758.26 367.512 758.028 367.856C757.804 368.192 757.504 368.452 757.128 368.636C757.584 368.804 757.944 369.08 758.208 369.464C758.472 369.84 758.604 370.284 758.604 370.796C758.604 371.316 758.472 371.776 758.208 372.176C757.944 372.576 757.576 372.884 757.104 373.1C756.632 373.316 756.096 373.424 755.496 373.424C754.896 373.424 754.36 373.316 753.888 373.1C753.424 372.884 753.06 372.576 752.796 372.176C752.532 371.776 752.4 371.316 752.4 370.796C752.4 370.276 752.532 369.828 752.796 369.452C753.06 369.076 753.416 368.804 753.864 368.636ZM757.068 366.836C757.068 366.388 756.928 366.044 756.648 365.804C756.368 365.564 755.984 365.444 755.496 365.444C755.016 365.444 754.636 365.564 754.356 365.804C754.076 366.044 753.936 366.392 753.936 366.848C753.936 367.248 754.08 367.576 754.368 367.832C754.664 368.08 755.04 368.204 755.496 368.204C755.952 368.204 756.328 368.076 756.624 367.82C756.92 367.564 757.068 367.236 757.068 366.836ZM755.496 369.236C754.968 369.236 754.536 369.368 754.2 369.632C753.872 369.888 753.708 370.26 753.708 370.748C753.708 371.204 753.868 371.576 754.188 371.864C754.508 372.144 754.944 372.284 755.496 372.284C756.04 372.284 756.468 372.14 756.78 371.852C757.1 371.564 757.26 371.196 757.26 370.748C757.26 370.268 757.096 369.896 756.768 369.632C756.448 369.368 756.024 369.236 755.496 369.236ZM759.764 369.872C759.764 369.208 759.9 368.62 760.172 368.108C760.452 367.596 760.828 367.2 761.3 366.92C761.78 366.632 762.308 366.488 762.884 366.488C763.404 366.488 763.856 366.592 764.24 366.8C764.632 367 764.944 367.252 765.176 367.556V366.596H766.556V373.208H765.176V372.224C764.944 372.536 764.628 372.796 764.228 373.004C763.828 373.212 763.372 373.316 762.86 373.316C762.292 373.316 761.772 373.172 761.3 372.884C760.828 372.588 760.452 372.18 760.172 371.66C759.9 371.132 759.764 370.536 759.764 369.872ZM765.176 369.896C765.176 369.44 765.08 369.044 764.888 368.708C764.704 368.372 764.46 368.116 764.156 367.94C763.852 367.764 763.524 367.676 763.172 367.676C762.82 367.676 762.492 367.764 762.188 367.94C761.884 368.108 761.636 368.36 761.444 368.696C761.26 369.024 761.168 369.416 761.168 369.872C761.168 370.328 761.26 370.728 761.444 371.072C761.636 371.416 761.884 371.68 762.188 371.864C762.5 372.04 762.828 372.128 763.172 372.128C763.524 372.128 763.852 372.04 764.156 371.864C764.46 371.688 764.704 371.432 764.888 371.096C765.08 370.752 765.176 370.352 765.176 369.896ZM776.357 366.488C776.877 366.488 777.341 366.596 777.749 366.812C778.165 367.028 778.489 367.348 778.721 367.772C778.961 368.196 779.081 368.708 779.081 369.308V373.208H777.725V369.512C777.725 368.92 777.577 368.468 777.281 368.156C776.985 367.836 776.581 367.676 776.069 367.676C775.557 367.676 775.149 367.836 774.845 368.156C774.549 368.468 774.401 368.92 774.401 369.512V373.208H773.045V369.512C773.045 368.92 772.897 368.468 772.601 368.156C772.305 367.836 771.901 367.676 771.389 367.676C770.877 367.676 770.469 367.836 770.165 368.156C769.869 368.468 769.721 368.92 769.721 369.512V373.208H768.353V366.596H769.721V367.352C769.945 367.08 770.229 366.868 770.573 366.716C770.917 366.564 771.285 366.488 771.677 366.488C772.205 366.488 772.677 366.6 773.093 366.824C773.509 367.048 773.829 367.372 774.053 367.796C774.253 367.396 774.565 367.08 774.989 366.848C775.413 366.608 775.869 366.488 776.357 366.488Z" fill="#030229"/>
<path opacity="0.7" d="M812.7 368.72C812.7 367.336 812.932 366.256 813.396 365.48C813.868 364.696 814.676 364.304 815.82 364.304C816.964 364.304 817.768 364.696 818.232 365.48C818.704 366.256 818.94 367.336 818.94 368.72C818.94 370.12 818.704 371.216 818.232 372.008C817.768 372.792 816.964 373.184 815.82 373.184C814.676 373.184 813.868 372.792 813.396 372.008C812.932 371.216 812.7 370.12 812.7 368.72ZM817.596 368.72C817.596 368.072 817.552 367.524 817.464 367.076C817.384 366.628 817.216 366.264 816.96 365.984C816.704 365.696 816.324 365.552 815.82 365.552C815.316 365.552 814.936 365.696 814.68 365.984C814.424 366.264 814.252 366.628 814.164 367.076C814.084 367.524 814.044 368.072 814.044 368.72C814.044 369.392 814.084 369.956 814.164 370.412C814.244 370.868 814.412 371.236 814.668 371.516C814.932 371.796 815.316 371.936 815.82 371.936C816.324 371.936 816.704 371.796 816.96 371.516C817.224 371.236 817.396 370.868 817.476 370.412C817.556 369.956 817.596 369.392 817.596 368.72ZM822.092 370.832C822.172 371.232 822.344 371.536 822.608 371.744C822.872 371.952 823.228 372.056 823.676 372.056C824.244 372.056 824.66 371.832 824.924 371.384C825.188 370.936 825.32 370.172 825.32 369.092C825.128 369.364 824.856 369.576 824.504 369.728C824.16 369.872 823.784 369.944 823.376 369.944C822.856 369.944 822.384 369.84 821.96 369.632C821.536 369.416 821.2 369.1 820.952 368.684C820.712 368.26 820.592 367.748 820.592 367.148C820.592 366.268 820.848 365.568 821.36 365.048C821.88 364.52 822.592 364.256 823.496 364.256C824.584 364.256 825.356 364.62 825.812 365.348C826.276 366.068 826.508 367.176 826.508 368.672C826.508 369.704 826.42 370.548 826.244 371.204C826.076 371.86 825.78 372.356 825.356 372.692C824.932 373.028 824.344 373.196 823.592 373.196C822.736 373.196 822.076 372.972 821.612 372.524C821.148 372.076 820.888 371.512 820.832 370.832H822.092ZM823.616 368.792C824.096 368.792 824.472 368.644 824.744 368.348C825.024 368.044 825.164 367.644 825.164 367.148C825.164 366.596 825.016 366.168 824.72 365.864C824.432 365.552 824.036 365.396 823.532 365.396C823.028 365.396 822.628 365.556 822.332 365.876C822.044 366.188 821.9 366.6 821.9 367.112C821.9 367.6 822.04 368.004 822.32 368.324C822.608 368.636 823.04 368.792 823.616 368.792ZM827.729 369.872C827.729 369.208 827.865 368.62 828.137 368.108C828.417 367.596 828.793 367.2 829.265 366.92C829.745 366.632 830.273 366.488 830.849 366.488C831.369 366.488 831.821 366.592 832.205 366.8C832.597 367 832.909 367.252 833.141 367.556V366.596H834.521V373.208H833.141V372.224C832.909 372.536 832.593 372.796 832.193 373.004C831.793 373.212 831.337 373.316 830.825 373.316C830.257 373.316 829.737 373.172 829.265 372.884C828.793 372.588 828.417 372.18 828.137 371.66C827.865 371.132 827.729 370.536 827.729 369.872ZM833.141 369.896C833.141 369.44 833.045 369.044 832.853 368.708C832.669 368.372 832.425 368.116 832.121 367.94C831.817 367.764 831.489 367.676 831.137 367.676C830.785 367.676 830.457 367.764 830.153 367.94C829.849 368.108 829.601 368.36 829.409 368.696C829.225 369.024 829.133 369.416 829.133 369.872C829.133 370.328 829.225 370.728 829.409 371.072C829.601 371.416 829.849 371.68 830.153 371.864C830.465 372.04 830.793 372.128 831.137 372.128C831.489 372.128 831.817 372.04 832.121 371.864C832.425 371.688 832.669 371.432 832.853 371.096C833.045 370.752 833.141 370.352 833.141 369.896ZM844.322 366.488C844.842 366.488 845.306 366.596 845.714 366.812C846.13 367.028 846.454 367.348 846.686 367.772C846.926 368.196 847.046 368.708 847.046 369.308V373.208H845.69V369.512C845.69 368.92 845.542 368.468 845.246 368.156C844.95 367.836 844.546 367.676 844.034 367.676C843.522 367.676 843.114 367.836 842.81 368.156C842.514 368.468 842.366 368.92 842.366 369.512V373.208H841.01V369.512C841.01 368.92 840.862 368.468 840.566 368.156C840.27 367.836 839.866 367.676 839.354 367.676C838.842 367.676 838.434 367.836 838.13 368.156C837.834 368.468 837.686 368.92 837.686 369.512V373.208H836.318V366.596H837.686V367.352C837.91 367.08 838.194 366.868 838.538 366.716C838.882 366.564 839.25 366.488 839.642 366.488C840.17 366.488 840.642 366.6 841.058 366.824C841.474 367.048 841.794 367.372 842.018 367.796C842.218 367.396 842.53 367.08 842.954 366.848C843.378 366.608 843.834 366.488 844.322 366.488Z" fill="#030229"/>
<path opacity="0.7" d="M880.52 365.708V364.46H883.016V373.208H881.636V365.708H880.52ZM884.896 368.72C884.896 367.336 885.128 366.256 885.592 365.48C886.064 364.696 886.872 364.304 888.016 364.304C889.16 364.304 889.964 364.696 890.428 365.48C890.9 366.256 891.136 367.336 891.136 368.72C891.136 370.12 890.9 371.216 890.428 372.008C889.964 372.792 889.16 373.184 888.016 373.184C886.872 373.184 886.064 372.792 885.592 372.008C885.128 371.216 884.896 370.12 884.896 368.72ZM889.792 368.72C889.792 368.072 889.748 367.524 889.66 367.076C889.58 366.628 889.412 366.264 889.156 365.984C888.9 365.696 888.52 365.552 888.016 365.552C887.512 365.552 887.132 365.696 886.876 365.984C886.62 366.264 886.448 366.628 886.36 367.076C886.28 367.524 886.24 368.072 886.24 368.72C886.24 369.392 886.28 369.956 886.36 370.412C886.44 370.868 886.608 371.236 886.864 371.516C887.128 371.796 887.512 371.936 888.016 371.936C888.52 371.936 888.9 371.796 889.156 371.516C889.42 371.236 889.592 370.868 889.672 370.412C889.752 369.956 889.792 369.392 889.792 368.72ZM892.307 369.872C892.307 369.208 892.443 368.62 892.715 368.108C892.995 367.596 893.371 367.2 893.843 366.92C894.323 366.632 894.851 366.488 895.427 366.488C895.947 366.488 896.399 366.592 896.783 366.8C897.175 367 897.487 367.252 897.719 367.556V366.596H899.099V373.208H897.719V372.224C897.487 372.536 897.171 372.796 896.771 373.004C896.371 373.212 895.915 373.316 895.403 373.316C894.835 373.316 894.315 373.172 893.843 372.884C893.371 372.588 892.995 372.18 892.715 371.66C892.443 371.132 892.307 370.536 892.307 369.872ZM897.719 369.896C897.719 369.44 897.623 369.044 897.431 368.708C897.247 368.372 897.003 368.116 896.699 367.94C896.395 367.764 896.067 367.676 895.715 367.676C895.363 367.676 895.035 367.764 894.731 367.94C894.427 368.108 894.179 368.36 893.987 368.696C893.803 369.024 893.711 369.416 893.711 369.872C893.711 370.328 893.803 370.728 893.987 371.072C894.179 371.416 894.427 371.68 894.731 371.864C895.043 372.04 895.371 372.128 895.715 372.128C896.067 372.128 896.395 372.04 896.699 371.864C897.003 371.688 897.247 371.432 897.431 371.096C897.623 370.752 897.719 370.352 897.719 369.896ZM908.9 366.488C909.42 366.488 909.884 366.596 910.292 366.812C910.708 367.028 911.032 367.348 911.264 367.772C911.504 368.196 911.624 368.708 911.624 369.308V373.208H910.268V369.512C910.268 368.92 910.12 368.468 909.824 368.156C909.528 367.836 909.124 367.676 908.612 367.676C908.1 367.676 907.692 367.836 907.388 368.156C907.092 368.468 906.944 368.92 906.944 369.512V373.208H905.588V369.512C905.588 368.92 905.44 368.468 905.144 368.156C904.848 367.836 904.444 367.676 903.932 367.676C903.42 367.676 903.012 367.836 902.708 368.156C902.412 368.468 902.264 368.92 902.264 369.512V373.208H900.896V366.596H902.264V367.352C902.488 367.08 902.772 366.868 903.116 366.716C903.46 366.564 903.828 366.488 904.22 366.488C904.748 366.488 905.22 366.6 905.636 366.824C906.052 367.048 906.372 367.372 906.596 367.796C906.796 367.396 907.108 367.08 907.532 366.848C907.956 366.608 908.412 366.488 908.9 366.488Z" fill="#030229"/>
</g>
<path d="M63.9805 207.997L71.7705 216.154C79.606 224.006 95.4138 240.777 110.903 252.745C126.437 265.171 141.88 272.794 157.825 256.786C173.314 240.777 188.803 199.611 204.747 199.84C220.19 199.611 235.725 240.777 251.214 252.745C267.022 265.171 282.647 248.4 298.136 256.786C313.898 265.171 329.569 297.189 345.058 285.22C360.729 272.794 376.492 216.382 391.98 220.194C407.606 224.006 423.414 253.757 438.903 286.004C454.437 318.555 469.88 318.555 485.825 298.201C503.479 278.718 512.098 271.097 531.083 260.366C551.109 250.519 563.725 265.171 579.214 248.629C595.022 232.391 610.647 183.602 626.136 175.445C641.898 167.593 657.569 199.611 673.058 203.956C688.729 207.997 704.492 183.602 712.236 171.405L719.98 159.208C728.754 142.945 759.883 120.177 814.212 159.208C882.124 207.997 884.993 143.512 905.08 151.36C925.167 159.208 935.229 180.683 940.968 153.901" stroke="#F79320" stroke-width="4" stroke-linecap="round"/>
<g filter="url(#filter0_d_71_757)">
<circle cx="202.98" cy="200.208" r="7" fill="white"/>
<circle cx="202.98" cy="200.208" r="5.5" stroke="#AE8FF7" stroke-width="3"/>
</g>
<g filter="url(#filter1_d_71_757)">
<circle cx="284.98" cy="254.208" r="7" fill="white"/>
<circle cx="284.98" cy="254.208" r="5.5" stroke="#AE8FF7" stroke-width="3"/>
</g>
<g filter="url(#filter2_d_71_757)">
<circle cx="390.98" cy="220.208" r="7" fill="white"/>
<circle cx="390.98" cy="220.208" r="5.5" stroke="#AE8FF7" stroke-width="3"/>
</g>
<g filter="url(#filter3_d_71_757)">
<circle cx="543.98" cy="257.208" r="7" fill="white"/>
<circle cx="543.98" cy="257.208" r="5.5" stroke="#AE8FF7" stroke-width="3"/>
</g>
<g filter="url(#filter4_d_71_757)">
<circle cx="630.98" cy="174.208" r="7" fill="white"/>
<circle cx="630.98" cy="174.208" r="5.5" stroke="#AE8FF7" stroke-width="3"/>
</g>
<path opacity="0.7" d="M32.9565 43.208L30.3965 38.76H29.0045V43.208H27.1805V32.088H31.0205C31.8738 32.088 32.5938 32.2373 33.1805 32.536C33.7778 32.8347 34.2205 33.2347 34.5085 33.736C34.8071 34.2373 34.9565 34.7973 34.9565 35.416C34.9565 36.1413 34.7431 36.8027 34.3165 37.4C33.9005 37.9867 33.2551 38.3867 32.3805 38.6L35.1325 43.208H32.9565ZM29.0045 37.304H31.0205C31.7031 37.304 32.2151 37.1333 32.5565 36.792C32.9085 36.4507 33.0845 35.992 33.0845 35.416C33.0845 34.84 32.9138 34.392 32.5725 34.072C32.2311 33.7413 31.7138 33.576 31.0205 33.576H29.0045V37.304ZM45.3698 38.584C45.3698 38.9147 45.3485 39.2133 45.3058 39.48H38.5698C38.6232 40.184 38.8845 40.7493 39.3538 41.176C39.8232 41.6027 40.3992 41.816 41.0818 41.816C42.0632 41.816 42.7565 41.4053 43.1618 40.584H45.1298C44.8632 41.3947 44.3778 42.0613 43.6738 42.584C42.9805 43.096 42.1165 43.352 41.0818 43.352C40.2392 43.352 39.4818 43.1653 38.8098 42.792C38.1485 42.408 37.6258 41.8747 37.2418 41.192C36.8685 40.4987 36.6818 39.6987 36.6818 38.792C36.6818 37.8853 36.8632 37.0907 37.2258 36.408C37.5992 35.7147 38.1165 35.1813 38.7778 34.808C39.4498 34.4347 40.2178 34.248 41.0818 34.248C41.9138 34.248 42.6552 34.4293 43.3058 34.792C43.9565 35.1547 44.4632 35.6667 44.8258 36.328C45.1885 36.9787 45.3698 37.7307 45.3698 38.584ZM43.4658 38.008C43.4552 37.336 43.2152 36.7973 42.7458 36.392C42.2765 35.9867 41.6952 35.784 41.0018 35.784C40.3725 35.784 39.8338 35.9867 39.3858 36.392C38.9378 36.7867 38.6712 37.3253 38.5858 38.008H43.4658ZM48.9888 35.688C49.2982 35.2827 49.7195 34.9413 50.2528 34.664C50.7862 34.3867 51.3888 34.248 52.0608 34.248C52.8288 34.248 53.5275 34.44 54.1568 34.824C54.7968 35.1973 55.2982 35.7253 55.6608 36.408C56.0235 37.0907 56.2048 37.8747 56.2048 38.76C56.2048 39.6453 56.0235 40.44 55.6608 41.144C55.2982 41.8373 54.7968 42.3813 54.1568 42.776C53.5275 43.16 52.8288 43.352 52.0608 43.352C51.3888 43.352 50.7915 43.2187 50.2688 42.952C49.7462 42.6747 49.3195 42.3333 48.9888 41.928V47.4H47.1648V34.392H48.9888V35.688ZM54.3488 38.76C54.3488 38.152 54.2208 37.6293 53.9648 37.192C53.7195 36.744 53.3888 36.408 52.9728 36.184C52.5675 35.9493 52.1302 35.832 51.6608 35.832C51.2022 35.832 50.7648 35.9493 50.3488 36.184C49.9435 36.4187 49.6128 36.76 49.3568 37.208C49.1115 37.656 48.9888 38.184 48.9888 38.792C48.9888 39.4 49.1115 39.9333 49.3568 40.392C49.6128 40.84 49.9435 41.1813 50.3488 41.416C50.7648 41.6507 51.2022 41.768 51.6608 41.768C52.1302 41.768 52.5675 41.6507 52.9728 41.416C53.3888 41.1707 53.7195 40.8187 53.9648 40.36C54.2208 39.9013 54.3488 39.368 54.3488 38.76ZM61.8326 43.352C61.0006 43.352 60.2486 43.1653 59.5766 42.792C58.9046 42.408 58.3766 41.8747 57.9926 41.192C57.6086 40.4987 57.4166 39.6987 57.4166 38.792C57.4166 37.896 57.6139 37.1013 58.0086 36.408C58.4033 35.7147 58.9419 35.1813 59.6246 34.808C60.3073 34.4347 61.0699 34.248 61.9126 34.248C62.7553 34.248 63.5179 34.4347 64.2006 34.808C64.8833 35.1813 65.4219 35.7147 65.8166 36.408C66.2113 37.1013 66.4086 37.896 66.4086 38.792C66.4086 39.688 66.2059 40.4827 65.8006 41.176C65.3953 41.8693 64.8406 42.408 64.1366 42.792C63.4433 43.1653 62.6753 43.352 61.8326 43.352ZM61.8326 41.768C62.3019 41.768 62.7393 41.656 63.1446 41.432C63.5606 41.208 63.8966 40.872 64.1526 40.424C64.4086 39.976 64.5366 39.432 64.5366 38.792C64.5366 38.152 64.4139 37.6133 64.1686 37.176C63.9233 36.728 63.5979 36.392 63.1926 36.168C62.7873 35.944 62.3499 35.832 61.8806 35.832C61.4113 35.832 60.9739 35.944 60.5686 36.168C60.1739 36.392 59.8593 36.728 59.6246 37.176C59.3899 37.6133 59.2726 38.152 59.2726 38.792C59.2726 39.7413 59.5126 40.4773 59.9926 41C60.4833 41.512 61.0966 41.768 61.8326 41.768ZM70.0357 35.672C70.3024 35.224 70.6544 34.8773 71.0917 34.632C71.5397 34.376 72.0677 34.248 72.6757 34.248V36.136H72.2117C71.4971 36.136 70.9531 36.3173 70.5797 36.68C70.2171 37.0427 70.0357 37.672 70.0357 38.568V43.208H68.2117V34.392H70.0357V35.672ZM76.4803 35.88V40.76C76.4803 41.0907 76.555 41.3307 76.7043 41.48C76.8643 41.6187 77.131 41.688 77.5043 41.688H78.6243V43.208H77.1843C76.363 43.208 75.7337 43.016 75.2963 42.632C74.859 42.248 74.6403 41.624 74.6403 40.76V35.88H73.6003V34.392H74.6403V32.2H76.4803V34.392H78.6243V35.88H76.4803ZM83.5055 43.352C82.8121 43.352 82.1881 43.2293 81.6335 42.984C81.0895 42.728 80.6575 42.3867 80.3375 41.96C80.0175 41.5227 79.8468 41.0373 79.8255 40.504H81.7135C81.7455 40.8773 81.9215 41.192 82.2415 41.448C82.5721 41.6933 82.9828 41.816 83.4735 41.816C83.9855 41.816 84.3801 41.72 84.6575 41.528C84.9455 41.3253 85.0895 41.0693 85.0895 40.76C85.0895 40.4293 84.9295 40.184 84.6095 40.024C84.3001 39.864 83.8041 39.688 83.1215 39.496C82.4601 39.3147 81.9215 39.1387 81.5055 38.968C81.0895 38.7973 80.7268 38.536 80.4175 38.184C80.1188 37.832 79.9695 37.368 79.9695 36.792C79.9695 36.3227 80.1081 35.896 80.3855 35.512C80.6628 35.1173 81.0575 34.808 81.5695 34.584C82.0921 34.36 82.6895 34.248 83.3615 34.248C84.3641 34.248 85.1695 34.504 85.7775 35.016C86.3961 35.5173 86.7268 36.2053 86.7695 37.08H84.9455C84.9135 36.6853 84.7535 36.3707 84.4655 36.136C84.1775 35.9013 83.7881 35.784 83.2975 35.784C82.8175 35.784 82.4495 35.8747 82.1935 36.056C81.9375 36.2373 81.8095 36.4773 81.8095 36.776C81.8095 37.0107 81.8948 37.208 82.0655 37.368C82.2361 37.528 82.4441 37.656 82.6895 37.752C82.9348 37.8373 83.2975 37.9493 83.7775 38.088C84.4175 38.2587 84.9401 38.4347 85.3455 38.616C85.7615 38.7867 86.1188 39.0427 86.4175 39.384C86.7161 39.7253 86.8708 40.1787 86.8815 40.744C86.8815 41.2453 86.7428 41.6933 86.4655 42.088C86.1881 42.4827 85.7935 42.792 85.2815 43.016C84.7801 43.24 84.1881 43.352 83.5055 43.352Z" fill="#030229"/>
<g filter="url(#filter5_d_71_757)">
<path fill-rule="evenodd" clip-rule="evenodd" d="M356.98 144.208C351.458 144.208 346.98 148.685 346.98 154.208V190.208C346.98 195.731 351.458 200.208 356.98 200.208H385.784L390.114 207.708C390.499 208.375 391.462 208.375 391.846 207.708L396.177 200.208H425.98C431.503 200.208 435.98 195.731 435.98 190.208V154.208C435.98 148.685 431.503 144.208 425.98 144.208H356.98Z" fill="#030229"/>
</g>
<path opacity="0.8" d="M379.76 164.316C379.384 164.316 379.016 164.284 378.656 164.22C378.296 164.156 377.96 164.064 377.648 163.944C377.344 163.824 377.068 163.672 376.82 163.488C376.724 163.416 376.656 163.336 376.616 163.248C376.584 163.152 376.576 163.06 376.592 162.972C376.616 162.876 376.656 162.796 376.712 162.732C376.776 162.668 376.852 162.632 376.94 162.624C377.028 162.616 377.124 162.644 377.228 162.708C377.588 162.964 377.972 163.152 378.38 163.272C378.788 163.384 379.248 163.44 379.76 163.44C380.48 163.44 381.012 163.308 381.356 163.044C381.708 162.772 381.884 162.416 381.884 161.976C381.884 161.616 381.756 161.336 381.5 161.136C381.252 160.928 380.832 160.764 380.24 160.644L378.992 160.392C378.24 160.232 377.676 159.972 377.3 159.612C376.932 159.244 376.748 158.756 376.748 158.148C376.748 157.772 376.824 157.432 376.976 157.128C377.128 156.816 377.34 156.552 377.612 156.336C377.884 156.112 378.208 155.94 378.584 155.82C378.96 155.7 379.376 155.64 379.832 155.64C380.336 155.64 380.804 155.712 381.236 155.856C381.676 155.992 382.072 156.2 382.424 156.48C382.512 156.552 382.572 156.636 382.604 156.732C382.636 156.82 382.64 156.908 382.616 156.996C382.592 157.076 382.548 157.144 382.484 157.2C382.428 157.256 382.352 157.288 382.256 157.296C382.168 157.304 382.068 157.272 381.956 157.2C381.636 156.96 381.304 156.788 380.96 156.684C380.616 156.572 380.236 156.516 379.82 156.516C379.396 156.516 379.028 156.58 378.716 156.708C378.412 156.836 378.172 157.024 377.996 157.272C377.828 157.512 377.744 157.792 377.744 158.112C377.744 158.496 377.86 158.8 378.092 159.024C378.332 159.248 378.72 159.412 379.256 159.516L380.504 159.78C381.312 159.948 381.908 160.204 382.292 160.548C382.684 160.884 382.88 161.344 382.88 161.928C382.88 162.28 382.808 162.604 382.664 162.9C382.52 163.196 382.312 163.452 382.04 163.668C381.768 163.876 381.44 164.036 381.056 164.148C380.672 164.26 380.24 164.316 379.76 164.316ZM386.111 164.316C385.711 164.316 385.351 164.24 385.031 164.088C384.719 163.928 384.471 163.712 384.287 163.44C384.103 163.168 384.011 162.864 384.011 162.528C384.011 162.096 384.119 161.756 384.335 161.508C384.559 161.26 384.923 161.084 385.427 160.98C385.939 160.876 386.635 160.824 387.515 160.824H388.055V161.46H387.527C386.879 161.46 386.367 161.492 385.991 161.556C385.623 161.612 385.363 161.712 385.211 161.856C385.067 162 384.995 162.204 384.995 162.468C384.995 162.796 385.107 163.064 385.331 163.272C385.563 163.48 385.875 163.584 386.267 163.584C386.587 163.584 386.867 163.508 387.107 163.356C387.355 163.204 387.547 162.996 387.683 162.732C387.827 162.468 387.899 162.164 387.899 161.82V160.452C387.899 159.956 387.799 159.6 387.599 159.384C387.399 159.16 387.071 159.048 386.615 159.048C386.335 159.048 386.055 159.084 385.775 159.156C385.495 159.228 385.199 159.344 384.887 159.504C384.775 159.56 384.679 159.58 384.599 159.564C384.519 159.54 384.455 159.496 384.407 159.432C384.359 159.368 384.331 159.296 384.323 159.216C384.315 159.128 384.331 159.044 384.371 158.964C384.419 158.884 384.491 158.82 384.587 158.772C384.939 158.596 385.287 158.468 385.631 158.388C385.975 158.308 386.303 158.268 386.615 158.268C387.119 158.268 387.535 158.352 387.863 158.52C388.191 158.68 388.435 158.928 388.595 159.264C388.755 159.592 388.835 160.016 388.835 160.536V163.788C388.835 163.948 388.795 164.072 388.715 164.16C388.643 164.248 388.535 164.292 388.391 164.292C388.239 164.292 388.123 164.248 388.043 164.16C387.963 164.072 387.923 163.948 387.923 163.788V162.852H388.031C387.967 163.156 387.843 163.416 387.659 163.632C387.483 163.848 387.263 164.016 386.999 164.136C386.735 164.256 386.439 164.316 386.111 164.316ZM392.415 164.316C391.839 164.316 391.399 164.14 391.095 163.788C390.791 163.436 390.639 162.932 390.639 162.276V156.156C390.639 155.996 390.679 155.876 390.759 155.796C390.839 155.708 390.959 155.664 391.119 155.664C391.271 155.664 391.391 155.708 391.479 155.796C391.567 155.876 391.611 155.996 391.611 156.156V162.204C391.611 162.636 391.695 162.96 391.863 163.176C392.039 163.384 392.295 163.488 392.631 163.488C392.703 163.488 392.767 163.484 392.823 163.476C392.879 163.468 392.935 163.464 392.991 163.464C393.079 163.456 393.139 163.476 393.171 163.524C393.211 163.572 393.231 163.668 393.231 163.812C393.231 163.956 393.199 164.064 393.135 164.136C393.071 164.208 392.967 164.256 392.823 164.28C392.759 164.288 392.691 164.296 392.619 164.304C392.547 164.312 392.479 164.316 392.415 164.316ZM396.759 164.316C396.143 164.316 395.611 164.196 395.163 163.956C394.723 163.708 394.379 163.36 394.131 162.912C393.891 162.464 393.771 161.928 393.771 161.304C393.771 160.696 393.891 160.168 394.131 159.72C394.371 159.264 394.699 158.908 395.115 158.652C395.539 158.396 396.027 158.268 396.579 158.268C396.971 158.268 397.323 158.336 397.635 158.472C397.947 158.6 398.211 158.788 398.427 159.036C398.651 159.284 398.819 159.584 398.931 159.936C399.051 160.288 399.111 160.684 399.111 161.124C399.111 161.252 399.075 161.348 399.003 161.412C398.931 161.468 398.827 161.496 398.691 161.496H394.515V160.86H398.463L398.271 161.016C398.271 160.584 398.207 160.22 398.079 159.924C397.951 159.62 397.763 159.388 397.515 159.228C397.275 159.068 396.971 158.988 396.603 158.988C396.195 158.988 395.847 159.084 395.559 159.276C395.279 159.46 395.067 159.72 394.923 160.056C394.779 160.384 394.707 160.768 394.707 161.208V161.28C394.707 162.016 394.883 162.576 395.235 162.96C395.595 163.344 396.103 163.536 396.759 163.536C397.031 163.536 397.299 163.5 397.563 163.428C397.835 163.356 398.099 163.236 398.355 163.068C398.467 162.996 398.567 162.964 398.655 162.972C398.751 162.972 398.827 163 398.883 163.056C398.939 163.104 398.975 163.168 398.991 163.248C399.015 163.32 399.007 163.4 398.967 163.488C398.935 163.576 398.867 163.652 398.763 163.716C398.499 163.908 398.187 164.056 397.827 164.16C397.467 164.264 397.111 164.316 396.759 164.316ZM402.485 164.316C402.125 164.316 401.761 164.272 401.393 164.184C401.033 164.096 400.697 163.944 400.385 163.728C400.305 163.672 400.249 163.608 400.217 163.536C400.185 163.456 400.173 163.38 400.181 163.308C400.197 163.228 400.229 163.16 400.277 163.104C400.333 163.048 400.397 163.016 400.469 163.008C400.549 162.992 400.637 163.008 400.733 163.056C401.045 163.248 401.345 163.384 401.633 163.464C401.929 163.536 402.221 163.572 402.509 163.572C402.965 163.572 403.309 163.488 403.541 163.32C403.773 163.152 403.889 162.924 403.889 162.636C403.889 162.412 403.813 162.236 403.661 162.108C403.509 161.972 403.269 161.868 402.941 161.796L401.849 161.556C401.345 161.452 400.969 161.272 400.721 161.016C400.481 160.76 400.361 160.428 400.361 160.02C400.361 159.66 400.453 159.352 400.637 159.096C400.829 158.832 401.097 158.628 401.441 158.484C401.785 158.34 402.185 158.268 402.641 158.268C402.993 158.268 403.325 158.316 403.637 158.412C403.957 158.5 404.245 158.644 404.501 158.844C404.581 158.9 404.633 158.968 404.657 159.048C404.689 159.12 404.693 159.196 404.669 159.276C404.653 159.348 404.617 159.412 404.561 159.468C404.505 159.516 404.437 159.544 404.357 159.552C404.277 159.56 404.193 159.536 404.105 159.48C403.865 159.32 403.621 159.204 403.373 159.132C403.125 159.052 402.881 159.012 402.641 159.012C402.193 159.012 401.853 159.1 401.621 159.276C401.389 159.452 401.273 159.684 401.273 159.972C401.273 160.196 401.345 160.38 401.489 160.524C401.633 160.668 401.857 160.772 402.161 160.836L403.253 161.064C403.773 161.176 404.161 161.356 404.417 161.604C404.681 161.844 404.813 162.172 404.813 162.588C404.813 163.116 404.601 163.536 404.177 163.848C403.753 164.16 403.189 164.316 402.485 164.316Z" fill="white"/>
<path d="M372.076 186.208C371.788 186.208 371.58 186.144 371.452 186.016C371.324 185.877 371.26 185.691 371.26 185.456C371.26 185.307 371.298 185.163 371.372 185.024C371.447 184.885 371.554 184.741 371.692 184.592L375.1 180.944C375.623 180.389 375.996 179.883 376.22 179.424C376.455 178.955 376.572 178.485 376.572 178.016C376.572 177.419 376.391 176.965 376.028 176.656C375.666 176.347 375.132 176.192 374.428 176.192C374.002 176.192 373.591 176.256 373.196 176.384C372.802 176.512 372.407 176.72 372.012 177.008C371.852 177.115 371.703 177.163 371.564 177.152C371.426 177.141 371.303 177.088 371.196 176.992C371.1 176.896 371.036 176.779 371.004 176.64C370.972 176.501 370.978 176.357 371.02 176.208C371.063 176.059 371.164 175.931 371.324 175.824C371.762 175.493 372.268 175.237 372.844 175.056C373.42 174.875 374.007 174.784 374.604 174.784C375.383 174.784 376.039 174.907 376.572 175.152C377.116 175.387 377.527 175.733 377.804 176.192C378.082 176.651 378.22 177.211 378.22 177.872C378.22 178.32 378.146 178.757 377.996 179.184C377.858 179.611 377.639 180.048 377.34 180.496C377.052 180.933 376.674 181.397 376.204 181.888L372.972 185.28V184.816H378.06C378.295 184.816 378.476 184.875 378.604 184.992C378.732 185.109 378.796 185.28 378.796 185.504C378.796 185.728 378.732 185.904 378.604 186.032C378.476 186.149 378.295 186.208 378.06 186.208H372.076ZM381.67 187.824C381.553 187.973 381.425 188.059 381.286 188.08C381.158 188.101 381.046 188.075 380.95 188C380.854 187.925 380.801 187.819 380.79 187.68C380.78 187.552 380.838 187.408 380.966 187.248C381.158 187.013 381.286 186.768 381.35 186.512C381.425 186.267 381.462 186.048 381.462 185.856L381.526 186.272C381.206 186.272 380.945 186.181 380.742 186C380.55 185.808 380.454 185.557 380.454 185.248C380.454 184.949 380.545 184.709 380.726 184.528C380.908 184.336 381.153 184.24 381.462 184.24C381.782 184.24 382.033 184.352 382.214 184.576C382.406 184.789 382.502 185.099 382.502 185.504C382.502 185.739 382.476 185.984 382.422 186.24C382.38 186.496 382.3 186.757 382.182 187.024C382.065 187.291 381.894 187.557 381.67 187.824ZM388.571 186.352C387.664 186.352 386.891 186.133 386.251 185.696C385.622 185.259 385.136 184.629 384.795 183.808C384.464 182.976 384.299 181.979 384.299 180.816C384.299 179.845 384.406 178.987 384.619 178.24C384.832 177.493 385.142 176.864 385.547 176.352C385.952 175.84 386.443 175.451 387.019 175.184C387.606 174.917 388.267 174.784 389.003 174.784C389.483 174.784 389.974 174.869 390.475 175.04C390.976 175.2 391.435 175.445 391.851 175.776C391.99 175.872 392.075 175.995 392.107 176.144C392.15 176.283 392.155 176.421 392.123 176.56C392.091 176.688 392.027 176.8 391.931 176.896C391.835 176.992 391.712 177.051 391.563 177.072C391.424 177.083 391.275 177.035 391.115 176.928C390.752 176.661 390.39 176.475 390.027 176.368C389.675 176.251 389.323 176.192 388.971 176.192C388.31 176.192 387.75 176.352 387.291 176.672C386.832 176.992 386.486 177.472 386.251 178.112C386.016 178.752 385.899 179.547 385.899 180.496V181.856H385.723C385.798 181.28 385.974 180.784 386.251 180.368C386.539 179.941 386.907 179.616 387.355 179.392C387.803 179.168 388.299 179.056 388.843 179.056C389.504 179.056 390.086 179.211 390.587 179.52C391.099 179.829 391.499 180.256 391.787 180.8C392.075 181.333 392.219 181.947 392.219 182.64C392.219 183.355 392.064 183.995 391.755 184.56C391.446 185.125 391.014 185.568 390.459 185.888C389.915 186.197 389.286 186.352 388.571 186.352ZM388.475 185.008C388.912 185.008 389.296 184.912 389.627 184.72C389.958 184.528 390.214 184.261 390.395 183.92C390.576 183.568 390.667 183.163 390.667 182.704C390.667 182.245 390.576 181.845 390.395 181.504C390.214 181.163 389.958 180.896 389.627 180.704C389.296 180.501 388.912 180.4 388.475 180.4C388.038 180.4 387.654 180.501 387.323 180.704C387.003 180.896 386.747 181.163 386.555 181.504C386.374 181.845 386.283 182.245 386.283 182.704C386.283 183.163 386.374 183.568 386.555 183.92C386.747 184.261 387.003 184.528 387.323 184.72C387.654 184.912 388.038 185.008 388.475 185.008ZM395.685 186.32C395.493 186.32 395.328 186.277 395.189 186.192C395.061 186.096 394.981 185.968 394.949 185.808C394.928 185.637 394.965 185.451 395.061 185.248L400.069 175.696V176.32H394.565C394.33 176.32 394.149 176.261 394.021 176.144C393.893 176.016 393.829 175.845 393.829 175.632C393.829 175.408 393.893 175.237 394.021 175.12C394.149 174.992 394.33 174.928 394.565 174.928H400.853C401.088 174.928 401.274 174.992 401.413 175.12C401.562 175.237 401.637 175.408 401.637 175.632C401.637 175.824 401.61 175.989 401.557 176.128C401.514 176.267 401.45 176.421 401.365 176.592L396.613 185.776C396.517 185.968 396.394 186.107 396.245 186.192C396.096 186.277 395.909 186.32 395.685 186.32ZM407.359 186.352C406.505 186.352 405.769 186.229 405.151 185.984C404.543 185.739 404.073 185.381 403.743 184.912C403.423 184.432 403.263 183.861 403.263 183.2C403.263 182.667 403.369 182.197 403.583 181.792C403.796 181.376 404.095 181.04 404.479 180.784C404.863 180.528 405.305 180.368 405.807 180.304V180.592C405.113 180.443 404.559 180.117 404.143 179.616C403.737 179.104 403.535 178.496 403.535 177.792C403.535 177.163 403.689 176.624 403.999 176.176C404.319 175.717 404.767 175.371 405.343 175.136C405.919 174.901 406.591 174.784 407.359 174.784C408.137 174.784 408.815 174.901 409.391 175.136C409.967 175.371 410.409 175.717 410.719 176.176C411.039 176.624 411.199 177.163 411.199 177.792C411.199 178.261 411.103 178.693 410.911 179.088C410.729 179.472 410.468 179.797 410.127 180.064C409.785 180.32 409.385 180.491 408.927 180.576V180.304C409.684 180.411 410.292 180.725 410.751 181.248C411.22 181.76 411.455 182.411 411.455 183.2C411.455 183.861 411.289 184.432 410.959 184.912C410.639 185.381 410.175 185.739 409.567 185.984C408.959 186.229 408.223 186.352 407.359 186.352ZM407.359 185.04C408.201 185.04 408.836 184.88 409.263 184.56C409.689 184.229 409.903 183.739 409.903 183.088C409.903 182.437 409.689 181.952 409.263 181.632C408.836 181.312 408.201 181.152 407.359 181.152C406.527 181.152 405.892 181.312 405.455 181.632C405.028 181.952 404.815 182.437 404.815 183.088C404.815 183.739 405.028 184.229 405.455 184.56C405.892 184.88 406.527 185.04 407.359 185.04ZM407.359 179.84C407.839 179.84 408.244 179.765 408.575 179.616C408.916 179.456 409.177 179.237 409.359 178.96C409.54 178.672 409.631 178.336 409.631 177.952C409.631 177.376 409.428 176.923 409.023 176.592C408.628 176.261 408.073 176.096 407.359 176.096C406.644 176.096 406.089 176.261 405.695 176.592C405.3 176.923 405.103 177.376 405.103 177.952C405.103 178.539 405.3 179.003 405.695 179.344C406.089 179.675 406.644 179.84 407.359 179.84Z" fill="white"/>
<line x1="390.48" y1="344.208" x2="390.48" y2="227.208" stroke="#605BFF" stroke-dasharray="2 7"/>
<defs>
<filter id="filter0_d_71_757" x="191.98" y="193.208" width="22" height="22" filterUnits="userSpaceOnUse" color-interpolation-filters="sRGB">
<feFlood flood-opacity="0" result="BackgroundImageFix"/>
<feColorMatrix in="SourceAlpha" type="matrix" values="0 0 0 0 0 0 0 0 0 0 0 0 0 0 0 0 0 0 127 0" result="hardAlpha"/>
<feOffset dy="4"/>
<feGaussianBlur stdDeviation="2"/>
<feColorMatrix type="matrix" values="0 0 0 0 0.376471 0 0 0 0 0.356863 0 0 0 0 1 0 0 0 0.17 0"/>
<feBlend mode="normal" in2="BackgroundImageFix" result="effect1_dropShadow_71_757"/>
<feBlend mode="normal" in="SourceGraphic" in2="effect1_dropShadow_71_757" result="shape"/>
</filter>
<filter id="filter1_d_71_757" x="273.98" y="247.208" width="22" height="22" filterUnits="userSpaceOnUse" color-interpolation-filters="sRGB">
<feFlood flood-opacity="0" result="BackgroundImageFix"/>
<feColorMatrix in="SourceAlpha" type="matrix" values="0 0 0 0 0 0 0 0 0 0 0 0 0 0 0 0 0 0 127 0" result="hardAlpha"/>
<feOffset dy="4"/>
<feGaussianBlur stdDeviation="2"/>
<feColorMatrix type="matrix" values="0 0 0 0 0.376471 0 0 0 0 0.356863 0 0 0 0 1 0 0 0 0.17 0"/>
<feBlend mode="normal" in2="BackgroundImageFix" result="effect1_dropShadow_71_757"/>
<feBlend mode="normal" in="SourceGraphic" in2="effect1_dropShadow_71_757" result="shape"/>
</filter>
<filter id="filter2_d_71_757" x="379.98" y="213.208" width="22" height="22" filterUnits="userSpaceOnUse" color-interpolation-filters="sRGB">
<feFlood flood-opacity="0" result="BackgroundImageFix"/>
<feColorMatrix in="SourceAlpha" type="matrix" values="0 0 0 0 0 0 0 0 0 0 0 0 0 0 0 0 0 0 127 0" result="hardAlpha"/>
<feOffset dy="4"/>
<feGaussianBlur stdDeviation="2"/>
<feColorMatrix type="matrix" values="0 0 0 0 0.376471 0 0 0 0 0.356863 0 0 0 0 1 0 0 0 0.17 0"/>
<feBlend mode="normal" in2="BackgroundImageFix" result="effect1_dropShadow_71_757"/>
<feBlend mode="normal" in="SourceGraphic" in2="effect1_dropShadow_71_757" result="shape"/>
</filter>
<filter id="filter3_d_71_757" x="532.98" y="250.208" width="22" height="22" filterUnits="userSpaceOnUse" color-interpolation-filters="sRGB">
<feFlood flood-opacity="0" result="BackgroundImageFix"/>
<feColorMatrix in="SourceAlpha" type="matrix" values="0 0 0 0 0 0 0 0 0 0 0 0 0 0 0 0 0 0 127 0" result="hardAlpha"/>
<feOffset dy="4"/>
<feGaussianBlur stdDeviation="2"/>
<feColorMatrix type="matrix" values="0 0 0 0 0.376471 0 0 0 0 0.356863 0 0 0 0 1 0 0 0 0.17 0"/>
<feBlend mode="normal" in2="BackgroundImageFix" result="effect1_dropShadow_71_757"/>
<feBlend mode="normal" in="SourceGraphic" in2="effect1_dropShadow_71_757" result="shape"/>
</filter>
<filter id="filter4_d_71_757" x="619.98" y="167.208" width="22" height="22" filterUnits="userSpaceOnUse" color-interpolation-filters="sRGB">
<feFlood flood-opacity="0" result="BackgroundImageFix"/>
<feColorMatrix in="SourceAlpha" type="matrix" values="0 0 0 0 0 0 0 0 0 0 0 0 0 0 0 0 0 0 127 0" result="hardAlpha"/>
<feOffset dy="4"/>
<feGaussianBlur stdDeviation="2"/>
<feColorMatrix type="matrix" values="0 0 0 0 0.376471 0 0 0 0 0.356863 0 0 0 0 1 0 0 0 0.17 0"/>
<feBlend mode="normal" in2="BackgroundImageFix" result="effect1_dropShadow_71_757"/>
<feBlend mode="normal" in="SourceGraphic" in2="effect1_dropShadow_71_757" result="shape"/>
</filter>
<filter id="filter5_d_71_757" x="339.98" y="141.208" width="103" height="78" filterUnits="userSpaceOnUse" color-interpolation-filters="sRGB">
<feFlood flood-opacity="0" result="BackgroundImageFix"/>
<feColorMatrix in="SourceAlpha" type="matrix" values="0 0 0 0 0 0 0 0 0 0 0 0 0 0 0 0 0 0 127 0" result="hardAlpha"/>
<feOffset dy="4"/>
<feGaussianBlur stdDeviation="3.5"/>
<feColorMatrix type="matrix" values="0 0 0 0 0.0117647 0 0 0 0 0.00784314 0 0 0 0 0.160784 0 0 0 0.07 0"/>
<feBlend mode="normal" in2="BackgroundImageFix" result="effect1_dropShadow_71_757"/>
<feBlend mode="normal" in="SourceGraphic" in2="effect1_dropShadow_71_757" result="shape"/>
</filter>
</defs>
</svg>
