<svg width="24" height="25" viewBox="0 0 24 25" fill="none" xmlns="http://www.w3.org/2000/svg">
<path d="M5 12.7952C5 11.4374 5 10.7586 5.27446 10.1618C5.54892 9.56508 6.06437 9.12327 7.09525 8.23965L8.09525 7.38251C9.95857 5.78538 10.8902 4.98682 12 4.98682C13.1098 4.98682 14.0414 5.78538 15.9047 7.38251L16.9047 8.23965C17.9356 9.12327 18.4511 9.56508 18.7255 10.1618C19 10.7586 19 11.4374 19 12.7952V17.0356C19 18.9212 19 19.864 18.4142 20.4498C17.8284 21.0356 16.8856 21.0356 15 21.0356H9C7.11438 21.0356 6.17157 21.0356 5.58579 20.4498C5 19.864 5 18.9212 5 17.0356V12.7952Z" stroke="#3E3E3E" stroke-width="2"/>
<path d="M14.5 21.0356V16.0356C14.5 15.4834 14.0523 15.0356 13.5 15.0356H10.5C9.94772 15.0356 9.5 15.4834 9.5 16.0356V21.0356" stroke="#3E3E3E" stroke-width="2" stroke-linecap="round" stroke-linejoin="round"/>
</svg>
