<svg width="32" height="32" viewBox="0 0 32 32" fill="none" xmlns="http://www.w3.org/2000/svg">
<path d="M0 16.0005C0 24.837 7.16344 32.0005 16 32.0005C24.8366 32.0005 32 24.837 32 16.0005C32 7.16393 24.8366 0.000488281 16 0.000488281C7.16344 0.000488281 0 7.16393 0 16.0005Z" fill="#EA4C89"/>
<path d="M16 8.00049C11.584 8.00049 8 11.5845 8 16.0005C8 20.4165 11.584 24.0005 16 24.0005C20.4 24.0005 24 20.4165 24 16.0005C24 11.5845 20.4 8.00049 16 8.00049ZM21.28 11.6805C22.24 12.8485 22.8 14.3205 22.832 15.9365C22.608 15.8885 20.352 15.4405 18.08 15.7125C18.032 15.6005 17.984 15.4725 17.936 15.3605C17.792 15.0245 17.648 14.6885 17.488 14.3685C19.984 13.3605 21.136 11.8725 21.28 11.6805ZM16 9.18449C17.728 9.18449 19.328 9.84049 20.528 10.8965C20.4 11.0725 19.376 12.4485 16.944 13.3605C15.824 11.2965 14.576 9.61649 14.4 9.36049C14.912 9.24849 15.44 9.18449 16 9.18449ZM13.088 9.82449C13.264 10.0645 14.48 11.7605 15.616 13.7765C12.416 14.6245 9.6 14.6085 9.296 14.6085C9.76 12.4805 11.184 10.7205 13.088 9.82449ZM9.168 16.0165C9.168 15.9525 9.168 15.8725 9.168 15.8085C9.456 15.8245 12.784 15.8565 16.192 14.8325C16.384 15.2165 16.576 15.6005 16.752 16.0005C16.672 16.0325 16.576 16.0485 16.48 16.0805C12.96 17.2165 11.088 20.3205 10.928 20.5765C9.824 19.3605 9.168 17.7605 9.168 16.0165ZM16 22.8325C14.416 22.8325 12.96 22.2885 11.808 21.3925C11.936 21.1365 13.312 18.4645 17.168 17.1205C17.184 17.1045 17.2 17.1045 17.216 17.1045C18.176 19.6005 18.576 21.6805 18.672 22.2885C17.856 22.6405 16.944 22.8325 16 22.8325ZM19.808 21.6645C19.744 21.2485 19.376 19.2485 18.48 16.8005C20.624 16.4645 22.496 17.0245 22.736 17.0885C22.432 18.9925 21.344 20.6405 19.808 21.6645Z" fill="white"/>
</svg>
