<svg width="32" height="32" viewBox="0 0 32 32" fill="none" xmlns="http://www.w3.org/2000/svg">
<path d="M0 16.0005C0 24.837 7.16344 32.0005 16 32.0005C24.8366 32.0005 32 24.837 32 16.0005C32 7.16393 24.8366 0.000488281 16 0.000488281C7.16344 0.000488281 0 7.16393 0 16.0005Z" fill="#1877F2"/>
<path d="M24 16.0005C24 11.6005 20.4 8.00049 16 8.00049C11.6 8.00049 8 11.6005 8 16.0005C8 20.0005 10.9 23.3005 14.7 23.9005V18.3005H12.7V16.0005H14.7V14.2005C14.7 12.2005 15.9 11.1005 17.7 11.1005C18.6 11.1005 19.5 11.3005 19.5 11.3005V13.3005H18.5C17.5 13.3005 17.2 13.9005 17.2 14.5005V16.0005H19.4L19 18.3005H17.1V24.0005C21.1 23.4005 24 20.0005 24 16.0005Z" fill="white"/>
</svg>
