<svg width="21" height="20" viewBox="0 0 21 20" fill="none" xmlns="http://www.w3.org/2000/svg">
<path d="M20.0413 9.9833C20.0413 4.46934 15.5717 0.00012207 10.0584 0.00012207C4.54481 0.00012207 0.0751953 4.46934 0.0751953 9.9833C0.0751953 15.4964 4.54481 19.966 10.0584 19.966C15.5717 19.966 20.0413 15.4964 20.0413 9.9833Z" fill="#25B7D3"/>
<path d="M12.7611 14.469C12.7053 14.3872 12.5982 14.3582 12.5088 14.4005C11.5196 14.8688 10.3969 15.3639 10.1765 15.4072C10.171 15.4022 10.1622 15.3932 10.1506 15.3775C10.1207 15.3371 10.1062 15.2842 10.1062 15.2159C10.1062 14.6564 10.5285 12.9542 11.3614 10.1568C12.0637 7.80649 12.1449 7.31985 12.1449 7.15828C12.1449 6.90886 12.0494 6.69811 11.8686 6.54878C11.6969 6.40717 11.457 6.33542 11.1556 6.33542C10.6542 6.33542 10.0731 6.52576 9.37909 6.91735C8.70654 7.29695 7.95648 7.93989 7.14988 8.8283C7.08674 8.89787 7.08014 9.0019 7.13398 9.07892C7.18791 9.15598 7.28791 9.18532 7.37487 9.14991C7.65805 9.03433 9.08119 8.45135 9.28863 8.32105C9.45849 8.21457 9.60553 8.16053 9.72569 8.16053C9.73 8.16053 9.7337 8.16069 9.7368 8.16093C9.73825 8.1689 9.73962 8.18105 9.73962 8.19848C9.73962 8.32109 9.71438 8.46624 9.66493 8.62918C8.45221 12.5584 7.86271 14.9671 7.86271 15.9931C7.86271 16.3552 7.96336 16.6467 8.16179 16.8594C8.364 17.0765 8.63676 17.1865 8.97249 17.1865C9.33028 17.1865 9.76573 17.037 10.3037 16.7296C10.8242 16.4321 11.6188 15.7778 12.7328 14.7289C12.8049 14.661 12.817 14.5508 12.7611 14.469Z" fill="white"/>
<path d="M12.7222 3.08539C12.524 2.88254 12.2704 2.77968 11.9685 2.77968C11.5926 2.77968 11.2653 2.92821 10.9956 3.22117C10.7303 3.5093 10.5957 3.86286 10.5957 4.27199C10.5957 4.59525 10.6948 4.86314 10.8903 5.06817C11.0883 5.2763 11.3385 5.38181 11.6338 5.38181C11.9943 5.38181 12.3198 5.22495 12.6015 4.91557C12.8782 4.61163 13.0185 4.25429 13.0185 3.85348C13.0185 3.54547 12.9188 3.28708 12.7222 3.08539Z" fill="white"/>
</svg>
