<svg width="71" height="21" viewBox="0 0 71 21" fill="none" xmlns="http://www.w3.org/2000/svg">
<path d="M9.72033 6.36523V2.35621C9.72033 1.92994 10.0603 1.57471 10.4903 1.57471C10.8753 1.57471 11.2015 1.8732 11.2532 2.25129L11.2603 2.35621V6.36523L16.0402 6.36553C18.4202 6.36553 20.3756 8.31449 20.4854 10.7451L20.4902 10.9608V16.0001C20.4902 18.4478 18.6029 20.4569 16.2583 20.5697L16.0502 20.5747H4.93023C2.55023 20.5747 0.604324 18.6355 0.495072 16.196L0.490234 15.9794L0.490234 10.9505C0.490234 8.50281 2.36814 6.48392 4.71223 6.37055L4.92023 6.36553H9.72023V12.7679L8.12023 11.1157C7.82023 10.8059 7.33023 10.8059 7.03023 11.1157C6.88023 11.2706 6.81023 11.4771 6.81023 11.6836C6.81023 11.8406 6.85503 12.0042 6.94975 12.1426L7.03023 12.2413L9.94023 15.2566C10.0802 15.4115 10.2802 15.4941 10.4902 15.4941C10.6569 15.4941 10.8236 15.4367 10.9555 15.328L11.0302 15.2566L13.9402 12.2413C14.2402 11.9315 14.2402 11.4255 13.9402 11.1157C13.6675 10.8341 13.2378 10.8085 12.9365 11.0389L12.8502 11.1157L11.2602 12.7679V6.36553L9.72033 6.36523Z" fill="#F79320"/>
<path d="M67.007 4.44946V3.51013C67.007 1.89154 65.6901 0.574707 64.0716 0.574707H56.87C55.2514 0.574707 53.9346 1.89154 53.9346 3.51013V4.44946H67.007Z" fill="#F79320"/>
<path d="M55.1084 13.0601V17.835V18.8526V19.4397C55.1084 20.0882 55.6341 20.6139 56.2826 20.6139H64.6583C65.3068 20.6139 65.8325 20.0882 65.8325 19.4397V18.8526V17.835V13.0601H55.1084ZM62.036 18.0698H58.9049C58.5806 18.0698 58.3178 17.807 58.3178 17.4828C58.3178 17.1585 58.5806 16.8957 58.9049 16.8957H62.036C62.3602 16.8957 62.6231 17.1585 62.6231 17.4828C62.6231 17.807 62.3602 18.0698 62.036 18.0698ZM62.036 15.565H58.9049C58.5806 15.565 58.3178 15.3021 58.3178 14.9779C58.3178 14.6536 58.5806 14.3908 58.9049 14.3908H62.036C62.3602 14.3908 62.6231 14.6536 62.6231 14.9779C62.6231 15.3021 62.3602 15.565 62.036 15.565Z" fill="#F79320"/>
<path d="M67.5548 5.62354H53.4257C51.8071 5.62354 50.4902 6.94036 50.4902 8.55896V13.2556C50.4902 14.8742 51.8071 16.191 53.4257 16.191H53.9345V13.0599H53.5822C53.258 13.0599 52.9951 12.7971 52.9951 12.4729C52.9951 12.1486 53.258 11.8858 53.5822 11.8858H54.5215H66.4198H67.3591C67.6833 11.8858 67.9462 12.1486 67.9462 12.4729C67.9462 12.7971 67.6833 13.0599 67.3591 13.0599H67.0069V16.191H67.5548C69.1734 16.191 70.4902 14.8742 70.4902 13.2556V8.55896C70.4902 6.94036 69.1734 5.62354 67.5548 5.62354ZM55.4609 9.3026H53.5822C53.258 9.3026 52.9951 9.03974 52.9951 8.71551C52.9951 8.39128 53.258 8.12843 53.5822 8.12843H55.4609C55.7851 8.12843 56.048 8.39128 56.048 8.71551C56.048 9.03974 55.7851 9.3026 55.4609 9.3026Z" fill="#F79320"/>
</svg>
