<svg width="32" height="32" viewBox="0 0 32 32" fill="none" xmlns="http://www.w3.org/2000/svg">
<path d="M0 16.0005C0 24.837 7.16344 32.0005 16 32.0005C24.8366 32.0005 32 24.837 32 16.0005C32 7.16393 24.8366 0.000488281 16 0.000488281C7.16344 0.000488281 0 7.16393 0 16.0005Z" fill="#2867B2"/>
<path d="M11.6 24.0005H8.2V13.3005H11.6V24.0005ZM9.9 11.8005C8.8 11.8005 8 11.0005 8 9.90049C8 8.80049 8.9 8.00049 9.9 8.00049C11 8.00049 11.8 8.80049 11.8 9.90049C11.8 11.0005 11 11.8005 9.9 11.8005ZM24 24.0005H20.6V18.2005C20.6 16.5005 19.9 16.0005 18.9 16.0005C17.9 16.0005 16.9 16.8005 16.9 18.3005V24.0005H13.5V13.3005H16.7V14.8005C17 14.1005 18.2 13.0005 19.9 13.0005C21.8 13.0005 23.8 14.1005 23.8 17.4005V24.0005H24Z" fill="white"/>
</svg>
