<svg width="51" height="30" viewBox="0 0 51 30" fill="none" xmlns="http://www.w3.org/2000/svg">
<rect x="0.238281" y="0.277771" width="50" height="29" rx="1.6" fill="#003473"/>
<path d="M25.2188 22.0297C26.9884 20.3483 28.1051 17.9069 28.1051 15.1954C28.1051 12.4832 26.988 10.0432 25.2188 8.34316C23.6725 6.86094 21.6123 5.9566 19.3448 5.9566C14.5018 5.9566 10.5674 10.0972 10.5674 15.195C10.5674 20.2941 14.5018 24.4159 19.3448 24.4159C21.6124 24.4162 23.6725 23.5126 25.2188 22.0297V22.0297Z" fill="#009DDD"/>
<path d="M25.2188 22.0297C26.9884 20.3483 28.1051 17.9069 28.1051 15.1954C28.1051 12.4832 26.988 10.0432 25.2188 8.34317V22.0297V22.0297Z" fill="#009DDD"/>
<path d="M31.1112 5.95697C28.8433 5.95697 26.7819 6.86131 25.219 8.34353C24.9102 8.65064 24.6185 8.97628 24.3428 9.32053H26.1118C26.3527 9.62692 26.576 9.97117 26.7819 10.2962H23.6726C23.4843 10.6218 23.3124 10.9478 23.1572 11.2725H27.2799C27.4181 11.5975 27.5546 11.9242 27.6577 12.2492H22.7981C22.6946 12.5745 22.6085 12.9008 22.54 13.2434H27.9157C28.0356 13.8583 28.1053 14.5276 28.1053 15.1957C28.1053 16.2083 27.9498 17.2032 27.6578 18.125H22.7981C22.9003 18.45 23.0208 18.776 23.1577 19.1014H27.2804C27.1261 19.427 26.971 19.7703 26.782 20.0778H23.6727C23.8798 20.4214 24.1026 20.7467 24.3428 21.0541H26.1118C25.8374 21.3977 25.545 21.7234 25.219 22.0305C26.782 23.5134 28.8433 24.4171 31.1112 24.4171C35.9548 24.4171 39.8713 20.2953 39.8713 15.1962C39.8708 10.0977 35.9548 5.95697 31.1112 5.95697V5.95697Z" fill="#ED1C2E"/>
<path fill-rule="evenodd" clip-rule="evenodd" d="M37.3623 16.8951C37.0903 16.8951 36.8467 17.1064 36.8467 17.3795C36.8467 17.6532 37.0903 17.8951 37.3623 17.8951C37.6353 17.8951 37.8467 17.6532 37.8467 17.3795C37.8467 17.1065 37.6354 16.8951 37.3623 16.8951ZM37.7254 17.3795C37.7254 17.592 37.5737 17.7739 37.3623 17.7739C37.1498 17.7739 36.9696 17.592 36.9696 17.3795C36.9696 17.1677 37.1498 17.0158 37.3623 17.0158C37.5735 17.0158 37.7254 17.1677 37.7254 17.3795ZM37.3016 17.592H37.1809V17.1676H37.3621C37.4216 17.1676 37.4528 17.1676 37.4839 17.1981C37.5139 17.2281 37.5434 17.2576 37.5434 17.2888C37.5434 17.35 37.5134 17.4106 37.4527 17.4106L37.5434 17.5918H37.4216L37.3621 17.44H37.3016V17.592ZM37.3621 17.35H37.3016H37.3009V17.2576H37.3321H37.4216V17.2888V17.35H37.3621Z" fill="white"/>
<path d="M18.2451 17.492H17.1463L17.7988 13.8941L16.3049 17.492H15.3077L15.1364 13.912L14.4839 17.492H13.4873L14.3294 12.8095H16.0463L16.1321 15.7017L17.3359 12.8095H19.1032L18.2451 17.492Z" fill="white"/>
<path d="M30.4409 17.4382C30.1315 17.5279 29.9082 17.564 29.6502 17.564C29.1011 17.564 28.791 17.2749 28.791 16.7331C28.791 16.6242 28.8087 16.5153 28.8254 16.3888L28.8938 16.0091L28.9465 15.7203L29.4442 12.8099H30.526L30.3721 13.677H30.9382L30.784 14.5999H30.2173L29.9426 16.1904C29.9249 16.2628 29.9083 16.3172 29.9083 16.353C29.9083 16.5522 30.0287 16.6418 30.2867 16.6418C30.4066 16.6418 30.5088 16.6239 30.5785 16.6059L30.4409 17.4382V17.4382Z" fill="white"/>
<path d="M33.618 13.7139C33.5318 13.677 33.5152 13.677 33.4981 13.677C33.4461 13.6584 33.412 13.6584 33.412 13.6411C33.3769 13.6411 33.3429 13.6411 33.2921 13.6411C32.9306 13.6411 32.6733 13.8038 32.3466 14.2552L32.4494 13.677H31.4528L30.7832 17.492H31.8826C32.2775 15.1589 32.4323 14.7436 32.9644 14.7436C32.9987 14.7436 33.0511 14.7618 33.1019 14.7618L33.2224 14.7977L33.618 13.7139V13.7139Z" fill="white"/>
<path d="M26.1114 14.888C26.1114 15.3584 26.3694 15.7017 26.9534 15.9374C27.4003 16.1356 27.4691 16.1904 27.4691 16.3713C27.4691 16.606 27.2625 16.7149 26.8333 16.7149C26.5068 16.7149 26.1971 16.6605 25.8367 16.5526L25.6992 17.4386H25.7513L25.9395 17.4924C26.008 17.4924 26.1108 17.5106 26.2313 17.5106C26.4893 17.5461 26.6956 17.5461 26.8501 17.5461C28.0009 17.5461 28.5506 17.1485 28.5506 16.281C28.5506 15.7564 28.3273 15.4494 27.7606 15.2143C27.2964 15.0334 27.2453 14.9793 27.2453 14.7984C27.2453 14.6002 27.4342 14.4913 27.795 14.4913C28.0009 14.4913 28.3096 14.5099 28.5844 14.5451L28.7393 13.6776C28.4475 13.6242 28.0183 13.6056 27.7774 13.6056C26.5412 13.605 26.1114 14.1832 26.1114 14.888V14.888Z" fill="white"/>
<path fill-rule="evenodd" clip-rule="evenodd" d="M20.8899 17.492H21.7834L21.8007 17.3832L21.8177 17.2574L21.8527 17.0578L21.8871 16.8231L22.1104 15.467C22.1789 15.051 22.1959 14.9063 22.1959 14.7071C22.1959 13.9841 21.7145 13.605 20.7706 13.605C20.3578 13.605 20.0147 13.6584 19.4643 13.8038L19.3101 14.6533L19.4136 14.6357L19.5678 14.5813C19.8087 14.5268 20.1512 14.4906 20.4606 14.4906C20.9756 14.4906 21.1652 14.5813 21.1652 14.8342C21.1652 14.888 21.1652 14.9429 21.1308 15.0693C20.9589 15.0507 20.8038 15.0507 20.6846 15.0507C19.464 15.0507 18.7607 15.5928 18.7607 16.5154C18.7607 17.1301 19.1733 17.5458 19.7568 17.5458C20.255 17.5458 20.6329 17.4014 20.9076 17.0936L20.8899 17.492ZM20.753 15.7741C20.8214 15.7741 20.8722 15.7741 20.9933 15.792C20.976 16.3531 20.6502 16.7507 20.2026 16.7507C19.9623 16.7507 19.8254 16.5878 19.8254 16.3531C19.8254 15.9729 20.1342 15.7741 20.753 15.7741Z" fill="white"/>
<path fill-rule="evenodd" clip-rule="evenodd" d="M24.2561 17.5637C24.6346 17.5637 24.9954 17.5099 25.3726 17.4014L25.5445 16.4616C25.167 16.6239 24.8065 16.696 24.4113 16.696C23.7758 16.696 23.4664 16.4612 23.4664 16.0273V15.9005H25.6489C25.7343 15.5214 25.7693 15.2488 25.7693 14.96C25.7693 14.1285 25.2013 13.586 24.3085 13.586C23.2091 13.586 22.4014 14.544 22.4014 15.846C22.4014 16.9668 23.0381 17.5637 24.2561 17.5637ZM24.7891 14.9428V15.142H23.5859C23.6897 14.7071 23.93 14.4541 24.2738 14.4541C24.5995 14.4541 24.7891 14.6357 24.7891 14.9428Z" fill="white"/>
<path fill-rule="evenodd" clip-rule="evenodd" d="M34.8882 17.5816C36.0053 17.5816 36.8467 17.0209 37.0186 15.7561C37.0533 15.5394 37.0533 15.5217 37.053 15.2853C37.053 14.3269 36.4518 13.5674 35.318 13.5674C34.0126 13.5674 33.1719 14.4903 33.1719 15.8285C33.1719 16.8048 33.6695 17.5816 34.8882 17.5816ZM35.285 14.5092C35.7305 14.5092 35.8854 14.8698 35.8854 15.2674C35.8854 15.4311 35.8854 15.5931 35.8511 15.7385C35.7654 16.3171 35.25 16.6603 35.0097 16.6603C34.6318 16.6603 34.3909 16.3171 34.3909 15.8105C34.3909 15.1954 34.734 14.5092 35.285 14.5092Z" fill="white"/>
</svg>
