<svg width="14" height="19" viewBox="0 0 14 19" fill="none" xmlns="http://www.w3.org/2000/svg">
<path d="M3.70588 6.81612C3.25106 6.81612 2.88235 7.18483 2.88235 7.63965C2.88235 8.09447 3.25106 8.46318 3.70588 8.46318H10.2941C10.7489 8.46318 11.1176 8.09447 11.1176 7.63965C11.1176 7.18483 10.7489 6.81612 10.2941 6.81612H3.70588Z" fill="#3E3E3E"/>
<path d="M3.70588 10.1102C3.25106 10.1102 2.88235 10.4789 2.88235 10.9338C2.88235 11.3886 3.25106 11.7573 3.70588 11.7573H8.64706C9.10188 11.7573 9.47059 11.3886 9.47059 10.9338C9.47059 10.4789 9.10188 10.1102 8.64706 10.1102H3.70588Z" fill="#3E3E3E"/>
<path d="M3.70588 13.4044C3.25106 13.4044 2.88235 13.7731 2.88235 14.2279C2.88235 14.6827 3.25106 15.0514 3.70588 15.0514H7C7.45482 15.0514 7.82353 14.6827 7.82353 14.2279C7.82353 13.7731 7.45482 13.4044 7 13.4044H3.70588Z" fill="#3E3E3E"/>
<path fill-rule="evenodd" clip-rule="evenodd" d="M5.35294 1.46318C5.35294 1.00836 4.98423 0.639648 4.52941 0.639648C4.07459 0.639648 3.70588 1.00836 3.70588 1.46318V2.28671H1.64706C0.737413 2.28671 0 3.02412 0 3.93377V17.1102C0 18.0199 0.737413 18.7573 1.64706 18.7573H12.3529C13.2626 18.7573 14 18.0199 14 17.1102V3.93377C14 3.02412 13.2626 2.28671 12.3529 2.28671H10.2941V1.46318C10.2941 1.00836 9.92541 0.639648 9.47059 0.639648C9.01577 0.639648 8.64706 1.00836 8.64706 1.46318V2.28671H5.35294V1.46318ZM3.70588 3.93377C3.70588 4.38859 4.07459 4.7573 4.52941 4.7573C4.98423 4.7573 5.35294 4.38859 5.35294 3.93377H8.64706C8.64706 4.38859 9.01577 4.7573 9.47059 4.7573C9.92541 4.7573 10.2941 4.38859 10.2941 3.93377H12.3529V17.1102H1.64706V3.93377H3.70588Z" fill="#3E3E3E"/>
</svg>
