<svg width="23" height="23" viewBox="0 0 23 23" fill="none" xmlns="http://www.w3.org/2000/svg">
<path d="M14.2414 4.01851C13.6994 3.91275 13.1742 4.26644 13.0684 4.80851C12.9627 5.35057 13.3164 5.87573 13.8584 5.98149L14.2414 4.01851ZM17.0184 9.14149C17.1242 9.68356 17.6494 10.0373 18.1914 9.93149C18.7335 9.82574 19.0872 9.30057 18.9814 8.75851L17.0184 9.14149ZM14.1604 0.00611418C13.6114 -0.0548651 13.117 0.340679 13.0561 0.889587C12.9951 1.4385 13.3906 1.93291 13.9395 1.99389L14.1604 0.00611418ZM21.0062 9.05166C21.0679 9.60049 21.5628 9.99542 22.1116 9.93375C22.6604 9.87208 23.0554 9.37717 22.9937 8.82834L21.0062 9.05166ZM20.9999 19.92H19.9999L19.9999 19.9241L20.9999 19.92ZM18.8199 21.92L18.7119 22.9142C18.7179 22.9148 18.7239 22.9154 18.7299 22.9159L18.8199 21.92ZM10.1899 18.85L10.7341 18.0109L10.7263 18.006L10.1899 18.85ZM4.18994 12.85L5.03399 12.3137L5.02922 12.3063L4.18994 12.85ZM1.11994 4.18L0.123998 4.27C0.124469 4.2752 0.12498 4.2804 0.125531 4.2856L1.11994 4.18ZM3.10994 2V1L3.109 1L3.10994 2ZM6.10994 2V3.00005L6.11978 2.99995L6.10994 2ZM8.10994 3.72L9.1014 3.58924L9.1001 3.58005L8.10994 3.72ZM8.80994 6.53L7.87304 6.87961L7.87389 6.88186L8.80994 6.53ZM8.35994 8.64L9.06706 9.34712L9.07099 9.34314L8.35994 8.64ZM7.08994 9.91L6.38283 9.20289C6.06452 9.52121 5.99813 10.013 6.22065 10.4043L7.08994 9.91ZM13.0899 15.91L12.5956 16.7793C12.987 17.0018 13.4787 16.9354 13.797 16.6171L13.0899 15.91ZM14.3599 14.64L13.6568 13.9289L13.6528 13.9329L14.3599 14.64ZM16.4699 14.19L16.1181 15.1261L16.1203 15.1269L16.4699 14.19ZM19.2799 14.89L19.4196 13.8998L19.4107 13.8986L19.2799 14.89ZM13.8584 5.98149C15.4568 6.29335 16.7066 7.5431 17.0184 9.14149L18.9814 8.75851C18.5137 6.36092 16.639 4.48629 14.2414 4.01851L13.8584 5.98149ZM13.9395 1.99389C17.6547 2.40661 20.5888 5.33703 21.0062 9.05166L22.9937 8.82834C22.4719 4.18505 18.8043 0.522019 14.1604 0.00611418L13.9395 1.99389ZM19.9999 16.92V19.92H21.9999V16.92H19.9999ZM19.9999 19.9241C20.0011 20.2056 19.8835 20.4746 19.676 20.665L21.028 22.1387C21.6505 21.5677 22.0034 20.7607 21.9999 19.9159L19.9999 19.9241ZM19.676 20.665C19.4685 20.8553 19.1904 20.9494 18.9099 20.9241L18.7299 22.9159C19.5712 22.992 20.4056 22.7098 21.028 22.1387L19.676 20.665ZM18.928 20.9259C16.0063 20.6084 13.1998 19.61 10.734 18.011L9.64584 19.689C12.3741 21.4583 15.4793 22.5629 18.7119 22.9142L18.928 20.9259ZM10.7263 18.006C8.434 16.5494 6.49055 14.6059 5.03395 12.3137L3.34593 13.3863C4.96 15.9264 7.11354 18.0799 9.65362 19.694L10.7263 18.006ZM5.02922 12.3063C3.4246 9.82933 2.42601 7.00921 2.11435 4.0744L0.125531 4.2856C0.470361 7.53278 1.57524 10.6531 3.35066 13.3937L5.02922 12.3063ZM2.11588 4.09C2.09062 3.81044 2.18402 3.53313 2.37326 3.32581L0.896147 1.97743C0.328406 2.59938 0.0482084 3.43131 0.123998 4.27L2.11588 4.09ZM2.37326 3.32581C2.56251 3.11849 2.83018 3.00026 3.11088 3L3.109 1C2.26689 1.00079 1.46389 1.35548 0.896147 1.97743L2.37326 3.32581ZM3.10994 3H6.10994V1H3.10994V3ZM6.11978 2.99995C6.62171 2.99501 7.04953 3.36294 7.11978 3.85995L9.1001 3.58005C8.88935 2.089 7.60589 0.985228 6.1001 1.00005L6.11978 2.99995ZM7.11853 3.85076C7.25501 4.8856 7.50813 5.90167 7.87304 6.8796L9.74684 6.1804C9.43465 5.34378 9.21812 4.47454 9.10135 3.58924L7.11853 3.85076ZM7.87389 6.88186C8.01126 7.2473 7.9234 7.65926 7.64889 7.93686L9.07099 9.34314C9.89452 8.51035 10.1581 7.27445 9.74599 6.17814L7.87389 6.88186ZM7.65283 7.93289L6.38283 9.20289L7.79705 10.6171L9.06705 9.34711L7.65283 7.93289ZM6.22065 10.4043C7.73317 13.0643 9.93563 15.2668 12.5956 16.7793L13.5842 15.0407C11.2372 13.7061 9.29382 11.7628 7.95923 9.41571L6.22065 10.4043ZM13.797 16.6171L15.067 15.3471L13.6528 13.9329L12.3828 15.2029L13.797 16.6171ZM15.0631 15.3511C15.3407 15.0765 15.7526 14.9887 16.1181 15.1261L16.8218 13.2539C15.7255 12.8418 14.4896 13.1054 13.6568 13.9289L15.0631 15.3511ZM16.1203 15.1269C17.0983 15.4918 18.1143 15.7449 19.1492 15.8814L19.4107 13.8986C18.5254 13.7818 17.6562 13.5653 16.8195 13.2531L16.1203 15.1269ZM19.1402 15.8802C19.643 15.9511 20.0128 16.3876 20.0002 16.8952L21.9996 16.9448C22.0374 15.422 20.928 14.1126 19.4196 13.8998L19.1402 15.8802Z" fill="#F79320"/>
</svg>
