<svg width="22" height="18" viewBox="0 0 22 18" fill="none" xmlns="http://www.w3.org/2000/svg">
<path d="M11.0238 17.2352C14.1453 17.2352 17.2607 17.2352 20.3822 17.2352C20.9838 17.2352 21.24 16.9791 21.24 16.3774C21.24 12.6662 21.24 8.9491 21.234 5.23196C21.234 5.02347 21.1804 4.80306 21.097 4.61244C20.5192 3.27808 19.9175 1.94968 19.3338 0.615325C19.1729 0.240037 18.9108 0.0732422 18.5057 0.0732422C13.5019 0.0791991 8.49807 0.0791991 3.49423 0.0732422C3.0832 0.0732422 2.82706 0.245994 2.66622 0.615325C2.07648 1.95564 1.47483 3.29 0.891047 4.63031C0.813606 4.80902 0.771906 5.01751 0.765949 5.20813C0.759993 8.93718 0.759995 12.6662 0.759995 16.3953C0.759995 16.9552 1.03401 17.2233 1.59992 17.2233C4.73924 17.2352 7.88451 17.2352 11.0238 17.2352ZM7.90833 5.80383C7.90833 5.91105 7.90833 6.00041 7.90833 6.08976C7.90833 7.60878 7.90833 9.12781 7.90833 10.6468C7.90833 10.7719 7.90833 10.903 7.94408 11.0221C8.06917 11.4331 8.49807 11.6178 8.93889 11.4451C9.56437 11.2008 10.1839 10.9566 10.8034 10.7004C10.9464 10.6409 11.0596 10.6409 11.2025 10.7004C11.7863 10.9447 12.388 11.1413 12.9598 11.4093C13.5555 11.6953 14.1274 11.3259 14.1095 10.617C14.0738 9.09802 14.0976 7.579 14.0976 6.05998C14.0976 5.97658 14.0976 5.88723 14.0976 5.80979C16.0217 5.80979 17.9101 5.80979 19.7984 5.80979C19.7984 9.14568 19.7984 12.4697 19.7984 15.7877C13.9249 15.7877 8.06917 15.7877 2.20753 15.7877C2.20753 12.4518 2.20753 9.12781 2.20753 5.79787C4.1078 5.80383 5.9902 5.80383 7.90833 5.80383ZM19.4112 4.35629C13.7998 4.35629 8.20618 4.35629 2.60069 4.35629C2.60665 4.31459 2.60665 4.28481 2.61856 4.26098C3.00576 3.38531 3.39297 2.50963 3.79208 1.63396C3.82187 1.56844 3.93505 1.50887 4.01249 1.50887C8.67082 1.50291 13.3351 1.50887 17.9935 1.50291C18.1245 1.50291 18.19 1.55057 18.2377 1.6697C18.607 2.50368 18.9763 3.33765 19.3516 4.17758C19.3695 4.23119 19.3874 4.28481 19.4112 4.35629ZM12.6501 5.80383C12.6501 7.12031 12.6501 8.41893 12.6501 9.73541C12.251 9.57458 11.8697 9.43757 11.5004 9.27077C11.1668 9.11589 10.8511 9.10994 10.5175 9.26482C10.1422 9.43757 9.75499 9.57458 9.36183 9.72946C9.36183 8.40702 9.36183 7.1084 9.36183 5.80383C10.4579 5.80383 11.5421 5.80383 12.6501 5.80383Z" fill="#3E3E3E"/>
</svg>
