<svg width="22" height="22" viewBox="0 0 22 22" fill="none" xmlns="http://www.w3.org/2000/svg">
<path d="M8.92605 15.3196C8.04903 16.0166 7.18943 16.6961 6.32984 17.3756C4.8662 18.5315 3.40256 19.6931 1.94474 20.8489C1.71241 21.0347 1.46267 21.1219 1.17807 20.9708C0.90509 20.8256 0.759888 20.5991 0.759888 20.2855C0.765696 20.0357 0.916706 19.8789 1.10256 19.7337C2.08413 18.9613 3.05989 18.183 4.03565 17.4105C5.53994 16.2198 7.03842 15.035 8.54272 13.8443C8.95509 13.5191 9.35004 13.5655 9.66948 13.9895C10.4594 15.0466 11.2493 16.1037 12.0392 17.1666C12.1031 17.2537 12.167 17.3408 12.2483 17.4453C14.3682 15.8017 16.4766 14.1638 18.6372 12.4911C18.2596 12.4678 17.946 12.4504 17.6324 12.433C16.9644 12.3981 16.2965 12.3691 15.6344 12.34C15.1639 12.3168 14.8968 12.0554 14.9084 11.6256C14.92 11.2017 15.2162 10.9287 15.6692 10.9461C16.6798 10.9868 17.6846 11.0448 18.6894 11.0913C19.1599 11.1145 19.6303 11.1378 20.1008 11.161C20.2518 11.1668 20.4086 11.1668 20.5596 11.19C21.0475 11.2481 21.3147 11.5966 21.2218 12.0729C20.9081 13.6759 20.5887 15.2731 20.2634 16.8703C20.1763 17.2885 19.8278 17.515 19.4213 17.4221C19.0205 17.3292 18.8172 16.9981 18.8985 16.5857C19.096 15.6042 19.2877 14.6226 19.4968 13.5946C19.4038 13.6643 19.3399 13.7049 19.2819 13.7514C17.069 15.4706 14.8561 17.184 12.6432 18.9032C12.1844 19.2575 11.8185 19.211 11.4758 18.7464C10.6917 17.6951 9.90762 16.638 9.11772 15.5868C9.06544 15.4996 9.00155 15.4183 8.92605 15.3196Z" fill="#3E3E3E"/>
<path d="M17.9287 8.62865C17.9519 6.32865 17.0807 4.44102 15.286 3.00062C12.7769 0.985214 9.05976 1.03749 6.59713 3.10516C3.80925 5.45163 3.25168 9.62183 5.3542 12.5084C5.58072 12.8163 5.84789 13.1009 6.10925 13.3797C6.41708 13.7107 6.44032 14.1289 6.14991 14.4251C5.87112 14.7155 5.45294 14.6923 5.12769 14.3728C2.5489 11.8637 1.93324 8.05365 3.58855 4.76047C4.7792 2.39658 6.65521 0.857437 9.26885 0.299861C13.7411 -0.652664 18.1668 2.20491 19.1484 6.66552C19.3517 7.59481 19.4214 8.53572 19.2762 9.47663C19.2007 9.9587 18.8986 10.1794 18.4805 10.1155C18.1552 10.0632 17.9519 9.87158 17.9287 9.54052C17.9113 9.2385 17.9287 8.93648 17.9287 8.62865Z" fill="#3E3E3E"/>
<path d="M10.5293 4.23206C10.5293 4.02878 10.5234 3.83711 10.5293 3.65125C10.5409 3.22145 10.8313 2.91943 11.232 2.91943C11.627 2.91943 11.9174 3.22726 11.9232 3.65706C11.9232 3.84292 11.9232 4.02878 11.9232 4.24368C12.3239 4.24368 12.6957 4.23787 13.0732 4.24368C13.4914 4.25529 13.7527 4.48181 13.7876 4.85352C13.834 5.30075 13.5495 5.626 13.0906 5.63181C12.2426 5.63762 11.3947 5.63181 10.5409 5.63181C10.4479 5.63181 10.3492 5.63181 10.2563 5.64923C9.85551 5.70731 9.59996 6.00933 9.60577 6.4159C9.61738 6.82246 9.88455 7.13029 10.2911 7.14772C10.7964 7.17095 11.3075 7.14772 11.8128 7.17676C12.9106 7.24645 13.7005 8.05959 13.776 9.16893C13.8515 10.255 13.1777 11.1669 12.1091 11.3934C11.958 11.4283 11.9 11.4747 11.9116 11.6316C11.9232 11.8058 11.9174 11.98 11.9116 12.1543C11.8942 12.4912 11.656 12.7293 11.3133 12.7641C10.93 12.8048 10.6164 12.6189 10.5525 12.2704C10.506 12.0149 10.5176 11.7535 10.5002 11.4573C10.4247 11.4573 10.3492 11.4573 10.2737 11.4573C9.82647 11.4573 9.37344 11.4631 8.92622 11.4573C8.48481 11.4515 8.20021 11.1727 8.20602 10.7603C8.21183 10.348 8.49642 10.0692 8.93784 10.0692C9.83809 10.0634 10.7383 10.075 11.6386 10.0634C12.2368 10.0576 12.5679 9.48837 12.3065 8.95403C12.1671 8.66943 11.9174 8.55908 11.6096 8.55327C11.232 8.54746 10.8545 8.55327 10.477 8.55327C10.0878 8.55327 9.71031 8.48938 9.36183 8.31514C8.53127 7.90858 8.08405 6.96186 8.25829 5.9861C8.43253 5.03358 9.15854 4.34822 10.0995 4.25529C10.2388 4.25529 10.3724 4.24368 10.5293 4.23206Z" fill="#3E3E3E"/>
</svg>
