<svg width="27" height="31" viewBox="0 0 27 31" fill="none" xmlns="http://www.w3.org/2000/svg">
<path d="M25.3383 20.7186C24.5195 22.9181 23.2812 24.8305 21.6574 26.4022C19.809 28.1912 17.3887 29.6127 14.4636 30.6268C14.3676 30.66 14.2675 30.6871 14.1668 30.7072C14.0339 30.7332 13.8986 30.7473 13.7645 30.7491H13.7383C13.5954 30.7491 13.4517 30.7348 13.3093 30.7072C13.2086 30.6871 13.1099 30.66 13.0143 30.6275C10.0858 29.615 7.66243 28.1942 5.81223 26.4052C4.18769 24.8335 2.94965 22.9222 2.13204 20.7228C0.645323 16.7237 0.72992 12.3184 0.798015 8.7782L0.799177 8.72384C0.812889 8.43151 0.821721 8.12444 0.826601 7.78536C0.851469 6.12056 2.18689 4.74324 3.86674 4.65041C7.36913 4.45668 10.0786 3.32447 12.3936 1.08791L12.4138 1.06949C12.7982 0.720032 13.2825 0.548646 13.7645 0.555787C14.2294 0.561776 14.6923 0.732932 15.063 1.06949L15.0828 1.08791C17.3983 3.32447 20.1077 4.45668 23.6101 4.65041C25.2899 4.74324 26.6253 6.12056 26.6502 7.78536C26.6551 8.12675 26.6639 8.43336 26.6776 8.72384L26.6783 8.74687C26.7462 12.2937 26.8303 16.7078 25.3383 20.7186Z" fill="#8BC712"/>
<path d="M21.3295 15.6523C21.3295 19.7926 17.9379 23.1627 13.7643 23.1775H13.7376C9.55169 23.1775 6.14551 19.8015 6.14551 15.6523C6.14551 11.5033 9.55169 8.12744 13.7376 8.12744H13.7643C17.9379 8.14218 21.3295 11.5123 21.3295 15.6523Z" fill="white"/>
<path d="M17.184 14.5687L13.7648 17.9582L13.026 18.6905C12.8514 18.8635 12.6225 18.9499 12.3938 18.9499C12.1649 18.9499 11.9362 18.8635 11.7615 18.6905L10.1729 17.1153C9.82386 16.7693 9.82386 16.2089 10.1729 15.8627C10.5216 15.5167 11.0877 15.5167 11.4368 15.8627L12.3938 16.8113L15.9202 13.316C16.2692 12.9698 16.8354 12.9698 17.184 13.316C17.5331 13.662 17.5331 14.2232 17.184 14.5687Z" fill="#8BC712"/>
</svg>
