<svg width="20" height="18" viewBox="0 0 20 18" fill="none" xmlns="http://www.w3.org/2000/svg">
<path d="M19.1666 3.19287C19.1666 1.6767 17.9328 0.442871 16.4166 0.442871H3.58331C2.06715 0.442871 0.833313 1.6767 0.833313 3.19287V5.78795C0.833313 6.7532 1.18348 7.63045 1.74998 8.30512V16.0262C1.74998 17.0373 2.57223 17.8595 3.58331 17.8595H16.4166C17.4277 17.8595 18.25 17.0373 18.25 16.0262V8.3042C18.8165 7.63045 19.1666 6.7532 19.1666 5.78704V3.19287ZM17.3333 3.19287V5.78795C17.3333 6.83295 16.5551 7.72395 15.5999 7.77437L15.5 7.7762C14.4889 7.7762 13.6666 6.95395 13.6666 5.94287V2.2762H16.4166C16.9226 2.2762 17.3333 2.68779 17.3333 3.19287ZM8.16665 2.2762H11.8333V5.94287C11.8333 6.95395 11.0111 7.7762 9.99998 7.7762C8.9889 7.7762 8.16665 6.95395 8.16665 5.94287V2.2762ZM2.66665 3.19287C2.66665 2.68779 3.07731 2.2762 3.58331 2.2762H6.33331V5.94287C6.33331 6.95395 5.51106 7.7762 4.49998 7.7762L4.40006 7.77345C3.4449 7.72395 2.66665 6.83295 2.66665 5.78795V3.19287ZM8.16665 16.0262V13.2762H11.8333V16.0262H8.16665ZM13.6666 16.0262V13.2762C13.6666 12.2651 12.8444 11.4429 11.8333 11.4429H8.16665C7.15556 11.4429 6.33331 12.2651 6.33331 13.2762V16.0262H3.58331V9.48945C3.81615 9.55087 4.05723 9.5912 4.30473 9.60404C4.85738 9.63403 5.40962 9.53815 5.91981 9.32363C6.43 9.1091 6.88483 8.78153 7.24998 8.36562C7.9219 9.12829 8.9064 9.60954 9.99998 9.60954C11.0936 9.60954 12.0781 9.12829 12.75 8.36562C13.1151 8.78153 13.57 9.1091 14.0801 9.32363C14.5903 9.53815 15.1426 9.63403 15.6952 9.60404C15.9436 9.5912 16.1838 9.55087 16.4166 9.48945V16.0262H13.6666Z" fill="#3E3E3E"/>
</svg>
