<svg width="32" height="32" viewBox="0 0 32 32" fill="none" xmlns="http://www.w3.org/2000/svg">
<path d="M0 16.0005C0 24.837 7.16344 32.0005 16 32.0005C24.8366 32.0005 32 24.837 32 16.0005C32 7.16393 24.8366 0.000488281 16 0.000488281C7.16344 0.000488281 0 7.16393 0 16.0005Z" fill="#1DA1F2"/>
<path d="M24 11.0005C23.4 11.3005 22.8 11.4005 22.1 11.5005C22.8 11.1005 23.3 10.5005 23.5 9.70049C22.9 10.1005 22.2 10.3005 21.4 10.5005C20.8 9.90049 19.9 9.50049 19 9.50049C16.9 9.50049 15.3 11.5005 15.8 13.5005C13.1 13.4005 10.7 12.1005 9 10.1005C8.1 11.6005 8.6 13.5005 10 14.5005C9.5 14.5005 9 14.3005 8.5 14.1005C8.5 15.6005 9.6 17.0005 11.1 17.4005C10.6 17.5005 10.1 17.6005 9.6 17.5005C10 18.8005 11.2 19.8005 12.7 19.8005C11.5 20.7005 9.7 21.2005 8 21.0005C9.5 21.9005 11.2 22.5005 13 22.5005C19.1 22.5005 22.5 17.4005 22.3 12.7005C23 12.3005 23.6 11.7005 24 11.0005Z" fill="white"/>
</svg>
