<svg width="51" height="30" viewBox="0 0 51 30" fill="none" xmlns="http://www.w3.org/2000/svg">
<rect x="0.638281" y="0.677771" width="49.2" height="28.2" rx="1.2" fill="white" stroke="#CDCDCD" stroke-width="0.8"/>
<path d="M18.7559 20.0557L20.7715 8.75702H23.9209L21.9683 20.0557H18.7559Z" fill="#3C58BF"/>
<path d="M18.7559 20.0557L21.3384 8.75702H23.9209L21.9683 20.0557H18.7559Z" fill="#293688"/>
<path d="M33.3696 8.88257C32.7397 8.63148 31.7319 8.3804 30.4722 8.3804C27.3227 8.3804 25.0552 9.94967 25.0552 12.2094C25.0552 13.9042 26.6299 14.783 27.8896 15.3479C29.1494 15.9129 29.5273 16.2895 29.5273 16.7917C29.5273 17.5449 28.5195 17.9215 27.6377 17.9215C26.3779 17.9215 25.6851 17.7332 24.6143 17.2938L24.1733 17.1055L23.7324 19.6791C24.4883 19.993 25.874 20.3068 27.3227 20.3068C30.6611 20.3068 32.8657 18.7375 32.8657 16.3523C32.8657 15.0341 32.0469 14.0298 30.1572 13.2137C29.0234 12.6488 28.3306 12.3349 28.3306 11.77C28.3306 11.2678 28.8975 10.7657 30.1572 10.7657C31.228 10.7657 31.9839 10.954 32.5508 11.2051L32.8657 11.3306L33.3696 8.88257V8.88257Z" fill="#3C58BF"/>
<path d="M33.3696 8.88257C32.7397 8.63148 31.7319 8.3804 30.4722 8.3804C27.3227 8.3804 25.6221 9.94967 25.6221 12.2094C25.6221 13.9042 26.6299 14.783 27.8896 15.3479C29.1494 15.9129 29.5273 16.2895 29.5273 16.7917C29.5273 17.5449 28.5195 17.9215 27.6377 17.9215C26.3779 17.9215 25.6851 17.7332 24.6143 17.2938L24.1733 17.1055L23.7324 19.6791C24.4883 19.993 25.874 20.3068 27.3227 20.3068C30.6611 20.3068 32.8657 18.7375 32.8657 16.3523C32.8657 15.0341 32.0469 14.0298 30.1572 13.2137C29.0234 12.6488 28.3306 12.3349 28.3306 11.77C28.3306 11.2678 28.8975 10.7657 30.1572 10.7657C31.228 10.7657 31.9839 10.954 32.5508 11.2051L32.8657 11.3306L33.3696 8.88257V8.88257Z" fill="#293688"/>
<path fill-rule="evenodd" clip-rule="evenodd" d="M37.1489 9.57304C37.4639 8.81979 38.0308 8.75702 38.7866 8.75702H41.2431L43.8886 20.0557H40.8652L40.4873 18.1726H36.456L35.8262 20.0557H32.4248L37.1489 9.57304ZM38.5976 12.9626C38.5976 12.9626 37.5268 15.7246 37.3379 16.2895V16.3523H39.9834C39.8574 15.7246 39.2275 12.8999 39.2275 12.8999L39.0386 11.8328C38.8496 12.2722 38.5976 12.9626 38.5976 12.9626Z" fill="#3C58BF"/>
<path fill-rule="evenodd" clip-rule="evenodd" d="M37.9048 9.57304C38.2197 8.81979 38.7866 8.75702 39.5425 8.75702H41.2431L43.8886 20.0557H40.8652L40.4873 18.1726H36.456L35.8262 20.0557H32.4248L37.9048 9.57304ZM38.5976 12.9626C38.5976 12.9626 37.5898 15.6618 37.3379 16.2895V16.3523H39.9834C39.8574 15.7246 39.2275 12.8999 39.2275 12.8999L39.0386 11.8328C38.8496 12.2722 38.5976 12.9626 38.5976 12.9626Z" fill="#293688"/>
<path d="M12.9614 16.6661L12.6465 15.0341C12.0796 13.151 10.2529 11.0795 8.2373 10.0752L11.0718 20.1185H14.4731L19.5752 8.81979H16.1738L12.9614 16.6661Z" fill="#3C58BF"/>
<path d="M12.9614 16.6661L12.6465 15.0341C12.0796 13.151 10.2529 11.0795 8.2373 10.0752L11.0718 20.1185H14.4731L19.5752 8.81979H16.8037L12.9614 16.6661Z" fill="#293688"/>
<path d="M4.20605 8.75702L4.77295 8.88256C8.80419 9.82412 11.5757 12.2094 12.6465 15.0341L11.5127 9.69858C11.3237 8.94533 10.7568 8.75702 10.064 8.75702H4.20605V8.75702Z" fill="#FFBC00"/>
<path d="M4.20605 8.75702V8.75702C8.2373 9.69858 11.5757 12.1466 12.6465 14.9713L11.5757 10.5146C11.3867 9.76135 10.7568 9.32195 10.064 9.32195L4.20605 8.75702Z" fill="#F7981D"/>
<path d="M4.20605 8.75702V8.75702C8.2373 9.69858 11.5757 12.1466 12.6465 14.9713L11.8906 12.5233C11.7016 11.77 11.4497 11.0168 10.5679 10.7029L4.20605 8.75702Z" fill="#ED7C00"/>
<path d="M16.1103 16.2895L13.9687 14.1553L12.9609 16.5406L12.709 14.9713C12.1421 13.0882 10.3154 11.0168 8.2998 10.0125L11.1343 20.0557H14.5356L16.1103 16.2895Z" fill="#051244"/>
<path d="M21.9683 20.0557L19.2598 17.2938L18.7559 20.0557H21.9683Z" fill="#051244"/>
<path d="M29.2114 16.164V16.164C29.4634 16.4151 29.5893 16.6034 29.5264 16.8544C29.5264 17.6077 28.5185 17.9843 27.6367 17.9843C26.3769 17.9843 25.6841 17.796 24.6133 17.3566L24.1724 17.1683L23.7314 19.7419C24.4873 20.0557 25.873 20.3696 27.3218 20.3696C29.3374 20.3696 30.9751 19.8047 31.9199 18.8003L29.2114 16.164Z" fill="#051244"/>
<path d="M32.8652 20.0557H35.8257L36.4556 18.1726H40.4868L40.8647 20.0557H43.8882L42.8174 15.4735L39.0381 11.8328L39.227 12.8371C39.227 12.8371 39.8569 15.6618 39.9829 16.2895H37.3374C37.5893 15.6618 38.5972 12.9627 38.5972 12.9627C38.5972 12.9627 38.8491 12.2722 39.0381 11.8328" fill="#051244"/>
</svg>
